<?xml version="1.0" encoding="UTF-8" standalone="no"?>
<!DOCTYPE svg PUBLIC "-//W3C//DTD SVG 1.1//EN" "http://www.w3.org/Graphics/SVG/1.1/DTD/svg11.dtd">
<svg version="1.1" width="180.0px" height="260.0px" viewBox="0 0 120 172"
    xmlns="http://www.w3.org/2000/svg" xmlns:xlink="http://www.w3.org/1999/xlink">
  <title>JFET -n source follower circuit diagram</title>
  <desc>An svg diagram of a JFET source follower amplifier</desc>
  <defs>
    <g id="JFETn" transform="translate(32,-7)">
      <circle r="18" cx="0" cy="0"/>
      <path stroke-width="4" d="M-3,-12 v24"/>
      <path d="M-1,-7 h8 v-18 M-1,7 h8 v18 M-32,7 h25" />
      <path d="M-5,7 l-6,-3.0 l0,6 l6,-3.0z"
          stroke-linejoin="miter" stroke-width="1" fill="black"/>
      <g font-size="12" stroke="none" fill="black">
        <text y="4" x="-30"> G </text>
        <text y="-16" x="11"> D </text>
        <text y="24" x="11"> S </text>
      </g>
    </g>
    <g stroke-linejoin="bevel" id="rstr">
      <path d="M0,0 l0,6 l-4,2.2 l8,4.4 l-8,4.4 l8,4.4 l-8,4.4 l8,4.4 l-4,2.2 l0,6"/>
    </g>
    <circle id="node" r="3.5" fill="#FFFFFF" stroke-width="1.5"/>
    <g id="grnd">
      <path d="M0,0 v6"/>
      <path d="M-14,6 h28 M-9,11 h18 M-4,16 h8"/>
    </g>
  </defs>
  <g stroke="black" stroke-width="2.5" font-family="Times" fill="none">
    <use xlink:href="#JFETn" x="33" y="65" />
    <path d="M60,23 h24"/>
    <path d="M72,23 v10"/>
    <path d="M72,83 v25"/>
    <use xlink:href="#rstr" x="72" y="108" />
    <use xlink:href="#grnd" x="72" y="143" />
    <path d="M26,65 h7"/>
    <use xlink:href="#node" x="26" y="65" />
    <path d="M72,93 h25"/>
    <use xlink:href="#node" x="97" y="93" />
    <circle cx="72" cy="23" r="3" stroke="none" fill="black"/>
    <circle cx="72" cy="93" r="3" stroke="none" fill="black"/>
    <g font-size="15" font-style="italic" stroke="none" fill="black">
      <text y="16" x="62"> V </text>
      <text y="80" x="10"> V </text>
      <text y="112" x="90"> V </text>
      <text y="132" x="47"> R </text>
    </g>
    <g font-size="8" font-style="normal" stroke="none" fill="black">
      <text y="19" x="69"> + </text>
      <text y="83" x="17"> in </text>
      <text y="115" x="97"> out </text>
      <text y="135" x="56"> S </text>
    </g>
  </g>
</svg>
