<?xml version="1.0" encoding="UTF-8" standalone="no"?>
<!-- Created with Inkscape (http://www.inkscape.org/) -->
<svg
   xmlns:dc="http://purl.org/dc/elements/1.1/"
   xmlns:cc="http://web.resource.org/cc/"
   xmlns:rdf="http://www.w3.org/1999/02/22-rdf-syntax-ns#"
   xmlns:svg="http://www.w3.org/2000/svg"
   xmlns="http://www.w3.org/2000/svg"
   xmlns:sodipodi="http://inkscape.sourceforge.net/DTD/sodipodi-0.dtd"
   xmlns:inkscape="http://www.inkscape.org/namespaces/inkscape"
   width="130mm"
   height="80mm"
   id="svg2"
   sodipodi:version="0.32"
   inkscape:version="0.43"
   version="1.0"
   sodipodi:docbase="/home/cyril/pub_libre/wikipedia/H_bridge"
   sodipodi:docname="H_bridge.svg">
  <defs
     id="defs4">
    <marker
       inkscape:stockid="Arrow1Lstart"
       orient="auto"
       refY="0.0"
       refX="0.0"
       id="Arrow1Lstart"
       style="overflow:visible">
      <path
         id="path4636"
         d="M 0.0,0.0 L 5.0,-5.0 L -12.5,0.0 L 5.0,5.0 L 0.0,0.0 z "
         style="fill-rule:evenodd;stroke:#000000;stroke-width:1.0pt;marker-start:none"
         transform="scale(0.8)" />
    </marker>
    <marker
       inkscape:stockid="Arrow2Lstart"
       orient="auto"
       refY="0"
       refX="0"
       id="Arrow2Lstart"
       style="overflow:visible">
      <path
         id="path4618"
         style="font-size:12px;fill-rule:evenodd;stroke-width:0.625;stroke-linejoin:round"
         d="M 8.7185878,4.0337352 L -2.2072895,0.016013256 L 8.7185884,-4.0017078 C 6.97309,-1.6296469 6.9831476,1.6157441 8.7185878,4.0337352 z "
         transform="matrix(1.1,0,0,1.1,-5.5,0)" />
    </marker>
    <marker
       inkscape:stockid="Torso"
       orient="auto"
       refY="0"
       refX="0"
       id="Torso"
       style="overflow:visible">
      <g
         id="g4469"
         transform="scale(0.7,0.7)">
        <path
           id="path4471"
           d="M -4.7792281,-3.239542 C -2.4288541,-2.8736027 0.52103922,-1.3019943 0.25792722,0.38794346 C -0.0051877922,2.0778819 -2.2126741,2.6176539 -4.5630471,2.2517169 C -6.9134221,1.8857769 -8.521035,0.75201414 -8.257922,-0.93792336 C -7.994809,-2.6278615 -7.1296041,-3.6054813 -4.7792281,-3.239542 z "
           style="fill:none;fill-opacity:0.75;fill-rule:evenodd;stroke:#000000;stroke-width:1.25;marker-start:none;marker-mid:none;marker-end:none" />
        <path
           id="path4473"
           d="M 4.4598789,0.088665736 C -2.5564571,-4.378332 5.2248769,-3.9061806 -0.84829578,-8.7197331"
           style="fill:none;fill-opacity:0.75;fill-rule:evenodd;stroke:#000000;stroke-width:1pt;marker-end:none" />
        <path
           id="path4475"
           d="M 4.9298719,0.057520736 C -1.3872731,1.7494689 1.8027579,5.4782079 -4.9448731,7.5462725"
           style="fill:none;fill-opacity:0.75;fill-rule:evenodd;stroke:#000000;stroke-width:1pt;marker-start:none;marker-end:none" />
        <rect
           id="rect4477"
           transform="matrix(0.527536,-0.849533,0.887668,0.460484,0,0)"
           y="-1.7408575"
           x="-10.391706"
           height="2.7608147"
           width="2.6366582"
           style="fill-rule:evenodd;stroke-width:1pt;marker-end:none" />
        <rect
           id="rect4479"
           transform="matrix(0.671205,-0.741272,0.790802,0.612072,0,0)"
           y="-7.9629307"
           x="4.9587269"
           height="2.8614161"
           width="2.7327356"
           style="fill-rule:evenodd;stroke-width:1pt;marker-end:none" />
        <path
           id="path4481"
           transform="matrix(6.793608e-17,-1.109517,1.109517,6.793608e-17,25.96648,19.71619)"
           d="M 16.779951 -28.685045 A 0.60731727 0.60731727 0 1 1  15.565317,-28.685045 A 0.60731727 0.60731727 0 1 1  16.779951 -28.685045 z"
           sodipodi:ry="0.60731727"
           sodipodi:rx="0.60731727"
           sodipodi:cy="-28.685045"
           sodipodi:cx="16.172634"
           style="fill:#ff0000;fill-opacity:0.75;fill-rule:evenodd;stroke:#000000;stroke-width:1pt;marker-start:none;marker-end:none"
           sodipodi:type="arc" />
        <path
           id="path4483"
           transform="matrix(6.793608e-17,-1.109517,1.109517,6.793608e-17,26.8245,16.99126)"
           d="M 16.779951 -28.685045 A 0.60731727 0.60731727 0 1 1  15.565317,-28.685045 A 0.60731727 0.60731727 0 1 1  16.779951 -28.685045 z"
           sodipodi:ry="0.60731727"
           sodipodi:rx="0.60731727"
           sodipodi:cy="-28.685045"
           sodipodi:cx="16.172634"
           style="fill:#ff0000;fill-opacity:0.75;fill-rule:evenodd;stroke:#000000;stroke-width:1pt;marker-start:none;marker-end:none"
           sodipodi:type="arc" />
      </g>
    </marker>
  </defs>
  <sodipodi:namedview
     id="base"
     pagecolor="#ffffff"
     bordercolor="#666666"
     borderopacity="1.0"
     inkscape:pageopacity="0.0"
     inkscape:pageshadow="2"
     inkscape:zoom="1.979899"
     inkscape:cx="170.2703"
     inkscape:cy="169.90015"
     inkscape:document-units="mm"
     inkscape:current-layer="layer1"
     showgrid="true"
     inkscape:window-width="1280"
     inkscape:window-height="949"
     inkscape:window-x="0"
     inkscape:window-y="25"
     showguides="true"
     inkscape:guide-bbox="true"
     inkscape:grid-points="true"
     gridtolerance="0.5cm"
     gridspacingy="0.1cm"
     gridspacingx="0.1cm"
     gridoriginy="0cm"
     gridoriginx="0cm" />
  <metadata
     id="metadata7">
    <rdf:RDF>
      <cc:Work
         rdf:about="">
        <dc:format>image/svg+xml</dc:format>
        <dc:type
           rdf:resource="http://purl.org/dc/dcmitype/StillImage" />
        <cc:license
           rdf:resource="http://creativecommons.org/licenses/by-sa/2.0/" />
      </cc:Work>
      <cc:License
         rdf:about="http://creativecommons.org/licenses/by-sa/2.0/">
        <cc:permits
           rdf:resource="http://web.resource.org/cc/Reproduction" />
        <cc:permits
           rdf:resource="http://web.resource.org/cc/Distribution" />
        <cc:requires
           rdf:resource="http://web.resource.org/cc/Notice" />
        <cc:requires
           rdf:resource="http://web.resource.org/cc/Attribution" />
        <cc:permits
           rdf:resource="http://web.resource.org/cc/DerivativeWorks" />
        <cc:requires
           rdf:resource="http://web.resource.org/cc/ShareAlike" />
      </cc:License>
    </rdf:RDF>
  </metadata>
  <g
     inkscape:label="Layer 1"
     inkscape:groupmode="layer"
     id="layer1">
    <path
       sodipodi:nodetypes="cccc"
       id="path1313"
       d="M 434.08148,51.924033 L 434.08148,16.490963 L 221.35834,16.490963 L 221.35834,51.924033"
       style="fill:none;fill-opacity:0.75;fill-rule:evenodd;stroke:#b30000;stroke-width:1.77165353;stroke-linecap:butt;stroke-linejoin:round;stroke-miterlimit:4;stroke-dasharray:none;stroke-opacity:1" />
    <path
       style="fill:none;fill-opacity:0.75;fill-rule:evenodd;stroke:#b30000;stroke-width:1.77165353;stroke-linecap:butt;stroke-linejoin:round;stroke-miterlimit:4;stroke-dasharray:none;stroke-opacity:1"
       d="M 239.19969,51.924033 L 221.48316,105.07364 L 221.48316,140.50671 L 292.3493,140.50671 M 363.21544,140.50671 L 434.08158,140.50671 L 434.08158,105.07364 L 451.79812,51.924033 L 451.79812,51.924033 L 451.79812,51.924033"
       id="path3536"
       sodipodi:nodetypes="cccccccccc" />
    <path
       sodipodi:nodetypes="cccccc"
       id="path3538"
       d="M 451.79812,175.93978 L 434.08158,229.08939 L 434.58158,264.52246 L 221.48316,264.52246 L 221.48316,229.08939 L 238.69969,175.93978"
       style="fill:none;fill-opacity:0.75;fill-rule:evenodd;stroke:#b30000;stroke-width:1.77165353;stroke-linecap:butt;stroke-linejoin:round;stroke-miterlimit:4;stroke-dasharray:none;stroke-opacity:1" />
    <path
       style="fill:none;fill-opacity:0.75;fill-rule:evenodd;stroke:#b30000;stroke-width:1.77165353;stroke-linecap:butt;stroke-linejoin:round;stroke-miterlimit:4;stroke-dasharray:none;stroke-opacity:1"
       d="M 221.48316,175.93978 L 221.48316,140.50671 L 221.48316,140.50671"
       id="path3540" />
    <path
       style="fill:none;fill-opacity:0.75;fill-rule:evenodd;stroke:#b30000;stroke-width:1.77165353;stroke-linecap:butt;stroke-linejoin:round;stroke-miterlimit:4;stroke-dasharray:none;stroke-opacity:1"
       d="M 434.08158,140.50671 L 434.08158,175.93978"
       id="path3542"
       sodipodi:nodetypes="cc" />
    <path
       sodipodi:type="arc"
       style="opacity:1;fill:none;fill-opacity:1;fill-rule:nonzero;stroke:#000000;stroke-width:2.21097684;stroke-linecap:round;stroke-linejoin:round;stroke-miterlimit:4;stroke-dasharray:none;stroke-dashoffset:0;stroke-opacity:1"
       id="path3544"
       sodipodi:cx="97.440948"
       sodipodi:cy="352.55902"
       sodipodi:rx="44.29134"
       sodipodi:ry="44.29134"
       d="M 141.73229 352.55902 A 44.29134 44.29134 0 1 1  53.149609,352.55902 A 44.29134 44.29134 0 1 1  141.73229 352.55902 z"
       transform="matrix(0.801299,0,0,0.801299,-33.4145,-142.3455)" />
    <path
       style="fill:none;fill-opacity:0.75;fill-rule:evenodd;stroke:#000000;stroke-width:1.77165353;stroke-linecap:butt;stroke-linejoin:round;stroke-miterlimit:4;stroke-dasharray:none;stroke-opacity:1"
       d="M 221.48316,16.490963 L 44.317803,16.490963 L 44.317803,264.52246 L 221.48316,264.52246 L 221.48316,264.52246 L 221.48316,264.52246 L 221.48316,264.52246 L 221.48316,264.52246 L 221.48316,264.52246"
       id="path4421"
       sodipodi:nodetypes="ccccccccc" />
    <path
       sodipodi:type="arc"
       style="opacity:1;fill:none;fill-opacity:1;fill-rule:nonzero;stroke:#000000;stroke-width:2.21097684;stroke-linecap:round;stroke-linejoin:round;stroke-miterlimit:4;stroke-dasharray:none;stroke-dashoffset:0;stroke-opacity:1"
       id="path4423"
       sodipodi:cx="97.440948"
       sodipodi:cy="352.55902"
       sodipodi:rx="44.29134"
       sodipodi:ry="44.29134"
       d="M 141.73229 352.55902 A 44.29134 44.29134 0 1 1  53.149609,352.55902 A 44.29134 44.29134 0 1 1  141.73229 352.55902 z"
       transform="matrix(0.801299,0,0,0.801299,250.0501,-141.6514)" />
    <path
       style="font-size:12px;font-style:normal;font-variant:normal;font-weight:normal;font-stretch:normal;text-align:start;line-height:100%;writing-mode:lr-tb;text-anchor:start;fill:#000000;fill-opacity:1;stroke:none;stroke-width:1.77165353;stroke-linecap:butt;stroke-linejoin:round;stroke-miterlimit:4;stroke-opacity:1;font-family:Bitstream Vera Sans"
       d="M 314.78952,126.27368 L 320.66843,126.27368 L 328.10983,146.11743 L 335.5903,126.27368 L 341.46921,126.27368 L 341.46921,155.43384 L 337.62155,155.43384 L 337.62155,129.82837 L 330.10202,149.82837 L 326.13718,149.82837 L 318.61765,129.82837 L 318.61765,155.43384 L 314.78952,155.43384 L 314.78952,126.27368"
       id="text4425" />
    <path
       transform="translate(-23.73684,-25.94825)"
       style=""
       d="M 218.54688,99.614671 L 218.54688,101.5385 C 217.79817,101.18044 217.09179,100.91351 216.42773,100.73772 C 215.76366,100.56195 215.12239,100.47406 214.50391,100.47405 C 213.42968,100.47406 212.5996,100.68239 212.01367,101.09905 C 211.43424,101.51572 211.14453,102.10817 211.14453,102.87639 C 211.14453,103.52093 211.33659,104.00921 211.7207,104.34123 C 212.11132,104.66676 212.847,104.93043 213.92773,105.13225 L 215.11914,105.37639 C 216.59049,105.65635 217.67447,106.15114 218.37109,106.86076 C 219.07421,107.5639 219.42577,108.50791 219.42578,109.6928 C 219.42577,111.10556 218.95051,112.17652 218,112.90569 C 217.05598,113.63485 215.66926,113.99944 213.83984,113.99944 C 213.14973,113.99944 212.41406,113.92131 211.63281,113.76506 C 210.85807,113.60881 210.05403,113.37769 209.2207,113.0717 L 209.2207,111.04045 C 210.02148,111.48967 210.80599,111.82821 211.57422,112.05608 C 212.34244,112.28394 213.09765,112.39788 213.83984,112.39787 C 214.96614,112.39788 215.83528,112.17652 216.44727,111.73381 C 217.05924,111.29111 217.36522,110.6596 217.36523,109.83928 C 217.36522,109.12314 217.14387,108.56324 216.70117,108.15959 C 216.26497,107.75595 215.54557,107.45322 214.54297,107.25139 L 213.3418,107.01701 C 211.87044,106.72405 210.80599,106.26507 210.14844,105.64006 C 209.49088,105.01507 209.16211,104.14593 209.16211,103.03264 C 209.16211,101.74359 209.61458,100.72796 210.51953,99.985764 C 211.43099,99.243591 212.68424,98.872498 214.2793,98.872483 C 214.96288,98.872498 215.6595,98.934347 216.36914,99.05803 C 217.07877,99.181743 217.80468,99.367289 218.54688,99.614671 M 223.01953,112.05608 L 226.24219,112.05608 L 226.24219,100.93303 L 222.73633,101.63616 L 222.73633,99.83928 L 226.22266,99.136155 L 228.19531,99.136155 L 228.19531,112.05608 L 231.41797,112.05608 L 231.41797,113.71623 L 223.01953,113.71623 L 223.01953,112.05608"
       id="flowRoot4429" />
    <path
       transform="translate(-23.73684,99.02118)"
       style=""
       d="M 218.54688,99.614671 L 218.54688,101.5385 C 217.79817,101.18044 217.09179,100.91351 216.42773,100.73772 C 215.76366,100.56195 215.12239,100.47406 214.50391,100.47405 C 213.42968,100.47406 212.5996,100.68239 212.01367,101.09905 C 211.43424,101.51572 211.14453,102.10817 211.14453,102.87639 C 211.14453,103.52093 211.33659,104.00921 211.7207,104.34123 C 212.11132,104.66676 212.847,104.93043 213.92773,105.13225 L 215.11914,105.37639 C 216.59049,105.65635 217.67447,106.15114 218.37109,106.86076 C 219.07421,107.5639 219.42577,108.50791 219.42578,109.6928 C 219.42577,111.10556 218.95051,112.17652 218,112.90569 C 217.05598,113.63485 215.66926,113.99944 213.83984,113.99944 C 213.14973,113.99944 212.41406,113.92131 211.63281,113.76506 C 210.85807,113.60881 210.05403,113.37769 209.2207,113.0717 L 209.2207,111.04045 C 210.02148,111.48967 210.80599,111.82821 211.57422,112.05608 C 212.34244,112.28394 213.09765,112.39788 213.83984,112.39787 C 214.96614,112.39788 215.83528,112.17652 216.44727,111.73381 C 217.05924,111.29111 217.36522,110.6596 217.36523,109.83928 C 217.36522,109.12314 217.14387,108.56324 216.70117,108.15959 C 216.26497,107.75595 215.54557,107.45322 214.54297,107.25139 L 213.3418,107.01701 C 211.87044,106.72405 210.80599,106.26507 210.14844,105.64006 C 209.49088,105.01507 209.16211,104.14593 209.16211,103.03264 C 209.16211,101.74359 209.61458,100.72796 210.51953,99.985764 C 211.43099,99.243591 212.68424,98.872498 214.2793,98.872483 C 214.96288,98.872498 215.6595,98.934347 216.36914,99.05803 C 217.07877,99.181743 217.80468,99.367289 218.54688,99.614671 M 224.37695,112.05608 L 231.26172,112.05608 L 231.26172,113.71623 L 222.00391,113.71623 L 222.00391,112.05608 C 222.7526,111.28134 223.77148,110.24293 225.06055,108.94084 C 226.35611,107.63225 227.16992,106.78916 227.50195,106.41155 C 228.13346,105.70192 228.57291,105.10296 228.82031,104.61467 C 229.07421,104.11989 229.20116,103.63486 229.20117,103.15959 C 229.20116,102.38486 228.92773,101.75335 228.38086,101.26506 C 227.84049,100.77679 227.13411,100.53265 226.26172,100.53264 C 225.64322,100.53265 224.98893,100.64007 224.29883,100.85491 C 223.61523,101.06976 222.88281,101.39528 222.10156,101.83147 L 222.10156,99.83928 C 222.89583,99.520284 223.63802,99.279399 224.32812,99.116624 C 225.01822,98.953878 225.64973,98.872498 226.22266,98.872483 C 227.73307,98.872498 228.93749,99.250102 229.83594,100.0053 C 230.73436,100.76052 231.18358,101.76963 231.18359,103.03264 C 231.18358,103.63161 231.06965,104.20127 230.8418,104.74162 C 230.62043,105.27549 230.21353,105.907 229.62109,106.63616 C 229.45832,106.82496 228.94075,107.37184 228.06836,108.27678 C 227.19596,109.17522 225.96549,110.43499 224.37695,112.05608"
       id="flowRoot4437" />
    <path
       transform="translate(188.8616,-25.94825)"
       style=""
       d="M 218.54688,99.614671 L 218.54688,101.5385 C 217.79817,101.18044 217.09179,100.91351 216.42773,100.73772 C 215.76366,100.56195 215.12239,100.47406 214.50391,100.47405 C 213.42968,100.47406 212.5996,100.68239 212.01367,101.09905 C 211.43424,101.51572 211.14453,102.10817 211.14453,102.87639 C 211.14453,103.52093 211.33659,104.00921 211.7207,104.34123 C 212.11132,104.66676 212.847,104.93043 213.92773,105.13225 L 215.11914,105.37639 C 216.59049,105.65635 217.67447,106.15114 218.37109,106.86076 C 219.07421,107.5639 219.42577,108.50791 219.42578,109.6928 C 219.42577,111.10556 218.95051,112.17652 218,112.90569 C 217.05598,113.63485 215.66926,113.99944 213.83984,113.99944 C 213.14973,113.99944 212.41406,113.92131 211.63281,113.76506 C 210.85807,113.60881 210.05403,113.37769 209.2207,113.0717 L 209.2207,111.04045 C 210.02148,111.48967 210.80599,111.82821 211.57422,112.05608 C 212.34244,112.28394 213.09765,112.39788 213.83984,112.39787 C 214.96614,112.39788 215.83528,112.17652 216.44727,111.73381 C 217.05924,111.29111 217.36522,110.6596 217.36523,109.83928 C 217.36522,109.12314 217.14387,108.56324 216.70117,108.15959 C 216.26497,107.75595 215.54557,107.45322 214.54297,107.25139 L 213.3418,107.01701 C 211.87044,106.72405 210.80599,106.26507 210.14844,105.64006 C 209.49088,105.01507 209.16211,104.14593 209.16211,103.03264 C 209.16211,101.74359 209.61458,100.72796 210.51953,99.985764 C 211.43099,99.243591 212.68424,98.872498 214.2793,98.872483 C 214.96288,98.872498 215.6595,98.934347 216.36914,99.05803 C 217.07877,99.181743 217.80468,99.367289 218.54688,99.614671 M 228.6543,105.85491 C 229.5983,106.05674 230.33397,106.47666 230.86133,107.11467 C 231.39517,107.7527 231.6621,108.54046 231.66211,109.47795 C 231.6621,110.91676 231.16731,112.03004 230.17773,112.8178 C 229.18814,113.60556 227.78189,113.99944 225.95898,113.99944 C 225.347,113.99944 224.71549,113.93759 224.06445,113.81389 C 223.41992,113.6967 222.7526,113.51767 222.0625,113.27678 L 222.0625,111.37248 C 222.60937,111.6915 223.20833,111.93238 223.85938,112.09514 C 224.51041,112.2579 225.19075,112.33928 225.90039,112.33928 C 227.13736,112.33928 228.07812,112.09514 228.72266,111.60686 C 229.37369,111.11858 229.69921,110.40894 229.69922,109.47795 C 229.69921,108.61858 229.39648,107.94801 228.79102,107.46623 C 228.19205,106.97796 227.35546,106.73382 226.28125,106.73381 L 224.58203,106.73381 L 224.58203,105.11272 L 226.35938,105.11272 C 227.32942,105.11273 228.07161,104.92067 228.58594,104.53655 C 229.10025,104.14593 229.35741,103.58604 229.35742,102.85686 C 229.35741,102.10817 229.09049,101.53526 228.55664,101.13811 C 228.02929,100.73448 227.27083,100.53265 226.28125,100.53264 C 225.74088,100.53265 225.16145,100.59125 224.54297,100.70842 C 223.92448,100.82562 223.24414,101.00791 222.50195,101.2553 L 222.50195,99.497483 C 223.25065,99.289164 223.95052,99.132914 224.60156,99.028733 C 225.25911,98.924581 225.8776,98.872498 226.45703,98.872483 C 227.95442,98.872498 229.13931,99.214295 230.01172,99.897874 C 230.8841,100.57497 231.3203,101.49294 231.32031,102.65178 C 231.3203,103.45908 231.08918,104.14268 230.62695,104.70256 C 230.1647,105.25596 229.50715,105.64007 228.6543,105.85491"
       id="flowRoot4445" />
    <path
       transform="translate(188.8616,98.06748)"
       style=""
       d="M 218.54688,99.614671 L 218.54688,101.5385 C 217.79817,101.18044 217.09179,100.91351 216.42773,100.73772 C 215.76366,100.56195 215.12239,100.47406 214.50391,100.47405 C 213.42968,100.47406 212.5996,100.68239 212.01367,101.09905 C 211.43424,101.51572 211.14453,102.10817 211.14453,102.87639 C 211.14453,103.52093 211.33659,104.00921 211.7207,104.34123 C 212.11132,104.66676 212.847,104.93043 213.92773,105.13225 L 215.11914,105.37639 C 216.59049,105.65635 217.67447,106.15114 218.37109,106.86076 C 219.07421,107.5639 219.42577,108.50791 219.42578,109.6928 C 219.42577,111.10556 218.95051,112.17652 218,112.90569 C 217.05598,113.63485 215.66926,113.99944 213.83984,113.99944 C 213.14973,113.99944 212.41406,113.92131 211.63281,113.76506 C 210.85807,113.60881 210.05403,113.37769 209.2207,113.0717 L 209.2207,111.04045 C 210.02148,111.48967 210.80599,111.82821 211.57422,112.05608 C 212.34244,112.28394 213.09765,112.39788 213.83984,112.39787 C 214.96614,112.39788 215.83528,112.17652 216.44727,111.73381 C 217.05924,111.29111 217.36522,110.6596 217.36523,109.83928 C 217.36522,109.12314 217.14387,108.56324 216.70117,108.15959 C 216.26497,107.75595 215.54557,107.45322 214.54297,107.25139 L 213.3418,107.01701 C 211.87044,106.72405 210.80599,106.26507 210.14844,105.64006 C 209.49088,105.01507 209.16211,104.14593 209.16211,103.03264 C 209.16211,101.74359 209.61458,100.72796 210.51953,99.985764 C 211.43099,99.243591 212.68424,98.872498 214.2793,98.872483 C 214.96288,98.872498 215.6595,98.934347 216.36914,99.05803 C 217.07877,99.181743 217.80468,99.367289 218.54688,99.614671 M 228.09766,100.85491 L 223.11719,108.63811 L 228.09766,108.63811 L 228.09766,100.85491 M 227.58008,99.136155 L 230.06055,99.136155 L 230.06055,108.63811 L 232.14062,108.63811 L 232.14062,110.27873 L 230.06055,110.27873 L 230.06055,113.71623 L 228.09766,113.71623 L 228.09766,110.27873 L 221.51562,110.27873 L 221.51562,108.37444 L 227.58008,99.136155"
       id="flowRoot4453" />
    <path
       style="fill:none;fill-opacity:0.75;fill-rule:evenodd;stroke:#000000;stroke-width:1.0629921;stroke-linecap:butt;stroke-linejoin:miter;marker-end:none;stroke-miterlimit:4;stroke-opacity:1"
       d="M 95.669291,213.12992 L 95.669291,67.854333 L 95.669291,71.397643 L 95.669291,71.397643"
       id="path4461" />
    <path
       transform="translate(-106.2289,34.28797)"
       style=""
       d="M 213.56641,113.71623 L 208,99.136155 L 210.06055,99.136155 L 214.67969,111.41155 L 219.30859,99.136155 L 221.35938,99.136155 L 215.80273,113.71623 L 213.56641,113.71623"
       id="flowRoot4652" />
    <path
       transform="translate(-33.00923,-34.63028)"
       style=""
       d="M 147.56836,179.89849 L 148.64648,179.89849 L 148.64648,186.46099 L 147.56836,186.46099 L 147.56836,179.89849 M 147.56836,177.3438 L 148.64648,177.3438 L 148.64648,178.70904 L 147.56836,178.70904 L 147.56836,177.3438 M 156.35156,182.50005 L 156.35156,186.46099 L 155.27344,186.46099 L 155.27344,182.53521 C 155.27343,181.91412 155.15234,181.44928 154.91016,181.14068 C 154.66796,180.83209 154.30468,180.67779 153.82031,180.67779 C 153.23828,180.67779 152.77929,180.86334 152.44336,181.23443 C 152.10742,181.60553 151.93945,182.11138 151.93945,182.75201 L 151.93945,186.46099 L 150.85547,186.46099 L 150.85547,179.89849 L 151.93945,179.89849 L 151.93945,180.91802 C 152.19726,180.5235 152.5,180.22857 152.84766,180.03326 C 153.19922,179.83795 153.60351,179.74029 154.06055,179.74029 C 154.81445,179.74029 155.38476,179.97467 155.77148,180.44341 C 156.1582,180.90826 156.35156,181.59381 156.35156,182.50005"
       id="flowRoot4660" />
    <path
       style="fill:#000000;fill-opacity:1;fill-rule:nonzero;stroke:#000000;stroke-width:1.0629921;stroke-linecap:round;stroke-linejoin:round;stroke-miterlimit:4;stroke-dashoffset:0;stroke-opacity:1"
       d="M 95.669291,53.149608 L 99.212598,67.322837 L 92.125984,67.322837 L 95.669291,53.149608 z "
       id="rect4696"
       sodipodi:nodetypes="cccc" />
  </g>
</svg>
