<?xml version="1.0" encoding="UTF-8" standalone="no"?>
<!-- Created with Inkscape (http://www.inkscape.org/) -->

<svg
   xmlns:dc="http://purl.org/dc/elements/1.1/"
   xmlns:cc="http://creativecommons.org/ns#"
   xmlns:rdf="http://www.w3.org/1999/02/22-rdf-syntax-ns#"
   xmlns:svg="http://www.w3.org/2000/svg"
   xmlns="http://www.w3.org/2000/svg"
   xmlns:sodipodi="http://sodipodi.sourceforge.net/DTD/sodipodi-0.dtd"
   xmlns:inkscape="http://www.inkscape.org/namespaces/inkscape"
   width="737.3006"
   height="206.25389"
   id="svg2"
   version="1.1"
   inkscape:version="0.48.2 r9819"
   sodipodi:docname="Diode Voltage Clipper.svg">
  <title
     id="title5875">Diode Voltage Clipper</title>
  <defs
     id="defs4">
    <marker
       inkscape:stockid="Arrow2Mend"
       orient="auto"
       refY="0"
       refX="0"
       id="Arrow2Mend"
       style="overflow:visible">
      <path
         id="path3954"
         style="font-size:12px;fill-rule:evenodd;stroke-width:0.625;stroke-linejoin:round"
         d="M 8.7185878,4.0337352 -2.2072895,0.01601326 8.7185884,-4.0017078 c -1.7454984,2.3720609 -1.7354408,5.6174519 -6e-7,8.035443 z"
         transform="scale(-0.6,-0.6)"
         inkscape:connector-curvature="0" />
    </marker>
    <marker
       inkscape:stockid="Arrow1Send"
       orient="auto"
       refY="0"
       refX="0"
       id="Arrow1Send"
       style="overflow:visible">
      <path
         id="path3942"
         d="M 0,0 5,-5 -12.5,0 5,5 0,0 z"
         style="fill-rule:evenodd;stroke:#000000;stroke-width:1pt;marker-start:none"
         transform="matrix(-0.2,0,0,-0.2,-1.2,0)"
         inkscape:connector-curvature="0" />
    </marker>
    <marker
       inkscape:stockid="Arrow2Lend"
       orient="auto"
       refY="0"
       refX="0"
       id="Arrow2Lend"
       style="overflow:visible">
      <path
         id="path3948"
         style="font-size:12px;fill-rule:evenodd;stroke-width:0.625;stroke-linejoin:round"
         d="M 8.7185878,4.0337352 -2.2072895,0.01601326 8.7185884,-4.0017078 c -1.7454984,2.3720609 -1.7354408,5.6174519 -6e-7,8.035443 z"
         transform="matrix(-1.1,0,0,-1.1,-1.1,0)"
         inkscape:connector-curvature="0" />
    </marker>
    <marker
       inkscape:stockid="Arrow1Lend"
       orient="auto"
       refY="0"
       refX="0"
       id="Arrow1Lend"
       style="overflow:visible">
      <path
         id="path3930"
         d="M 0,0 5,-5 -12.5,0 5,5 0,0 z"
         style="fill-rule:evenodd;stroke:#000000;stroke-width:1pt;marker-start:none"
         transform="matrix(-0.8,0,0,-0.8,-10,0)"
         inkscape:connector-curvature="0" />
    </marker>
    <inkscape:perspective
       sodipodi:type="inkscape:persp3d"
       inkscape:vp_x="0 : 526.18109 : 1"
       inkscape:vp_y="0 : 1000 : 0"
       inkscape:vp_z="744.09448 : 526.18109 : 1"
       inkscape:persp3d-origin="372.04724 : 350.78739 : 1"
       id="perspective10" />
    <inkscape:perspective
       id="perspective2972"
       inkscape:persp3d-origin="212.59842 : 59.05512 : 1"
       inkscape:vp_z="425.19684 : 88.58268 : 1"
       inkscape:vp_y="0 : 1000 : 0"
       inkscape:vp_x="0 : 88.58268 : 1"
       sodipodi:type="inkscape:persp3d" />
  </defs>
  <sodipodi:namedview
     id="base"
     pagecolor="#ffffff"
     bordercolor="#666666"
     borderopacity="1.0"
     inkscape:pageopacity="0.0"
     inkscape:pageshadow="2"
     inkscape:zoom="1"
     inkscape:cx="275.2741"
     inkscape:cy="18.139944"
     inkscape:document-units="px"
     inkscape:current-layer="layer1"
     showgrid="true"
     inkscape:window-width="1920"
     inkscape:window-height="1018"
     inkscape:window-x="-8"
     inkscape:window-y="-8"
     inkscape:window-maximized="1"
     borderlayer="false"
     showguides="false"
     inkscape:snap-global="false"
     fit-margin-top="0"
     fit-margin-left="0"
     fit-margin-right="0"
     fit-margin-bottom="0">
    <inkscape:grid
       type="xygrid"
       id="grid2816"
       empspacing="5"
       visible="true"
       enabled="true"
       snapvisiblegridlinesonly="true"
       units="mm" />
  </sodipodi:namedview>
  <metadata
     id="metadata7">
    <rdf:RDF>
      <cc:Work
         rdf:about="">
        <dc:format>image/svg+xml</dc:format>
        <dc:type
           rdf:resource="http://purl.org/dc/dcmitype/StillImage" />
        <dc:title>Diode Voltage Clipper</dc:title>
        <dc:date>13/01/2010</dc:date>
        <dc:creator>
          <cc:Agent>
            <dc:title>Jack Price</dc:title>
          </cc:Agent>
        </dc:creator>
        <cc:license
           rdf:resource="http://creativecommons.org/licenses/by-sa/3.0/" />
      </cc:Work>
      <cc:License
         rdf:about="http://creativecommons.org/licenses/by-sa/3.0/">
        <cc:permits
           rdf:resource="http://creativecommons.org/ns#Reproduction" />
        <cc:permits
           rdf:resource="http://creativecommons.org/ns#Distribution" />
        <cc:requires
           rdf:resource="http://creativecommons.org/ns#Notice" />
        <cc:requires
           rdf:resource="http://creativecommons.org/ns#Attribution" />
        <cc:permits
           rdf:resource="http://creativecommons.org/ns#DerivativeWorks" />
        <cc:requires
           rdf:resource="http://creativecommons.org/ns#ShareAlike" />
      </cc:License>
    </rdf:RDF>
  </metadata>
  <g
     inkscape:label="Layer 1"
     inkscape:groupmode="layer"
     id="layer1"
     transform="translate(-3.9493972,-714.80657)">
    <path
       style="fill:none;stroke:#ff0000;stroke-width:2.5;stroke-linecap:butt;stroke-linejoin:miter;stroke-miterlimit:4;stroke-opacity:1;stroke-dasharray:none"
       d="m 740,818.36218 0,0 c -0.69372,-10.20263 -5,-30 -5,-30 l -10,0 c 0,0 0,0 -5,30 -11.62477,69.74862 -10,60.00002 -20,0 -2.5,-15 -5,-30 -5,-30 l -10,0 c -1.5625,7.96875 -2.5,12.5 -5,30 -10,70.00002 -10,60.00002 -20,0 -2.5,-15 -5,-30 -5,-30 l -10,0 c -1.5625,8.59375 -2.5,15 -5,30 -11.62477,69.74862 -10,60.00002 -20,0 -2.5,-15 -5,-30 -5,-30 l -10,0 c -1.5625,7.96875 -2.5,12.5 -5,30"
       id="path6038"
       sodipodi:nodetypes="cccsssscssscssscc"
       inkscape:connector-curvature="0" />
    <path
       sodipodi:nodetypes="csssssscc"
       id="path6032"
       d="m 10,818.36218 c 10,-70 10,-60 20,0 10,60.00002 10,70.00002 20,0 10,-70 10,-60 20,0 10,60.00002 10,70.00002 20,0 10,-70 10,-60 20,0 10,60.00002 13.56935,70.41772 20,0 10,-109.50322 20,0 20,0 l 0,0"
       style="fill:none;stroke:#ff0000;stroke-width:2.5;stroke-linecap:butt;stroke-linejoin:miter;stroke-miterlimit:4;stroke-opacity:1;stroke-dasharray:none"
       inkscape:connector-curvature="0" />
    <line
       style="fill:none;stroke:#000000;stroke-width:3.71350956"
       x1="405.14597"
       y1="746.3714"
       x2="405.14597"
       y2="784.45898"
       id="line5940" />
    <polygon
       style="fill:#ffffff"
       points="370,281.538 360,299.487 380,299.487 "
       id="polygon5946"
       transform="matrix(1.8567548,0,0,1.8567548,-281.85331,263.61515)" />
    <line
       style="fill:none;stroke:#000000;stroke-width:3.71350956"
       x1="405.14597"
       y1="819.68909"
       x2="405.14597"
       y2="857.77667"
       id="line5950" />
    <g
       id="g5952"
       transform="matrix(1.8567548,0,0,1.8567548,-281.85331,263.61515)">
      <line
         id="line5954"
         y2="250"
         x2="315"
         y1="250"
         x1="300"
         style="fill:none;stroke:#000000;stroke-width:2" />
      <rect
         id="rect5956"
         height="12"
         width="30"
         y="244"
         x="315"
         style="fill:#ffffff" />
      <rect
         id="rect5958"
         height="12"
         width="30"
         y="244"
         x="315"
         style="fill:none;stroke:#000000;stroke-width:2" />
      <line
         id="line5960"
         y2="250"
         x2="360"
         y1="250"
         x1="345"
         style="fill:none;stroke:#000000;stroke-width:2" />
    </g>
    <line
       id="line5962"
       y2="727.80383"
       x2="405.14597"
       y1="727.80383"
       x1="386.57843"
       style="fill:none;stroke:#000000;stroke-width:3.71350956" />
    <line
       id="line5964"
       y2="727.80383"
       x2="405.14597"
       y1="746.3714"
       x1="405.14597"
       style="fill:none;stroke:#000000;stroke-width:3.71350956" />
    <g
       id="g5966"
       transform="matrix(1.8567548,0,0,1.8567548,-281.85331,263.61515)">
      <ellipse
         id="ellipse5968"
         ry="4"
         rx="4"
         cy="250"
         cx="245.8"
         style="fill:#ffffff"
         sodipodi:cx="245.8"
         sodipodi:cy="250"
         sodipodi:rx="4"
         sodipodi:ry="4"
         d="m 249.8,250 c 0,2.20914 -1.79086,4 -4,4 -2.20914,0 -4,-1.79086 -4,-4 0,-2.20914 1.79086,-4 4,-4 2.20914,0 4,1.79086 4,4 z" />
      <ellipse
         id="ellipse5970"
         ry="4"
         rx="4"
         cy="250"
         cx="245.8"
         style="fill:none;stroke:#000000;stroke-width:2"
         sodipodi:cx="245.8"
         sodipodi:cy="250"
         sodipodi:rx="4"
         sodipodi:ry="4"
         d="m 249.8,250 c 0,2.20914 -1.79086,4 -4,4 -2.20914,0 -4,-1.79086 -4,-4 0,-2.20914 1.79086,-4 4,-4 2.20914,0 4,1.79086 4,4 z" />
      <ellipse
         id="ellipse5972"
         ry="4"
         rx="4"
         cy="250"
         cx="245.8"
         style="fill:none;stroke:#000000;stroke-width:2"
         sodipodi:cx="245.8"
         sodipodi:cy="250"
         sodipodi:rx="4"
         sodipodi:ry="4"
         d="m 249.8,250 c 0,2.20914 -1.79086,4 -4,4 -2.20914,0 -4,-1.79086 -4,-4 0,-2.20914 1.79086,-4 4,-4 2.20914,0 4,1.79086 4,4 z" />
    </g>
    <line
       id="line5974"
       y2="727.80383"
       x2="182.33539"
       y1="727.80383"
       x1="275.17313"
       style="fill:none;stroke:#000000;stroke-width:3.71350956" />
    <line
       id="line5976"
       y2="911.77667"
       x2="182.33539"
       y1="911.77667"
       x1="405.14597"
       style="fill:none;stroke:#000000;stroke-width:3.71350956" />
    <g
       id="g5978"
       transform="matrix(1.8567548,0,0,1.8567548,-281.85331,317.61515)">
      <ellipse
         id="ellipse5980"
         ry="4"
         rx="4"
         cy="320"
         cx="246"
         style="fill:#ffffff"
         sodipodi:cx="246"
         sodipodi:cy="320"
         sodipodi:rx="4"
         sodipodi:ry="4"
         d="m 250,320 c 0,2.20914 -1.79086,4 -4,4 -2.20914,0 -4,-1.79086 -4,-4 0,-2.20914 1.79086,-4 4,-4 2.20914,0 4,1.79086 4,4 z" />
      <ellipse
         id="ellipse5982"
         ry="4"
         rx="4"
         cy="320"
         cx="246"
         style="fill:none;stroke:#000000;stroke-width:2"
         sodipodi:cx="246"
         sodipodi:cy="320"
         sodipodi:rx="4"
         sodipodi:ry="4"
         d="m 250,320 c 0,2.20914 -1.79086,4 -4,4 -2.20914,0 -4,-1.79086 -4,-4 0,-2.20914 1.79086,-4 4,-4 2.20914,0 4,1.79086 4,4 z" />
      <ellipse
         id="ellipse5984"
         ry="4"
         rx="4"
         cy="320"
         cx="246"
         style="fill:none;stroke:#000000;stroke-width:2"
         sodipodi:cx="246"
         sodipodi:cy="320"
         sodipodi:rx="4"
         sodipodi:ry="4"
         d="m 250,320 c 0,2.20914 -1.79086,4 -4,4 -2.20914,0 -4,-1.79086 -4,-4 0,-2.20914 1.79086,-4 4,-4 2.20914,0 4,1.79086 4,4 z" />
    </g>
    <line
       id="line5986"
       y2="727.80383"
       x2="572.25391"
       y1="727.80383"
       x1="405.14597"
       style="fill:none;stroke:#000000;stroke-width:3.71350956" />
    <line
       id="line5988"
       y2="911.77667"
       x2="572.25391"
       y1="911.77667"
       x1="405.14597"
       style="fill:none;stroke:#000000;stroke-width:3.71350956" />
    <g
       id="g5990"
       transform="matrix(1.8567548,0,0,1.8567548,-281.85331,317.61515)">
      <ellipse
         id="ellipse5992"
         ry="4"
         rx="4"
         cy="320"
         cx="464"
         style="fill:#ffffff"
         sodipodi:cx="464"
         sodipodi:cy="320"
         sodipodi:rx="4"
         sodipodi:ry="4"
         d="m 468,320 c 0,2.20914 -1.79086,4 -4,4 -2.20914,0 -4,-1.79086 -4,-4 0,-2.20914 1.79086,-4 4,-4 2.20914,0 4,1.79086 4,4 z" />
      <ellipse
         id="ellipse5994"
         ry="4"
         rx="4"
         cy="320"
         cx="464"
         style="fill:none;stroke:#000000;stroke-width:2"
         sodipodi:cx="464"
         sodipodi:cy="320"
         sodipodi:rx="4"
         sodipodi:ry="4"
         d="m 468,320 c 0,2.20914 -1.79086,4 -4,4 -2.20914,0 -4,-1.79086 -4,-4 0,-2.20914 1.79086,-4 4,-4 2.20914,0 4,1.79086 4,4 z" />
      <ellipse
         id="ellipse5996"
         ry="4"
         rx="4"
         cy="320"
         cx="464"
         style="fill:none;stroke:#000000;stroke-width:2"
         sodipodi:cx="464"
         sodipodi:cy="320"
         sodipodi:rx="4"
         sodipodi:ry="4"
         d="m 468,320 c 0,2.20914 -1.79086,4 -4,4 -2.20914,0 -4,-1.79086 -4,-4 0,-2.20914 1.79086,-4 4,-4 2.20914,0 4,1.79086 4,4 z" />
    </g>
    <g
       id="g5998"
       transform="matrix(1.8567548,0,0,1.8567548,-281.85331,263.61515)">
      <ellipse
         id="ellipse6000"
         ry="4"
         rx="4"
         cy="250"
         cx="464"
         style="fill:#ffffff"
         sodipodi:cx="464"
         sodipodi:cy="250"
         sodipodi:rx="4"
         sodipodi:ry="4"
         d="m 468,250 c 0,2.20914 -1.79086,4 -4,4 -2.20914,0 -4,-1.79086 -4,-4 0,-2.20914 1.79086,-4 4,-4 2.20914,0 4,1.79086 4,4 z" />
      <ellipse
         id="ellipse6002"
         ry="4"
         rx="4"
         cy="250"
         cx="464"
         style="fill:none;stroke:#000000;stroke-width:2"
         sodipodi:cx="464"
         sodipodi:cy="250"
         sodipodi:rx="4"
         sodipodi:ry="4"
         d="m 468,250 c 0,2.20914 -1.79086,4 -4,4 -2.20914,0 -4,-1.79086 -4,-4 0,-2.20914 1.79086,-4 4,-4 2.20914,0 4,1.79086 4,4 z" />
      <ellipse
         id="ellipse6004"
         ry="4"
         rx="4"
         cy="250"
         cx="464"
         style="fill:none;stroke:#000000;stroke-width:2"
         sodipodi:cx="464"
         sodipodi:cy="250"
         sodipodi:rx="4"
         sodipodi:ry="4"
         d="m 468,250 c 0,2.20914 -1.79086,4 -4,4 -2.20914,0 -4,-1.79086 -4,-4 0,-2.20914 1.79086,-4 4,-4 2.20914,0 4,1.79086 4,4 z" />
    </g>
    <text
       id="text6006"
       y="822.37683"
       x="159.68092"
       style="font-size:40px;font-style:normal;font-weight:normal;fill:#000000;fill-opacity:1;stroke:none;font-family:Bitstream Vera Sans"
       xml:space="preserve"><tspan
         y="822.37683"
         x="159.68092"
         id="tspan6008"
         sodipodi:role="line"><tspan
           id="tspan6010"
           style="font-size:40px">V</tspan><tspan
           id="tspan6012"
           style="font-size:20px">IN</tspan></tspan></text>
    <text
       id="text6014"
       y="822.37683"
       x="519.68091"
       style="font-size:40px;font-style:normal;font-weight:normal;fill:#000000;fill-opacity:1;stroke:none;font-family:Bitstream Vera Sans"
       xml:space="preserve"><tspan
         y="822.37683"
         x="519.68091"
         id="tspan6016"
         sodipodi:role="line">V<tspan
   id="tspan6018"
   style="font-size:20px">OUT</tspan></tspan></text>
    <path
       inkscape:connector-curvature="0"
       id="path6020"
       d="m 174.68092,842.37685 0,54.00003"
       style="fill:none;stroke:#000000;stroke-width:1.48800015;stroke-linecap:butt;stroke-linejoin:miter;stroke-miterlimit:4;stroke-opacity:1;stroke-dasharray:none" />
    <path
       inkscape:connector-curvature="0"
       style="fill:none;stroke:#000000;stroke-width:1.48799992;stroke-linecap:butt;stroke-linejoin:miter;stroke-miterlimit:4;stroke-opacity:1;stroke-dasharray:none"
       d="m 174.68092,740.37684 0,47.00002"
       id="path6022" />
    <path
       inkscape:connector-curvature="0"
       style="fill:none;stroke:#000000;stroke-width:1.48800015;stroke-linecap:butt;stroke-linejoin:miter;stroke-miterlimit:4;stroke-opacity:1;stroke-dasharray:none"
       d="m 579.68092,842.37685 0,54.00003"
       id="path6024" />
    <path
       inkscape:connector-curvature="0"
       id="path6026"
       d="m 579.68092,740.37684 0,47.00002"
       style="fill:none;stroke:#000000;stroke-width:1.48799992;stroke-linecap:butt;stroke-linejoin:miter;stroke-miterlimit:4;stroke-opacity:1;stroke-dasharray:none" />
    <path
       id="path6028"
       d="m 150,818.36218 -140,0 0,-91.41142"
       style="fill:none;stroke:#000000;stroke-width:2.5;stroke-linecap:butt;stroke-linejoin:miter;stroke-miterlimit:4;stroke-opacity:1;stroke-dasharray:none;marker-end:url(#Arrow2Mend)"
       inkscape:connector-curvature="0" />
    <path
       id="path6030"
       d="m 10,818.36218 0,91.97862"
       style="fill:none;stroke:#000000;stroke-width:2.5;stroke-linecap:butt;stroke-linejoin:miter;stroke-miterlimit:4;stroke-opacity:1;stroke-dasharray:none;marker-end:url(#Arrow2Mend)"
       inkscape:connector-curvature="0" />
    <path
       style="fill:none;stroke:#000000;stroke-width:2.5;stroke-linecap:butt;stroke-linejoin:miter;stroke-miterlimit:4;stroke-opacity:1;stroke-dasharray:none;marker-end:url(#Arrow2Mend)"
       d="m 740,818.36218 -140,0 0,-91.41142"
       id="path6034"
       inkscape:connector-curvature="0" />
    <path
       style="fill:none;stroke:#000000;stroke-width:2.5;stroke-linecap:butt;stroke-linejoin:miter;stroke-miterlimit:4;stroke-opacity:1;stroke-dasharray:none;marker-end:url(#Arrow2Mend)"
       d="m 600,818.36218 0,91.97862"
       id="path6036"
       inkscape:connector-curvature="0" />
    <g
       id="g7401"
       transform="translate(-49.001694,3)">
      <path
         inkscape:connector-curvature="0"
         sodipodi:nodetypes="cccc"
         id="path2522"
         d="m 454.14766,819.26376 -18.11853,-36.23705 36.23706,0 -18.11853,36.23705 z"
         style="fill:none;stroke:#000000;stroke-width:3.5433073;stroke-linecap:square;stroke-miterlimit:4;stroke-opacity:1;stroke-dashoffset:0;display:inline" />
      <path
         inkscape:connector-curvature="0"
         sodipodi:nodetypes="cc"
         id="path2524"
         d="m 472.26619,819.26379 -36.23706,0"
         style="fill:none;stroke:#000000;stroke-width:3.54330897;stroke-linecap:square;stroke-linejoin:miter;stroke-miterlimit:4;stroke-opacity:1;display:inline" />
    </g>
    <path
       style="fill:none;stroke:#000000;stroke-width:3.54330707;stroke-linecap:square;stroke-linejoin:miter;stroke-miterlimit:4;stroke-opacity:1;stroke-dasharray:none"
       d="m 433.49243,866.49354 -56.69292,0"
       id="path1315"
       sodipodi:nodetypes="cc"
       inkscape:connector-curvature="0" />
    <path
       style="fill:none;stroke:#000000;stroke-width:7.08661461;stroke-linecap:square;stroke-linejoin:miter;stroke-miterlimit:4;stroke-opacity:1;stroke-dasharray:none"
       d="m 419.31919,875.35179 -28.34646,0"
       id="path1317"
       sodipodi:nodetypes="cc"
       inkscape:connector-curvature="0" />
    <path
       style="fill:none;stroke:#000000;stroke-width:3.54330587;stroke-linecap:butt;stroke-linejoin:miter;stroke-miterlimit:4;stroke-opacity:1;stroke-dasharray:none"
       d="m 405.14597,854.09196 0,14.17324"
       id="path2220"
       sodipodi:nodetypes="cc"
       inkscape:connector-curvature="0" />
    <path
       style="fill:none;stroke:#000000;stroke-width:3.54330802;stroke-linecap:square;stroke-linejoin:miter;stroke-miterlimit:4;stroke-opacity:1;stroke-dasharray:none"
       d="m 405.14597,877.55182 0,31.77324"
       id="path2222"
       sodipodi:nodetypes="cc"
       inkscape:connector-curvature="0" />
    <g
       id="g3965"
       transform="matrix(0,2,-2,0,599.28055,404.36387)">
      <path
         id="path3967"
         d="m 224.86405,82.89405 0,7.086614"
         style="fill:none;stroke:#000000;stroke-width:1.00000095px;stroke-linecap:butt;stroke-linejoin:miter;stroke-opacity:1"
         sodipodi:nodetypes="cc"
         inkscape:connector-curvature="0" />
      <path
         id="path3969"
         d="m 228.40735,86.437357 -7.08661,0"
         style="fill:none;stroke:#000000;stroke-width:1.00000095px;stroke-linecap:butt;stroke-linejoin:miter;stroke-opacity:1"
         sodipodi:nodetypes="cc"
         inkscape:connector-curvature="0" />
    </g>
  </g>
</svg>
