<?xml version="1.0" encoding="UTF-8" standalone="no"?>
<!-- Created with Inkscape (http://www.inkscape.org/) -->

<svg
   xmlns:dc="http://purl.org/dc/elements/1.1/"
   xmlns:cc="http://creativecommons.org/ns#"
   xmlns:rdf="http://www.w3.org/1999/02/22-rdf-syntax-ns#"
   xmlns:svg="http://www.w3.org/2000/svg"
   xmlns="http://www.w3.org/2000/svg"
   xmlns:sodipodi="http://sodipodi.sourceforge.net/DTD/sodipodi-0.dtd"
   xmlns:inkscape="http://www.inkscape.org/namespaces/inkscape"
   version="1.1"
   id="svg2"
   xml:space="preserve"
   width="720.58667"
   height="152.10933"
   viewBox="0 0 720.58667 152.10933"
   sodipodi:docname="sim.svg"
   inkscape:version="0.92.3 (2405546, 2018-03-11)"><metadata
     id="metadata8"><rdf:RDF><cc:Work
         rdf:about=""><dc:format>image/svg+xml</dc:format><dc:type
           rdf:resource="http://purl.org/dc/dcmitype/StillImage" /><dc:title></dc:title></cc:Work></rdf:RDF></metadata><defs
     id="defs6"><clipPath
       clipPathUnits="userSpaceOnUse"
       id="clipPath68"><path
         d="M 0,0 H 96.8974 V 77.40543 H 0 Z"
         id="path66"
         inkscape:connector-curvature="0" /></clipPath></defs><sodipodi:namedview
     pagecolor="#ffffff"
     bordercolor="#666666"
     borderopacity="1"
     objecttolerance="10"
     gridtolerance="10"
     guidetolerance="10"
     inkscape:pageopacity="0"
     inkscape:pageshadow="2"
     inkscape:window-width="725"
     inkscape:window-height="480"
     id="namedview4"
     showgrid="false"
     inkscape:zoom="1.4405384"
     inkscape:cx="318.2738"
     inkscape:cy="62.831985"
     inkscape:window-x="1981"
     inkscape:window-y="127"
     inkscape:window-maximized="0"
     inkscape:current-layer="g10" /><g
     id="g10"
     inkscape:groupmode="layer"
     inkscape:label="sim"
     transform="matrix(1.3333333,0,0,-1.3333333,0,152.10933)"><g
       id="g12"
       transform="translate(10.461,10.461)"><g
         id="g14"><g
           id="g16"><g
             id="g18" /><g
             id="g20" /><g
             id="g22"><g
               id="g24" /></g><g
             id="g26" /><g
             id="g28" /><g
             id="g30" /><g
             id="g32" /><g
             id="g34"
             transform="translate(-0.498,-0.498)"><g
               id="g36"
               transform="translate(0.498,0.498)"><g
                 id="g38"><g
                   id="g40"><g
                     id="g42"><g
                       id="g44" /><g
                       id="g46" /><path
                       d="M 0,38.70271 H 94.0082"
                       style="fill:none;stroke:#000000;stroke-width:0.99628001;stroke-linecap:butt;stroke-linejoin:miter;stroke-miterlimit:10;stroke-dasharray:none;stroke-opacity:1"
                       id="path48"
                       inkscape:connector-curvature="0" /><g
                       id="g50"
                       transform="translate(94.0082,38.70271)"><g
                         id="g52"><path
                           d="M 2.8892,0 -1.73352,2.31136 0,0 -1.73352,-2.31136"
                           style="fill:#000000;fill-opacity:1;fill-rule:nonzero;stroke:none"
                           id="path54"
                           inkscape:connector-curvature="0" /></g></g><path
                       d="M 0,0 V 74.51622"
                       style="fill:none;stroke:#000000;stroke-width:0.99628001;stroke-linecap:butt;stroke-linejoin:miter;stroke-miterlimit:10;stroke-dasharray:none;stroke-opacity:1"
                       id="path56"
                       inkscape:connector-curvature="0" /><g
                       id="g58"
                       transform="rotate(90,-37.25811,37.25811)"><g
                         id="g60"><path
                           d="M 2.8892,0 -1.73352,2.31136 0,0 -1.73352,-2.31136"
                           style="fill:#000000;fill-opacity:1;fill-rule:nonzero;stroke:none"
                           id="path62"
                           inkscape:connector-curvature="0" /></g></g><g
                       id="g64"
                       clip-path="url(#clipPath68)"><g
                         id="g70"><path
                           d="m 0,38.70271 0.12433,0.57149 0.12434,0.57018 0.12435,0.56884 0.12434,0.56752 0.12434,0.5662 0.12435,0.56486 0.12434,0.56355 0.22356,1.0098 0.22355,0.99385 0.22356,0.97789 0.22354,0.96191 0.22357,0.94596 0.22356,0.93001 0.22356,0.91401 0.00241,0.0097 0.35403,1.40728 0.35402,1.3253 0.35402,1.24334 0.35403,1.1614 0.35402,1.07943 0.35401,0.99749 0.35403,0.91554 0.00241,0.0058 0.35403,0.80491 0.35403,0.69134 0.35402,0.57785 0.35402,0.4643 0.35402,0.35075 0.35403,0.23723 0.35402,0.1237 0.00241,4e-4 0.35403,-0.006 0.35402,-0.12172 0.35402,-0.23743 0.35402,-0.3531 0.35402,-0.46883 0.35402,-0.58449 0.35403,-0.70021 0.00242,-0.0051 0.35401,-0.8154 0.35404,-0.90329 0.35402,-0.99114 0.35402,-1.07904 0.35402,-1.16688 0.35403,-1.25479 0.354,-1.34264 0.0024,-0.0093 0.28032,-1.10795 0.2803,-1.13515 0.28031,-1.16231 0.28032,-1.1895 0.2803,-1.21667 0.2803,-1.24387 0.28032,-1.27103 0.51841,-2.36184 0.109,-0.49959 0.0024,-0.01112 0.0024,-0.0111 0.0024,-0.01111 0.06369,-0.2922 0.06366,-0.29215 0.06369,-0.29213 0.06367,-0.29209 0.06366,-0.29207 0.06369,-0.29203 0.06366,-0.292 0.22704,-1.04418 0.227,-1.03354 0.22701,-1.02287 0.22703,-1.01222 0.22701,-1.00159 0.22704,-0.99094 0.227,-0.98028 0.32945,-1.38121 0.35402,-1.4507 0.35402,-1.37341 0.35402,-1.29616 0.35403,-1.21887 0.35402,-1.14162 0.35402,-1.06433 0.35402,-0.98706 0.0024,-0.0063 0.29968,-0.75017 0.2997,-0.67131 0.29968,-0.59241 0.29968,-0.51356 0.2997,-0.43467 0.29968,-0.3558 0.2997,-0.27691 0.38274,-0.22506 0.42393,-0.08717 h 0.0024 0.0024 0.0024 l 0.0048,3e-5 0.0073,8e-5 0.0073,1.2e-4 0.0073,2e-4 0.0073,2.2e-4 0.0073,2.8e-4 0.0073,3.3e-4 0.0073,3.9e-4 0.0073,4.4e-4 0.0886,0.0093 0.08859,0.01679 0.08859,0.02424 0.08858,0.03169 0.08861,0.03913 0.08859,0.04658 0.08857,0.05402 0.18792,0.13985 0.18791,0.17212 0.18791,0.20437 0.18791,0.23665 0.18792,0.26891 0.18791,0.30117 0.18791,0.33345 0.05089,0.09533 0.27789,0.56602 0.27788,0.62532 0.27789,0.68457 0.2779,0.74388 0.27786,0.80316 0.27789,0.86245 0.27789,0.92172 0.07615,0.25972 0.07612,0.26323 0.07613,0.26674 0.07614,0.27018 0.07614,0.27372 0.07613,0.27722 0.07614,0.2807 0.0024,0.009 0.30766,1.17942 0.30765,1.21488 0.30763,1.25039 0.30766,1.28585 0.30766,1.32135 0.30764,1.35686 0.30765,1.39232 0.32704,1.48375 0.08131,0.37134 0.08133,0.37167 0.08132,0.37204 0.08133,0.37238 0.08133,0.37275 0.08131,0.37311 0.08133,0.37344 0.14881,0.68437 0.1488,0.68203 0.14882,0.6797 0.1488,0.67737 0.1488,0.67505 0.14882,0.67273 0.14879,0.67039 0.1239,0.55423 0.12389,0.54979 0.12388,0.54535 0.1239,0.54092 0.12388,0.53647 0.1239,0.53205 0.1239,0.5276 0.0024,0.01024 0.35403,1.49002 0.35402,1.41765 0.35402,1.34529 0.35401,1.2729 0.35403,1.20053 0.35402,1.12816 0.35402,1.0558 0.0024,0.0068 0.35401,0.95302 0.35402,0.84376 0.35404,0.73451 0.35402,0.62528 0.35402,0.51604 0.354,0.40676 0.35403,0.29754 0.0024,0.0016 0.35402,0.16906 0.35402,0.0512 0.35402,-0.06657 0.35402,-0.1844 0.35403,-0.3022 0.35402,-0.42002 0.35402,-0.53782 0.0024,-0.004 0.35402,-0.65876 0.35401,-0.75457 0.35404,-0.85043 0.35402,-0.94628 0.354,-1.04213 0.35402,-1.13795 0.35404,-1.23381 0.0024,-0.0086 0.32288,-1.19406 0.32287,-1.23692 0.32288,-1.2798 0.32288,-1.32265 0.32287,-1.36549 0.32288,-1.40837 0.32287,-1.45124 0.22045,-0.99302 0.11662,-0.52939 0.11661,-0.53049 0.11664,-0.53158 0.1166,-0.53267 0.11664,-0.53374 0.11661,-0.53484 0.11664,-0.53591 0.13911,-0.63963 0.13912,-0.63778 0.13911,-0.63591 0.13912,-0.63403 0.13911,-0.63216 0.13911,-0.63031 0.13913,-0.62841 0.09829,-0.44129 0.09828,-0.43878 0.09828,-0.4363 0.09828,-0.43382 0.09828,-0.43131 0.09829,-0.42884 0.09828,-0.42635 0.0024,-0.01045 0.30731,-1.32277 0.30731,-1.27454 0.30728,-1.2263 0.30732,-1.17807 0.30731,-1.12984 0.30729,-1.08162 0.3073,-1.03337 0.04672,-0.14982 0.04671,-0.14832 0.04674,-0.14677 0.04671,-0.14525 0.04672,-0.14372 0.04672,-0.14219 0.04671,-0.14067 0.0024,-0.0072 0.14708,-0.43303 0.14706,-0.41609 0.14707,-0.39913 0.14707,-0.38222 0.14709,-0.36523 0.14708,-0.34831 0.14706,-0.33138 0.02182,-0.04745 0.0024,-0.0053 0.0024,-0.0053 0.0024,-0.0052 0.20279,-0.42241 0.20279,-0.38557 0.20279,-0.3488 0.20281,-0.31198 0.20278,-0.2752 0.20279,-0.23839 0.20281,-0.20156 0.0024,-0.0022 0.13357,-0.11079 0.1336,-0.09389 0.13357,-0.07701 0.13358,-0.06009 0.13357,-0.04323 0.13359,-0.02631 0.13358,-0.0094 0.0024,-10e-6 h 0.0024 0.0024 0.0024 l 0.0048,3e-5 0.0073,8e-5 0.0073,1.2e-4 0.0073,2e-4 0.0073,2.2e-4 0.0073,2.8e-4 0.0073,3.3e-4 0.0073,3.9e-4 0.0073,4.4e-4 0.08859,0.0093 0.08859,0.01679 0.0886,0.02424 0.08857,0.03169 0.08861,0.03913 0.08859,0.04658 0.08858,0.05402 0.12149,0.08626 0.12146,0.09993 0.12146,0.11357 0.12146,0.12726 0.12149,0.14091 0.12146,0.15459 0.12146,0.16825 0.0024,0.0035 0.25055,0.39274 0.25055,0.44499 0.25055,0.49724 0.25055,0.54952 0.25055,0.60174 0.25055,0.65403 0.25055,0.70626 0.10347,0.30409 0.10347,0.31148 0.10348,0.31887 0.10348,0.32628 0.10346,0.33366 0.10347,0.34106 0.10349,0.34847 0.0024,0.0082 0.33705,1.19737 0.33708,1.24819 0.33705,1.29898 0.33709,1.34979 0.33705,1.40062 0.33706,1.45141 0.33707,1.50223 0.12111,0.54059 0.15056,0.6778 0.15053,0.68023 0.15054,0.68265 0.15053,0.68506 0.15054,0.6875 0.15053,0.68992 0.15054,0.69234 0.07199,0.33051 0.07196,0.33025 0.07201,0.33001 0.07196,0.32979 0.07198,0.32954 0.07199,0.32929 0.07197,0.32905 0.13152,0.60059 0.1315,0.59737 0.1315,0.59416 0.1315,0.59092 0.1315,0.58773 0.13151,0.58452 0.13151,0.58128 0.0024,0.01065 0.35401,1.55588 0.35404,1.49391 0.35401,1.43194 0.35402,1.36998 0.35402,1.308 0.35403,1.24605 0.35402,1.18407 0.0024,0.0077 0.35404,1.0903 0.35402,0.9866 0.35401,0.88286 0.35404,0.77916 0.35402,0.67543 0.354,0.57172 0.35402,0.46801 0.0024,0.0027 0.35402,0.34219 0.35402,0.22359 0.35403,0.10502 0.35402,-0.01358 0.35402,-0.13217 0.35403,-0.25075 0.35402,-0.36935 0.0024,-0.0029 0.35403,-0.49459 0.35402,-0.59734 0.35402,-0.70004 0.35401,-0.80281 0.35402,-0.90551 0.35402,-1.00825 0.35402,-1.11099 0.0024,-0.0078 0.35126,-1.19319 0.35125,-1.25271 0.35125,-1.31223 0.35125,-1.37176 0.35126,-1.43126 0.35126,-1.49079 0.35125,-1.55032 0.02179,-0.09622 0.17893,-0.79686 0.17891,-0.80128 0.17891,-0.8057 0.17891,-0.81009 0.1789,-0.81453 0.17891,-0.81889 0.17894,-0.82334 0.04879,-0.22396 0.04879,-0.22393 0.0488,-0.22386 0.0488,-0.22383 0.0488,-0.2238 0.04878,-0.22374 0.04879,-0.22368 0.12632,-0.57927 0.12631,-0.57702 0.12631,-0.57482 0.12632,-0.57258 0.12631,-0.57035 0.12631,-0.56813 0.12632,-0.5659 0.0024,-0.0108 0.32773,-1.4634 0.32771,-1.41665 0.32773,-1.36993 0.32771,-1.32317 0.32773,-1.27645 0.32771,-1.22969 0.32773,-1.18295 0.18653,-0.63509 0.1969,-0.64819 0.19691,-0.6194 0.19691,-0.59061 0.1969,-0.5618 0.19692,-0.533 0.19691,-0.5042 0.19692,-0.47542 0.02663,-0.06159 0.02665,-0.06101 0.02665,-0.06043 0.02665,-0.05981 0.02664,-0.05925 0.02666,-0.05864 0.02664,-0.05807 0.0024,-0.0053 0.0024,-0.0053 0.0024,-0.0052 0.12943,-0.27311 0.12942,-0.25841 0.12943,-0.2437 0.12942,-0.22902 0.12945,-0.21431 0.12942,-0.1996 0.12942,-0.18491 0.0024,-0.0033 0.19138,-0.24505 0.19135,-0.21071 0.19138,-0.17638 0.19138,-0.14201 0.19136,-0.10769 0.19139,-0.07331 0.19136,-0.03897 0.11143,-0.0063 h 0.0024 0.0024 0.0024 l 0.0048,3e-5 0.0073,8e-5 0.0073,1.2e-4 0.0073,2e-4 0.0073,2.2e-4 0.0073,2.8e-4 0.0073,3.3e-4 0.0073,3.9e-4 0.0073,4.4e-4 0.08857,0.0093 0.08861,0.01679 0.08859,0.02424 0.08858,0.03169 0.08861,0.03913 0.08859,0.04658 0.08858,0.05402 0.04813,0.03244 0.04809,0.03459 0.04809,0.03678 0.0481,0.03892 0.0481,0.04111 0.04812,0.04327 0.0481,0.04544 0.0024,0.0023 0.21665,0.23343 0.21662,0.275 0.21665,0.31654 0.21663,0.3581 0.21662,0.3997 0.21665,0.44123 0.21663,0.48282 0.13739,0.32579 0.13739,0.34034 0.13739,0.35487 0.13738,0.36941 0.1374,0.38394 0.13737,0.39849 0.13738,0.41302 0.0024,0.0074 0.34052,1.09526 0.34053,1.15686 0.34053,1.21851 0.34051,1.28012 0.34053,1.34175 0.34052,1.40335 0.34053,1.46496 0.09689,0.41944 0.20383,0.89554 0.20383,0.90265 0.20384,0.90972 0.20384,0.91683 0.20383,0.92392 0.20382,0.931 0.20383,0.93809 0.05882,0.27 0.05884,0.26994 0.05884,0.26991 0.05882,0.26987 0.05884,0.26985 0.05882,0.2698 0.05884,0.26978 0.64195,2.92273 0.30937,1.39937 0.30938,1.36314 0.30937,1.32692 0.3094,1.29069 0.30937,1.25446 0.30938,1.21824 0.30936,1.18204 0.31493,1.13417 0.35402,1.21523 0.35404,1.11821 0.35401,1.02121 0.35401,0.92419 0.35403,0.82718 0.35402,0.73018 0.35402,0.63315 0.0024,0.0039 0.19623,0.29589 0.0017,0.0024"
                           style="fill:none;stroke:#ff0000;stroke-width:0.99628001;stroke-linecap:butt;stroke-linejoin:miter;stroke-miterlimit:10;stroke-dasharray:none;stroke-opacity:1"
                           id="path72"
                           inkscape:connector-curvature="0" /></g></g></g><g
                     id="g74"><g
                       id="g76"
                       transform="translate(84.053,43.392)"><g
                         id="g78"><g
                           id="g80"
                           transform="translate(-94.514,-53.853)"><text
                             transform="matrix(1,0,0,-1,94.514,53.853)"
                             style="font-variant:normal;font-weight:normal;font-size:17.93280029px;font-family:Arial;-inkscape-font-specification:Arial;writing-mode:lr-tb;fill:#000000;fill-opacity:1;fill-rule:nonzero;stroke:none"
                             id="text84"><tspan
                               x="0"
                               y="0"
                               id="tspan82">t</tspan></text>
<g
                             id="g86"
                             transform="translate(94.514,53.853)" /></g></g><g
                         id="g88"
                         transform="translate(-84.053,-43.392)" /></g></g><g
                     id="g90"><g
                       id="g92"
                       transform="translate(4.682,64.269)"><g
                         id="g94"><g
                           id="g96"
                           transform="translate(-15.143,-74.73)"><text
                             transform="matrix(1,0,0,-1,15.143,74.73)"
                             style="font-variant:normal;font-weight:normal;font-size:17.93280029px;font-family:Arial;-inkscape-font-specification:Arial;writing-mode:lr-tb;fill:#000000;fill-opacity:1;fill-rule:nonzero;stroke:none"
                             id="text100"><tspan
                               x="0"
                               y="0"
                               id="tspan98">v</tspan></text>
<text
                             transform="matrix(1,0,0,-1,23.362,72.04)"
                             style="font-variant:normal;font-weight:normal;font-size:11.9552002px;font-family:Arial;-inkscape-font-specification:Arial;writing-mode:lr-tb;fill:#000000;fill-opacity:1;fill-rule:nonzero;stroke:none"
                             id="text104"><tspan
                               x="0 2.689877"
                               y="0"
                               sodipodi:role="line"
                               id="tspan102">in</tspan></text>
<g
                             id="g106"
                             transform="translate(15.143,74.73)" /></g></g><g
                         id="g108"
                         transform="translate(-4.682,-64.269)" /></g></g></g></g><g
                 id="g110"
                 transform="translate(-0.498,-0.498)" /></g><g
               id="g112"
               transform="translate(0.498,0.498)" /></g><g
             id="g114" /><g
             id="g116" /></g></g><g
         id="g118"
         transform="translate(169.005,1.587)"><g
           id="g120"><g
             id="g122"><path
               d="m -14.17339,56.69362 h 0.49814 m -0.49814,0 h 45.63842 m 7.93695,0 h 45.63844 m -0.49814,0 h 0.49814 0.49814 m -0.49814,0 h 42.5202 m 0,0 h 42.52024 m -0.49814,0 h 0.49814 M 85.04042,0 v 0.49814 m 0,-0.49814 -2e-5,20.40985 m 0,15.8739 2e-5,20.40987 m 0,-0.49814 v 0.49814 M 141.73404,0 v 0.49814 m 0,-0.49814 -2e-5,12.47261 m 0,31.74839 2e-5,12.47262 m 0,-0.49814 v 0.49814 M -17.34827,50.23059 c -6.64735,-18.30884 -6.64735,-25.45874 0,-43.76762 m 190.60399,43.76762 c 6.64737,-18.30884 6.64737,-25.45874 0,-43.76762 M -14.17339,0 h 184.25425"
               style="fill:none;stroke:#000000;stroke-width:0.99628001;stroke-linecap:butt;stroke-linejoin:miter;stroke-miterlimit:10;stroke-dasharray:none;stroke-opacity:1"
               id="path124"
               inkscape:connector-curvature="0" /><g
               id="g126" /><g
               id="g128" /><g
               id="g130"><path
                 d="M 31.46503,68.59933 V 44.78789 m 7.93695,23.81144 V 44.78789"
                 style="fill:none;stroke:#000000;stroke-width:1.99255002;stroke-linecap:butt;stroke-linejoin:miter;stroke-miterlimit:10;stroke-dasharray:none;stroke-opacity:1"
                 id="path132"
                 inkscape:connector-curvature="0" /><g
                 id="g134"
                 transform="translate(35.433,56.693)"><g
                   id="g136" /><g
                   id="g138"
                   transform="translate(-35.433,-56.693)" /></g></g><g
               id="g140" /><g
               id="g142" /><g
               id="g144" /><g
               id="g146" /><g
               id="g148"><g
                 id="g150"
                 transform="translate(29.015,75.435)"><g
                   id="g152"><g
                     id="g154"
                     transform="translate(-208.481,-87.483)"><text
                       transform="matrix(1,0,0,-1,208.481,87.483)"
                       style="font-variant:normal;font-weight:normal;font-size:17.93280029px;font-family:Arial;-inkscape-font-specification:Arial;writing-mode:lr-tb;fill:#000000;fill-opacity:1;fill-rule:nonzero;stroke:none"
                       id="text158"><tspan
                         x="0"
                         y="0"
                         id="tspan156">C</tspan></text>
<g
                       id="g160"
                       transform="translate(208.481,87.483)" /></g></g><g
                   id="g162"
                   transform="translate(-29.015,-75.435)" /></g></g><g
               id="g164" /><g
               id="g166" /><g
               id="g168"><g
                 id="g170"
                 transform="translate(127.559,56.693)"><g
                   id="g172" /><g
                   id="g174"
                   transform="translate(-127.559,-56.693)" /></g></g><g
               id="g176" /><g
               id="g178" /><g
               id="g180" /><g
               id="g182" /><g
               id="g184"><g
                 id="g186"><path
                   d="M 85.0404,36.28375 75.11906,20.40985 H 94.96175 L 85.0404,36.28375"
                   style="fill:none;stroke:#000000;stroke-width:1.99255002;stroke-linecap:butt;stroke-linejoin:miter;stroke-miterlimit:10;stroke-dasharray:none;stroke-opacity:1"
                   id="path188"
                   inkscape:connector-curvature="0" /></g><path
                 d="M 94.96175,36.28375 H 75.11906"
                 style="fill:none;stroke:#000000;stroke-width:1.99255002;stroke-linecap:butt;stroke-linejoin:miter;stroke-miterlimit:10;stroke-dasharray:none;stroke-opacity:1"
                 id="path190"
                 inkscape:connector-curvature="0" /><g
                 id="g192"
                 transform="rotate(90,28.3465,56.6925)"><g
                   id="g194" /><g
                   id="g196"
                   transform="translate(-85.039,-28.346)" /></g></g><g
               id="g198" /><g
               id="g200" /><g
               id="g202"><g
                 id="g204"
                 transform="translate(85.039)"><g
                   id="g206" /><g
                   id="g208"
                   transform="translate(-85.039)" /></g><g
                 id="g210"><g
                   id="g212"><path
                     d="m 86.62756,0 c 0,0.87656 -0.71058,1.58714 -1.58714,1.58714 -0.87656,0 -1.58714,-0.71058 -1.58714,-1.58714 0,-0.87656 0.71058,-1.58714 1.58714,-1.58714 0.87656,0 1.58714,0.71058 1.58714,1.58714 z"
                     style="fill:#000000;fill-opacity:1;fill-rule:nonzero;stroke:#000000;stroke-width:0.99628001;stroke-linecap:butt;stroke-linejoin:miter;stroke-miterlimit:10;stroke-dasharray:none;stroke-opacity:1"
                     id="path214"
                     inkscape:connector-curvature="0" /></g></g></g><g
               id="g216"><g
                 id="g218"
                 transform="translate(85.039,56.693)"><g
                   id="g220" /><g
                   id="g222"
                   transform="translate(-85.039,-56.693)" /></g><g
                 id="g224"><g
                   id="g226"><path
                     d="m 86.62756,56.69362 c 0,0.87656 -0.71058,1.58714 -1.58714,1.58714 -0.87656,0 -1.58714,-0.71058 -1.58714,-1.58714 0,-0.87657 0.71058,-1.58716 1.58714,-1.58716 0.87656,0 1.58714,0.71059 1.58714,1.58716 z"
                     style="fill:#000000;fill-opacity:1;fill-rule:nonzero;stroke:#000000;stroke-width:0.99628001;stroke-linecap:butt;stroke-linejoin:miter;stroke-miterlimit:10;stroke-dasharray:none;stroke-opacity:1"
                     id="path228"
                     inkscape:connector-curvature="0" /></g></g></g><g
               id="g230" /><g
               id="g232"><g
                 id="g234"
                 transform="translate(54.739,25.524)"><g
                   id="g236"><g
                     id="g238"
                     transform="translate(-234.205,-37.572)"><text
                       transform="matrix(1,0,0,-1,234.205,37.572)"
                       style="font-variant:normal;font-weight:normal;font-size:17.93280029px;font-family:Arial;-inkscape-font-specification:Arial;writing-mode:lr-tb;fill:#000000;fill-opacity:1;fill-rule:nonzero;stroke:none"
                       id="text242"><tspan
                         x="0"
                         y="0"
                         id="tspan240">D</tspan></text>
<g
                       id="g244"
                       transform="translate(234.205,37.572)" /></g></g><g
                   id="g246"
                   transform="translate(-54.739,-25.524)" /></g></g><g
               id="g248" /><g
               id="g250" /><g
               id="g252"><path
                 d="M 147.68687,44.221 V 12.47261 h -11.9057 V 44.221 Z"
                 style="fill:none;stroke:#000000;stroke-width:1.99255002;stroke-linecap:butt;stroke-linejoin:miter;stroke-miterlimit:10;stroke-dasharray:none;stroke-opacity:1"
                 id="path254"
                 inkscape:connector-curvature="0" /><g
                 id="g256"
                 transform="rotate(90,56.693,85.039)"><g
                   id="g258" /><g
                   id="g260"
                   transform="translate(-141.732,-28.346)" /></g></g><g
               id="g262" /><g
               id="g264" /><g
               id="g266"><g
                 id="g268"
                 transform="translate(141.732)"><g
                   id="g270" /><g
                   id="g272"
                   transform="translate(-141.732)" /></g><g
                 id="g274"><g
                   id="g276"><path
                     d="m 143.32118,0 c 0,0.87656 -0.71058,1.58714 -1.58714,1.58714 -0.87656,0 -1.58714,-0.71058 -1.58714,-1.58714 0,-0.87656 0.71058,-1.58714 1.58714,-1.58714 0.87656,0 1.58714,0.71058 1.58714,1.58714 z"
                     style="fill:#000000;fill-opacity:1;fill-rule:nonzero;stroke:#000000;stroke-width:0.99628001;stroke-linecap:butt;stroke-linejoin:miter;stroke-miterlimit:10;stroke-dasharray:none;stroke-opacity:1"
                     id="path278"
                     inkscape:connector-curvature="0" /></g></g></g><g
               id="g280"><g
                 id="g282"
                 transform="translate(141.732,56.693)"><g
                   id="g284" /><g
                   id="g286"
                   transform="translate(-141.732,-56.693)" /></g><g
                 id="g288"><g
                   id="g290"><path
                     d="m 143.32118,56.69362 c 0,0.87656 -0.71058,1.58714 -1.58714,1.58714 -0.87656,0 -1.58714,-0.71058 -1.58714,-1.58714 0,-0.87657 0.71058,-1.58716 1.58714,-1.58716 0.87656,0 1.58714,0.71059 1.58714,1.58716 z"
                     style="fill:#000000;fill-opacity:1;fill-rule:nonzero;stroke:#000000;stroke-width:0.99628001;stroke-linecap:butt;stroke-linejoin:miter;stroke-miterlimit:10;stroke-dasharray:none;stroke-opacity:1"
                     id="path292"
                     inkscape:connector-curvature="0" /></g></g></g><g
               id="g294" /><g
               id="g296"><g
                 id="g298"
                 transform="translate(117.01,25.524)"><g
                   id="g300"><g
                     id="g302"
                     transform="translate(-296.476,-37.572)"><text
                       transform="matrix(1,0,0,-1,296.476,37.572)"
                       style="font-variant:normal;font-weight:normal;font-size:17.93280029px;font-family:Arial;-inkscape-font-specification:Arial;writing-mode:lr-tb;fill:#000000;fill-opacity:1;fill-rule:nonzero;stroke:none"
                       id="text306"><tspan
                         x="0"
                         y="0"
                         id="tspan304">R</tspan></text>
<g
                       id="g308"
                       transform="translate(296.476,37.572)" /></g></g><g
                   id="g310"
                   transform="translate(-117.01,-25.524)" /></g></g><g
               id="g312" /><g
               id="g314" /><g
               id="g316"><g
                 id="g318"
                 transform="rotate(-90,7.0865,21.2595)"><g
                   id="g320" /><g
                   id="g322"
                   transform="translate(14.173,-28.346)" /></g></g><g
               id="g324" /><g
               id="g326" /><g
               id="g328"><g
                 id="g330"
                 transform="translate(-14.173,56.693)"><g
                   id="g332" /><g
                   id="g334"
                   transform="translate(14.173,-56.693)" /></g><g
                 id="g336"><g
                   id="g338"><path
                     d="m -12.58624,56.69362 c 0,0.87656 -0.71059,1.58714 -1.58715,1.58714 -0.87657,0 -1.58715,-0.71058 -1.58715,-1.58714 0,-0.87657 0.71058,-1.58716 1.58715,-1.58716 0.87656,0 1.58715,0.71059 1.58715,1.58716 z"
                     style="fill:#ffffff;fill-opacity:1;fill-rule:nonzero;stroke:#000000;stroke-width:0.99628001;stroke-linecap:butt;stroke-linejoin:miter;stroke-miterlimit:10;stroke-dasharray:none;stroke-opacity:1"
                     id="path340"
                     inkscape:connector-curvature="0" /></g></g></g><g
               id="g342"><g
                 id="g344"
                 transform="translate(-14.173)"><g
                   id="g346" /><g
                   id="g348"
                   transform="translate(14.173)" /></g><g
                 id="g350"><g
                   id="g352"><path
                     d="m -12.58624,0 c 0,0.87656 -0.71059,1.58714 -1.58715,1.58714 -0.87657,0 -1.58715,-0.71058 -1.58715,-1.58714 0,-0.87656 0.71058,-1.58714 1.58715,-1.58714 0.87656,0 1.58715,0.71058 1.58715,1.58714 z"
                     style="fill:#ffffff;fill-opacity:1;fill-rule:nonzero;stroke:#000000;stroke-width:0.99628001;stroke-linecap:butt;stroke-linejoin:miter;stroke-miterlimit:10;stroke-dasharray:none;stroke-opacity:1"
                     id="path354"
                     inkscape:connector-curvature="0" /></g></g></g><g
               id="g356" /><g
               id="g358" /><g
               id="g360" /><g
               id="g362" /><g
               id="g364" /><g
               id="g366" /><g
               id="g368" /><g
               id="g370" /><g
               id="g372"><g
                 id="g374"
                 transform="matrix(0.3416,-0.94089,0.94089,0.3416,-17.348,6.463)"><g
                   id="g376" /><g
                   id="g378"
                   transform="translate(17.348,-6.463)" /></g><g
                 id="g380"><g
                   id="g382"><path
                     d="m -17.94133,8.09654 -1.86696,-0.67781 3.3073,-3.28947 0.4266,4.64509 -1.86694,-0.67781"
                     style="fill:#000000;fill-opacity:1;fill-rule:nonzero;stroke:#000000;stroke-width:0.99628001;stroke-linecap:butt;stroke-linejoin:miter;stroke-miterlimit:10;stroke-dasharray:none;stroke-opacity:1"
                     id="path384"
                     inkscape:connector-curvature="0" /></g></g></g><g
               id="g386" /><g
               id="g388"><g
                 id="g390"
                 transform="translate(-65.643,23.614)"><g
                   id="g392"><g
                     id="g394"
                     transform="translate(-113.823,-35.662)"><text
                       transform="matrix(1,0,0,-1,113.823,35.662)"
                       style="font-variant:normal;font-weight:normal;font-size:17.93280029px;font-family:Arial;-inkscape-font-specification:Arial;writing-mode:lr-tb;fill:#000000;fill-opacity:1;fill-rule:nonzero;stroke:none"
                       id="text398"><tspan
                         x="0"
                         y="0"
                         id="tspan396">v</tspan></text>
<text
                       transform="matrix(1,0,0,-1,122.042,32.972)"
                       style="font-variant:normal;font-weight:normal;font-size:11.9552002px;font-family:Arial;-inkscape-font-specification:Arial;writing-mode:lr-tb;fill:#000000;fill-opacity:1;fill-rule:nonzero;stroke:none"
                       id="text402"><tspan
                         x="0 2.689877"
                         y="0"
                         sodipodi:role="line"
                         id="tspan400">in</tspan></text>
<text
                       transform="matrix(1,0,0,-1,131.407,35.662)"
                       style="font-variant:normal;font-weight:normal;font-size:17.93280029px;font-family:Arial;-inkscape-font-specification:Arial;writing-mode:lr-tb;fill:#000000;fill-opacity:1;fill-rule:nonzero;stroke:none"
                       id="text406"><tspan
                         x="0"
                         y="0"
                         id="tspan404">(</tspan></text>
<text
                       transform="matrix(1,0,0,-1,138.43,35.662)"
                       style="font-variant:normal;font-weight:normal;font-size:17.93280029px;font-family:Arial;-inkscape-font-specification:Arial;writing-mode:lr-tb;fill:#000000;fill-opacity:1;fill-rule:nonzero;stroke:none"
                       id="text410"><tspan
                         x="0"
                         y="0"
                         id="tspan408">t</tspan></text>
<text
                       transform="matrix(1,0,0,-1,146.611,35.662)"
                       style="font-variant:normal;font-weight:normal;font-size:17.93280029px;font-family:Arial;-inkscape-font-specification:Arial;writing-mode:lr-tb;fill:#000000;fill-opacity:1;fill-rule:nonzero;stroke:none"
                       id="text414"><tspan
                         x="0"
                         y="0"
                         id="tspan412">)</tspan></text>
<g
                       id="g416"
                       transform="translate(113.823,35.662)" /></g></g><g
                   id="g418"
                   transform="translate(65.643,-23.614)" /></g></g><g
               id="g420" /><g
               id="g422" /><g
               id="g424"><g
                 id="g426"
                 transform="rotate(-90,99.2125,-70.8665)"><g
                   id="g428" /><g
                   id="g430"
                   transform="translate(-170.079,-28.346)" /></g></g><g
               id="g432" /><g
               id="g434" /><g
               id="g436"><g
                 id="g438"
                 transform="translate(170.079,56.693)"><g
                   id="g440" /><g
                   id="g442"
                   transform="translate(-170.079,-56.693)" /></g><g
                 id="g444"><g
                   id="g446"><path
                     d="m 171.668,56.69362 c 0,0.87656 -0.71059,1.58714 -1.58714,1.58714 -0.87658,0 -1.58716,-0.71058 -1.58716,-1.58714 0,-0.87657 0.71058,-1.58716 1.58716,-1.58716 0.87655,0 1.58714,0.71059 1.58714,1.58716 z"
                     style="fill:#ffffff;fill-opacity:1;fill-rule:nonzero;stroke:#000000;stroke-width:0.99628001;stroke-linecap:butt;stroke-linejoin:miter;stroke-miterlimit:10;stroke-dasharray:none;stroke-opacity:1"
                     id="path448"
                     inkscape:connector-curvature="0" /></g></g></g><g
               id="g450"><g
                 id="g452"
                 transform="translate(170.079)"><g
                   id="g454" /><g
                   id="g456"
                   transform="translate(-170.079)" /></g><g
                 id="g458"><g
                   id="g460"><path
                     d="m 171.668,0 c 0,0.87656 -0.71059,1.58714 -1.58714,1.58714 -0.87658,0 -1.58716,-0.71058 -1.58716,-1.58714 0,-0.87656 0.71058,-1.58714 1.58716,-1.58714 0.87655,0 1.58714,0.71058 1.58714,1.58714 z"
                     style="fill:#ffffff;fill-opacity:1;fill-rule:nonzero;stroke:#000000;stroke-width:0.99628001;stroke-linecap:butt;stroke-linejoin:miter;stroke-miterlimit:10;stroke-dasharray:none;stroke-opacity:1"
                     id="path462"
                     inkscape:connector-curvature="0" /></g></g></g><g
               id="g464" /><g
               id="g466" /><g
               id="g468" /><g
               id="g470" /><g
               id="g472" /><g
               id="g474" /><g
               id="g476" /><g
               id="g478" /><g
               id="g480"><g
                 id="g482"
                 transform="matrix(-0.3416,-0.94089,0.94089,-0.3416,173.253,6.463)"><g
                   id="g484" /><g
                   id="g486"
                   transform="translate(-173.253,-6.463)" /></g><g
                 id="g488"><g
                   id="g490"><path
                     d="m 173.8488,8.09654 -1.86696,0.67781 0.42662,-4.64509 3.3073,3.28947 -1.86696,0.67781"
                     style="fill:#000000;fill-opacity:1;fill-rule:nonzero;stroke:#000000;stroke-width:0.99628001;stroke-linecap:butt;stroke-linejoin:miter;stroke-miterlimit:10;stroke-dasharray:none;stroke-opacity:1"
                     id="path492"
                     inkscape:connector-curvature="0" /></g></g></g><g
               id="g494" /><g
               id="g496"><g
                 id="g498"
                 transform="translate(181.737,23.614)"><g
                   id="g500"><g
                     id="g502"
                     transform="translate(-361.203,-35.662)"><text
                       transform="matrix(1,0,0,-1,361.203,35.662)"
                       style="font-variant:normal;font-weight:normal;font-size:17.93280029px;font-family:Arial;-inkscape-font-specification:Arial;writing-mode:lr-tb;fill:#000000;fill-opacity:1;fill-rule:nonzero;stroke:none"
                       id="text506"><tspan
                         x="0"
                         y="0"
                         id="tspan504">v</tspan></text>
<text
                       transform="matrix(1,0,0,-1,369.422,32.972)"
                       style="font-variant:normal;font-weight:normal;font-size:11.9552002px;font-family:Arial;-inkscape-font-specification:Arial;writing-mode:lr-tb;fill:#000000;fill-opacity:1;fill-rule:nonzero;stroke:none"
                       id="text510"><tspan
                         x="0 6.2763796 12.453135"
                         y="0"
                         sodipodi:role="line"
                         id="tspan508">out</tspan></text>
<text
                       transform="matrix(1,0,0,-1,386.906,35.662)"
                       style="font-variant:normal;font-weight:normal;font-size:17.93280029px;font-family:Arial;-inkscape-font-specification:Arial;writing-mode:lr-tb;fill:#000000;fill-opacity:1;fill-rule:nonzero;stroke:none"
                       id="text514"><tspan
                         x="0"
                         y="0"
                         id="tspan512">(</tspan></text>
<text
                       transform="matrix(1,0,0,-1,393.93,35.662)"
                       style="font-variant:normal;font-weight:normal;font-size:17.93280029px;font-family:Arial;-inkscape-font-specification:Arial;writing-mode:lr-tb;fill:#000000;fill-opacity:1;fill-rule:nonzero;stroke:none"
                       id="text518"><tspan
                         x="0"
                         y="0"
                         id="tspan516">t</tspan></text>
<text
                       transform="matrix(1,0,0,-1,402.111,35.662)"
                       style="font-variant:normal;font-weight:normal;font-size:17.93280029px;font-family:Arial;-inkscape-font-specification:Arial;writing-mode:lr-tb;fill:#000000;fill-opacity:1;fill-rule:nonzero;stroke:none"
                       id="text522"><tspan
                         x="0"
                         y="0"
                         id="tspan520">)</tspan></text>
<g
                       id="g524"
                       transform="translate(361.203,35.662)" /></g></g><g
                   id="g526"
                   transform="translate(-181.737,-23.614)" /></g></g></g></g><g
           id="g528"
           transform="translate(253.617,7.976)"><g
             id="g530"><g
               id="g532"><g
                 id="g534" /><g
                 id="g536" /><g
                 id="g538"><g
                   id="g540" /></g><g
                 id="g542" /><g
                 id="g544" /><g
                 id="g546" /><g
                 id="g548" /><g
                 id="g550"
                 transform="translate(-17.981,-10.061)"><g
                   id="g552"
                   transform="translate(17.981,10.061)"><g
                     id="g554"><g
                       id="g556"><g
                         id="g558"><g
                           id="g560"><g
                             id="g562" /></g><g
                           id="g564"><g
                             id="g566" /></g><path
                           d="M 0,9e-5 H 94.0082"
                           style="fill:none;stroke:#000000;stroke-width:0.99628001;stroke-linecap:butt;stroke-linejoin:miter;stroke-miterlimit:10;stroke-dasharray:none;stroke-opacity:1"
                           id="path568"
                           inkscape:connector-curvature="0" /><g
                           id="g570"
                           transform="translate(94.0082,9e-5)"><g
                             id="g572"><path
                               d="M 2.8892,0 -1.73352,2.31136 0,0 -1.73352,-2.31136"
                               style="fill:#000000;fill-opacity:1;fill-rule:nonzero;stroke:none"
                               id="path574"
                               inkscape:connector-curvature="0" /></g></g><path
                           d="M 0,9e-5 V 74.52483"
                           style="fill:none;stroke:#000000;stroke-width:0.99628001;stroke-linecap:butt;stroke-linejoin:miter;stroke-miterlimit:10;stroke-dasharray:none;stroke-opacity:1"
                           id="path576"
                           inkscape:connector-curvature="0" /><g
                           id="g578"
                           transform="rotate(90,-37.262415,37.262415)"><g
                             id="g580"><path
                               d="M 2.8892,0 -1.73352,2.31136 0,0 -1.73352,-2.31136"
                               style="fill:#000000;fill-opacity:1;fill-rule:nonzero;stroke:none"
                               id="path582"
                               inkscape:connector-curvature="0" /></g></g><g
                           id="g584"><g
                             id="g586"
                             transform="translate(-13.797,-5.877)"><g
                               id="g588"><g
                                 id="g590"
                                 transform="translate(-419.286,-14.147)"><text
                                   transform="matrix(1,0,0,-1,419.286,14.147)"
                                   style="font-variant:normal;font-weight:normal;font-size:17.93280029px;font-family:Arial;-inkscape-font-specification:Arial;writing-mode:lr-tb;fill:#000000;fill-opacity:1;fill-rule:nonzero;stroke:none"
                                   id="text594"><tspan
                                   x="0"
                                   y="0"
                                   id="tspan592">0</tspan></text>
<g
                                   id="g596"
                                   transform="translate(419.286,14.147)" /></g></g><g
                               id="g598"
                               transform="translate(13.797,5.877)" /></g></g><g
                           id="g600"><path
                             d="M 0,9e-5 0.12433,0.57152 0.24867,1.14131 0.37302,1.70949 0.49736,2.27605 0.6217,2.841 0.74605,3.40433 0.87039,3.96602 1.09395,4.97179 1.3175,5.96071 1.54106,6.93277 1.7646,7.88799 l 0.22357,0.93836 0.22356,0.92151 0.22356,0.9047 0.00241,0.0096 0.35403,1.39053 0.35402,1.30688 0.35402,1.22325 0.35403,1.13962 0.35402,1.05597 0.35401,0.97234 0.35403,0.8887 0.00241,0.0056 0.35403,0.77676 0.35403,0.66257 0.35402,0.54837 0.35402,0.43421 0.35402,0.32002 0.35403,0.20582 0.35402,0.09165 0.00241,1.8e-4 0.35403,-0.03815 0.35402,-0.15327 0.35402,-0.26843 0.35402,-0.38358 0.35402,-0.49872 0.35402,-0.61384 0.35403,-0.72901 0.00242,-0.0053 0.35401,-0.843 0.35404,-0.92925 0.35402,-1.01553 0.35402,-1.10178 0.35402,-1.18803 0.35403,-1.27432 0.354,-1.36058 0.0024,-0.0094 0.28032,-1.12057 0.2803,-1.14637 0.28031,-1.17215 0.28032,-1.19793 0.2803,-1.22374 0.2803,-1.24953 0.28032,-1.27531 0.51841,-2.36576 0.109,-0.49977 0.0024,-0.01086 0.0024,-0.00791 L 14.95685,0 h 0.06369 0.06366 0.06369 0.06367 0.06366 0.06369 0.06366 0.22704 0.227 0.22701 0.22703 0.22701 0.22704 0.227 0.32945 0.35402 0.35402 0.35402 0.35403 l 0.35402,2e-5 h 0.35402 l 0.35402,1e-5 h 0.0024 0.29968 0.2997 l 0.29968,2e-5 h 0.29968 0.2997 l 0.29968,1e-5 0.2997,2e-5 h 0.38274 l 0.42393,1e-5 h 0.0024 0.0024 0.0024 l 0.0048,3e-5 0.0073,8e-5 0.0073,1.4e-4 0.0073,1.6e-4 0.0073,2.5e-4 0.0073,2.7e-4 0.0073,3.5e-4 0.0073,3.7e-4 0.0073,4.4e-4 0.0886,0.00936 0.08859,0.01678 0.08859,0.02422 0.08858,0.03166 0.08861,0.03908 0.08859,0.04654 0.08857,0.05397 0.18792,0.13967 0.18791,0.1718 0.18791,0.20386 0.18791,0.23598 0.18792,0.26803 0.18791,0.30014 0.18791,0.33222 0.05089,0.09494 0.27789,0.56367 0.27788,0.62213 0.27789,0.68056 0.2779,0.739 0.27786,0.79746 0.27789,0.85588 0.27789,0.91432 0.07615,0.25747 0.07612,0.26088 0.07613,0.2643 0.07614,0.26772 0.07614,0.27112 0.07613,0.27452 0.07614,0.27795 0.0024,0.00888 0.30766,1.16747 0.30765,1.20135 0.30763,1.23519 0.30766,1.26908 0.30766,1.30295 0.30764,1.33684 0.30765,1.37068 0.32704,1.45875 0.08131,0.36481 0.08133,0.36504 0.08132,0.36526 0.08133,0.3655 0.08133,0.36575 0.08131,0.36595 0.08133,0.3662 0.14881,0.67076 0.1488,0.66801 0.14882,0.66529 0.1488,0.66255 0.1488,0.65982 0.14882,0.65707 0.14879,0.65433 0.1239,0.54057 0.12389,0.53586 0.12388,0.53115 0.1239,0.52644 0.12388,0.52173 0.1239,0.51701 0.1239,0.51232 0.0024,0.0099 0.35403,1.44467 0.35402,1.37047 0.35402,1.29631 0.35401,1.22212 0.35403,1.14797 0.35402,1.07377 0.35402,0.99961 0.0024,0.0064 0.35401,0.89529 0.35402,0.78525 0.35404,0.67516 0.35402,0.56504 0.35402,0.45497 0.354,0.34489 0.35403,0.2348 0.0024,0.0012 0.35402,0.106 0.35402,-0.01143 0.35402,-0.12892 0.35402,-0.24637 0.35403,-0.36383 0.35402,-0.48129 0.35402,-0.59876 0.0024,-0.0044 0.35402,-0.71866 0.35401,-0.81304 0.35404,-0.9074 0.35402,-1.00182 0.354,-1.09621 0.35402,-1.19057 0.35404,-1.28495 0.0024,-0.009 0.32288,-1.23889 0.32287,-1.27994 0.32288,-1.32096 0.32288,-1.36202 0.32287,-1.40308 0.32288,-1.44409 0.32287,-1.48514 0.22045,-1.01497 0.11662,-0.54062 0.11661,-0.54147 0.11664,-0.54227 0.1166,-0.54312 0.11664,-0.54392 0.11661,-0.54476 0.11664,-0.54558 0.13911,-0.65083 0.13912,-0.64858 0.13911,-0.64635 0.13912,-0.6441 0.13911,-0.64186 0.13911,-0.63962 0.13913,-0.63739 0.09829,-0.44738 0.09828,-0.44472 0.09828,-0.44205 0.09828,-0.43939 0.09828,-0.43672 0.09829,-0.43405 0.09828,-0.43139 0.0024,-0.01057 0.30731,-1.33725 0.30731,-1.28749 0.30728,-1.23775 0.30732,-1.18799 0.30731,-1.13824 0.30729,-1.0885 0.3073,-1.03874 0.04672,-0.15056 0.04671,-0.149 0.04674,-0.14745 0.04671,-0.14589 0.04672,-0.14433 0.04672,-0.14278 0.04671,-0.14123 0.0024,-0.00728 0.14708,-0.43458 0.14706,-0.4174 0.14707,-0.40022 0.14707,-0.38304 0.14709,-0.36588 0.14708,-0.34868 0.14706,-0.33149 0.02182,-0.04747 0.0024,-0.00464 0.0024,-0.00275 0.0024,-7e-4 h 0.20279 l 0.20279,2e-5 h 0.20279 0.20281 0.20278 l 0.20279,1e-5 h 0.20281 0.0024 l 0.13357,2e-5 h 0.1336 0.13357 0.13358 0.13357 l 0.13359,1e-5 h 0.13358 0.0024 0.0024 0.0024 0.0024 l 0.0048,3e-5 0.0073,8e-5 0.0073,1.4e-4 0.0073,1.6e-4 0.0073,2.5e-4 0.0073,2.7e-4 0.0073,3.5e-4 0.0073,3.7e-4 0.0073,4.4e-4 0.08859,0.00936 0.08859,0.01678 0.0886,0.02422 0.08857,0.03166 0.08861,0.03908 0.08859,0.04654 0.08858,0.05397 0.12149,0.08615 0.12146,0.09973 0.12146,0.11336 0.12146,0.12695 0.12149,0.14058 0.12146,0.15416 0.12146,0.16778 0.0024,0.00347 0.25055,0.39157 0.25055,0.44326 0.25055,0.49497 0.25055,0.54663 0.25055,0.59834 0.25055,0.65004 0.25055,0.70174 0.10347,0.30194 0.10347,0.30921 0.10348,0.31646 0.10348,0.32375 0.10346,0.33096 0.10347,0.33826 0.10349,0.3455 0.0024,0.00815 0.33705,1.18683 0.33708,1.23581 0.33705,1.28473 0.33709,1.33369 0.33705,1.38265 0.33706,1.43158 0.33707,1.48056 0.12111,0.53222 0.15056,0.66707 0.15053,0.66905 0.15054,0.67107 0.15053,0.67307 0.15054,0.67508 0.15053,0.67709 0.15054,0.67908 0.07199,0.324 0.07196,0.32369 0.07201,0.32333 0.07196,0.323 0.07198,0.32266 0.07199,0.32231 0.07197,0.32202 0.13152,0.58742 0.1315,0.58389 0.1315,0.58037 0.1315,0.57684 0.1315,0.57332 0.13151,0.56977 0.13151,0.56626 0.0024,0.01037 0.35401,1.51365 0.35404,1.44974 0.35401,1.38583 0.35402,1.3219 0.35402,1.258 0.35403,1.19409 0.35402,1.13016 0.0024,0.0073 0.35404,1.03468 0.35402,0.9299 0.35401,0.8251 0.35404,0.72033 0.35402,0.61553 0.354,0.51076 0.35402,0.40596 0.0024,0.0023 0.35402,0.27957 0.35402,0.16112 0.35403,0.0426 0.35402,-0.07586 0.35402,-0.19437 0.35403,-0.31286 0.35402,-0.43136 0.0024,-0.0033 0.35403,-0.55583 0.35402,-0.65733 0.35402,-0.75881 0.35401,-0.86027 0.35402,-0.96176 0.35402,-1.06325 0.35402,-1.16474 0.0024,-0.0082 0.35126,-1.24464 0.35125,-1.30211 0.35125,-1.35956 0.35125,-1.41704 0.35126,-1.47448 0.35126,-1.53196 0.35125,-1.5894 0.02179,-0.09857 0.17893,-0.81573 0.17891,-0.81957 0.17891,-0.82333 0.17891,-0.82712 0.1789,-0.83096 0.17891,-0.83474 0.17894,-0.83851 0.04879,-0.228 0.04879,-0.22792 0.0488,-0.22783 0.0488,-0.22772 0.0488,-0.22763 0.04878,-0.22754 0.04879,-0.22748 0.12632,-0.58877 0.12631,-0.58626 0.12631,-0.58372 0.12632,-0.5812 0.12631,-0.57867 0.12631,-0.57615 0.12632,-0.57359 0.0024,-0.01095 0.32773,-1.48184 0.32771,-1.43328 0.32773,-1.38472 0.32771,-1.33615 0.32773,-1.28761 0.32771,-1.23904 0.32773,-1.1905 0.18653,-0.63876 0.1969,-0.65149 0.19691,-0.62224 0.19691,-0.59297 0.1969,-0.56372 0.19692,-0.53446 0.19691,-0.5052 L 80.7137,0.42711 80.74033,0.36547 80.76698,0.3044 80.79363,0.24396 80.82028,0.18408 80.84692,0.12482 80.87358,0.06615 80.90022,0.00809 80.90262,0.00345 80.90502,7e-4 80.90742,0 h 0.12943 0.12942 l 0.12943,2e-5 h 0.12942 0.12945 0.12942 0.12942 0.0024 l 0.19138,1e-5 h 0.19135 l 0.19138,2e-5 h 0.19138 0.19136 0.19139 l 0.19136,1e-5 h 0.11143 0.0024 0.0024 0.0024 l 0.0048,3e-5 0.0073,8e-5 0.0073,1.4e-4 0.0073,1.6e-4 0.0073,2.5e-4 0.0073,2.7e-4 0.0073,3.5e-4 0.0073,3.7e-4 0.0073,4.4e-4 0.08857,0.00936 0.08861,0.01678 0.08859,0.02422 0.08858,0.03166 0.08861,0.03908 0.08859,0.04654 0.08858,0.05397 0.04813,0.03239 0.04809,0.03453 0.04809,0.03671 0.0481,0.03888 0.0481,0.04103 0.04812,0.04319 0.0481,0.04534 0.0024,0.00234 0.21665,0.233 0.21662,0.27425 0.21665,0.3155 0.21663,0.35675 0.21662,0.39798 0.21665,0.43926 0.21663,0.4805 0.13739,0.32405 0.13739,0.33839 0.13739,0.35271 0.13738,0.36707 0.1374,0.38137 0.13737,0.39572 0.13738,0.41005 0.0024,0.00734 0.34052,1.08704 0.34053,1.14685 0.34053,1.2067 0.34051,1.26654 0.34053,1.32638 0.34052,1.38622 0.34053,1.44604 0.09689,0.41359 0.20383,0.88281 0.20383,0.88913 0.20384,0.89548 0.20384,0.9018 0.20383,0.90812 0.20382,0.91445 0.20383,0.92077 0.05882,0.26485 0.05884,0.26474 0.05884,0.26465 0.05882,0.26454 0.05884,0.26445 0.05882,0.26433 0.05884,0.26426 0.64195,2.85825 0.30937,1.36549 0.30938,1.32767 0.30937,1.28983 0.3094,1.25201 0.30937,1.21416 0.30938,1.17633 0.30936,1.13848 0.31493,1.08857 0.35402,1.16196 0.35404,1.06366 0.35401,0.96534 0.35401,0.86707 0.35403,0.76877 0.35402,0.67045 0.35402,0.57218 0.0024,0.0035 0.19623,0.26196 0.0017,0.0021"
                             style="fill:none;stroke:#ff0000;stroke-width:0.99628001;stroke-linecap:butt;stroke-linejoin:miter;stroke-miterlimit:10;stroke-dasharray:none;stroke-opacity:1"
                             id="path602"
                             inkscape:connector-curvature="0" /></g></g><g
                         id="g604"><g
                           id="g606"
                           transform="translate(84.052,4.682)"><g
                             id="g608"><g
                               id="g610"
                               transform="translate(-517.135,-24.706)"><text
                                 transform="matrix(1,0,0,-1,517.135,24.706)"
                                 style="font-variant:normal;font-weight:normal;font-size:17.93280029px;font-family:Arial;-inkscape-font-specification:Arial;writing-mode:lr-tb;fill:#000000;fill-opacity:1;fill-rule:nonzero;stroke:none"
                                 id="text614"><tspan
                                   x="0"
                                   y="0"
                                   id="tspan612">t</tspan></text>
<g
                                 id="g616"
                                 transform="translate(517.135,24.706)" /></g></g><g
                             id="g618"
                             transform="translate(-84.052,-4.682)" /></g></g><g
                         id="g620"><g
                           id="g622"
                           transform="translate(4.682,64.278)"><g
                             id="g624"><g
                               id="g626"
                               transform="translate(-437.765,-84.302)"><text
                                 transform="matrix(1,0,0,-1,437.765,84.302)"
                                 style="font-variant:normal;font-weight:normal;font-size:17.93280029px;font-family:Arial;-inkscape-font-specification:Arial;writing-mode:lr-tb;fill:#000000;fill-opacity:1;fill-rule:nonzero;stroke:none"
                                 id="text630"><tspan
                                   x="0"
                                   y="0"
                                   id="tspan628">v</tspan></text>
<text
                                 transform="matrix(1,0,0,-1,445.984,81.612)"
                                 style="font-variant:normal;font-weight:normal;font-size:11.9552002px;font-family:Arial;-inkscape-font-specification:Arial;writing-mode:lr-tb;fill:#000000;fill-opacity:1;fill-rule:nonzero;stroke:none"
                                 id="text634"><tspan
                                   x="0 6.2763796 12.453135"
                                   y="0"
                                   sodipodi:role="line"
                                   id="tspan632">out</tspan></text>
<g
                                 id="g636"
                                 transform="translate(437.765,84.302)" /></g></g><g
                             id="g638"
                             transform="translate(-4.682,-64.278)" /></g></g></g></g><g
                     id="g640"
                     transform="translate(-17.981,-10.061)" /></g><g
                   id="g642"
                   transform="translate(17.981,10.061)" /></g><g
                 id="g644" /><g
                 id="g646" /></g></g></g></g></g></g></svg>