<?xml version="1.0" encoding="UTF-8" standalone="no"?>
<!-- Created with Inkscape (http://www.inkscape.org/) -->

<svg
   xmlns:dc="http://purl.org/dc/elements/1.1/"
   xmlns:cc="http://creativecommons.org/ns#"
   xmlns:rdf="http://www.w3.org/1999/02/22-rdf-syntax-ns#"
   xmlns:svg="http://www.w3.org/2000/svg"
   xmlns="http://www.w3.org/2000/svg"
   xmlns:sodipodi="http://sodipodi.sourceforge.net/DTD/sodipodi-0.dtd"
   xmlns:inkscape="http://www.inkscape.org/namespaces/inkscape"
   version="1.1"
   id="svg2"
   xml:space="preserve"
   width="720.58667"
   height="152.10933"
   viewBox="0 0 720.58667 152.10933"
   sodipodi:docname="sim.svg"
   inkscape:version="0.92.3 (2405546, 2018-03-11)"><metadata
     id="metadata8"><rdf:RDF><cc:Work
         rdf:about=""><dc:format>image/svg+xml</dc:format><dc:type
           rdf:resource="http://purl.org/dc/dcmitype/StillImage" /><dc:title></dc:title></cc:Work></rdf:RDF></metadata><defs
     id="defs6"><clipPath
       clipPathUnits="userSpaceOnUse"
       id="clipPath68"><path
         d="M 0,0 H 96.8974 V 77.40543 H 0 Z"
         id="path66"
         inkscape:connector-curvature="0" /></clipPath></defs><sodipodi:namedview
     pagecolor="#ffffff"
     bordercolor="#666666"
     borderopacity="1"
     objecttolerance="10"
     gridtolerance="10"
     guidetolerance="10"
     inkscape:pageopacity="0"
     inkscape:pageshadow="2"
     inkscape:window-width="725"
     inkscape:window-height="480"
     id="namedview4"
     showgrid="false"
     inkscape:zoom="0.50930723"
     inkscape:cx="360.29333"
     inkscape:cy="76.054665"
     inkscape:window-x="1986"
     inkscape:window-y="594"
     inkscape:window-maximized="0"
     inkscape:current-layer="g10" /><g
     id="g10"
     inkscape:groupmode="layer"
     inkscape:label="sim"
     transform="matrix(1.3333333,0,0,-1.3333333,0,152.10933)"><g
       id="g12"
       transform="translate(10.461,10.461)"><g
         id="g14"><g
           id="g16"><g
             id="g18" /><g
             id="g20" /><g
             id="g22"><g
               id="g24" /></g><g
             id="g26" /><g
             id="g28" /><g
             id="g30" /><g
             id="g32" /><g
             id="g34"
             transform="translate(-0.498,-0.498)"><g
               id="g36"
               transform="translate(0.498,0.498)"><g
                 id="g38"><g
                   id="g40"><g
                     id="g42"><g
                       id="g44" /><g
                       id="g46" /><path
                       d="M 0,38.70271 H 94.0082"
                       style="fill:none;stroke:#000000;stroke-width:0.99628001;stroke-linecap:butt;stroke-linejoin:miter;stroke-miterlimit:10;stroke-dasharray:none;stroke-opacity:1"
                       id="path48"
                       inkscape:connector-curvature="0" /><g
                       id="g50"
                       transform="translate(94.0082,38.70271)"><g
                         id="g52"><path
                           d="M 2.8892,0 -1.73352,2.31136 0,0 -1.73352,-2.31136"
                           style="fill:#000000;fill-opacity:1;fill-rule:nonzero;stroke:none"
                           id="path54"
                           inkscape:connector-curvature="0" /></g></g><path
                       d="M 0,0 V 74.51622"
                       style="fill:none;stroke:#000000;stroke-width:0.99628001;stroke-linecap:butt;stroke-linejoin:miter;stroke-miterlimit:10;stroke-dasharray:none;stroke-opacity:1"
                       id="path56"
                       inkscape:connector-curvature="0" /><g
                       id="g58"
                       transform="rotate(90,-37.25811,37.25811)"><g
                         id="g60"><path
                           d="M 2.8892,0 -1.73352,2.31136 0,0 -1.73352,-2.31136"
                           style="fill:#000000;fill-opacity:1;fill-rule:nonzero;stroke:none"
                           id="path62"
                           inkscape:connector-curvature="0" /></g></g><g
                       id="g64"
                       clip-path="url(#clipPath68)"><g
                         id="g70"><path
                           d="m 0,38.70271 v 0 0 0 0 0 2e-5 10e-6 3e-5 2e-5 5e-5 l 2e-5,4e-5 1e-5,8e-5 2e-5,7e-5 3e-5,1.4e-4 4e-5,1.8e-4 6e-5,3.1e-4 0.1352,0.62149 0.13517,0.61983 0.1352,0.61808 0.13519,0.6164 0.13519,0.6147 0.13518,0.61298 0.13519,0.61128 0.21076,0.94848 0.21074,0.93406 0.21075,0.9196 0.21075,0.90514 0.21076,0.8907 0.21075,0.87625 0.21074,0.8618 0.00243,0.0097 0.35403,1.40964 0.35401,1.32794 0.35403,1.24622 0.35402,1.1645 0.35402,1.08281 0.35403,1.00107 0.35402,0.91936 0.00241,0.0059 0.28483,0.65744 0.2848,0.58508 0.28481,0.51272 0.2848,0.44036 0.28481,0.36801 0.28482,0.29564 0.2848,0.22327 0.48691,0.19819 0.18169,0.01624 0.00242,1e-5 h 0.00241 l 0.00243,-1e-5 0.00485,-3e-5 0.00727,-1e-4 0.00727,-1.3e-4 0.00727,-1.9e-4 0.00726,-2.4e-4 0.00726,-2.7e-4 0.00728,-3.4e-4 0.00726,-4e-4 0.00727,-4.4e-4 0.08893,-0.0095 0.08894,-0.017 0.08894,-0.02448 0.08893,-0.032 0.08894,-0.0395 0.08893,-0.04701 0.08896,-0.05451 0.18825,-0.14074 0.18825,-0.17312 0.18826,-0.2055 0.18826,-0.23789 0.18827,-0.27024 0.18824,-0.30263 0.18827,-0.335 0.04083,-0.07658 0.04085,-0.078 0.04083,-0.07942 0.04083,-0.08084 0.04083,-0.08231 0.04084,-0.08372 0.04083,-0.08516 0.00242,-0.0051 0.28966,-0.65199 0.28964,-0.71352 0.28966,-0.77502 0.28966,-0.83657 0.28966,-0.8981 0.28966,-0.95959 0.28966,-1.02111 0.45298,-1.68316 0.29312,-1.15851 0.29311,-1.18774 0.2931,-1.21696 0.29314,-1.24613 0.29311,-1.27539 0.2931,-1.30458 0.29312,-1.33382 0.42878,-1.95523 0.05087,-0.2331 0.05086,-0.23316 0.05089,-0.23324 0.05085,-0.2333 0.05087,-0.23337 0.05088,-0.23344 0.05087,-0.23352 0.1668,-0.76743 0.1668,-0.76401 0.1668,-0.76057 0.16681,-0.75713 0.16681,-0.75372 0.16679,-0.75028 0.16681,-0.74684 0.13635,-0.60498 0.13634,-0.59889 0.13635,-0.59283 0.13634,-0.58677 0.13635,-0.5807 0.13637,-0.57463 0.13633,-0.56857 0.0024,-0.01001 0.35402,-1.45287 0.35402,-1.37585 0.35403,-1.29884 0.35401,-1.22181 0.35402,-1.14479 0.35402,-1.0678 0.35403,-0.99073 0.0024,-0.0063 0.35401,-0.88411 0.35404,-0.77268 0.35402,-0.66124 0.35401,-0.54979 0.35404,-0.43837 0.35402,-0.32692 0.354,-0.2155 0.0024,-0.001 0.35402,-0.08621 0.35402,0.03073 0.35402,0.14772 0.35402,0.26469 0.35402,0.38167 0.35402,0.49863 0.35403,0.61562 0.0024,0.0046 0.35402,0.73399 0.35404,0.82617 0.35402,0.91842 0.35402,1.01057 0.35401,1.1028 0.35402,1.19497 0.35403,1.28719 0.0024,0.009 0.30867,1.1813 0.30869,1.2172 0.3087,1.2531 0.30869,1.289 0.30868,1.32486 0.30869,1.36079 0.30868,1.39669 0.31977,1.45033 0.08271,0.37753 0.08271,0.37795 0.0827,0.37829 0.08272,0.37868 0.0827,0.37908 0.08272,0.37943 0.0827,0.37983 0.14535,0.66838 0.14534,0.66623 0.14535,0.66407 0.14535,0.66193 0.14534,0.65976 0.14535,0.65761 0.14534,0.65547 0.12597,0.56429 0.12595,0.55975 0.12598,0.55523 0.12598,0.55071 0.12596,0.54619 0.12596,0.54164 0.12596,0.53714 0.0024,0.01025 0.29692,1.25066 0.29692,1.20261 0.29692,1.1546 0.29692,1.10658 0.29692,1.05855 0.29693,1.01053 0.29692,0.96249 0.05711,0.17619 0.0571,0.17382 0.0571,0.17144 0.05709,0.1691 0.0571,0.1667 0.0571,0.16434 0.0571,0.16196 0.0024,0.0068 0.11558,0.32041 0.11557,0.30974 0.1156,0.2991 0.11559,0.28841 0.11557,0.27777 0.11558,0.2671 0.1156,0.25643 0.0024,0.0052 0.0024,0.0053 0.0024,0.0052 0.2374,0.49126 0.2374,0.44043 0.23741,0.38959 0.23738,0.33876 0.2374,0.2879 0.23741,0.23709 0.2374,0.18625 0.0024,0.0016 0.09934,0.06118 0.09932,0.05184 0.09932,0.04248 0.0993,0.03311 0.09934,0.02374 0.09932,0.01439 0.09932,0.005 0.0024,1e-5 h 0.0024 l 0.0024,-1e-5 0.0048,-3e-5 0.0073,-1e-4 0.0073,-1.3e-4 0.0073,-1.9e-4 0.0073,-2.4e-4 0.0073,-2.7e-4 0.0073,-3.4e-4 0.0073,-4e-4 0.0073,-4.4e-4 0.08893,-0.0095 0.08894,-0.017 0.08894,-0.02448 0.08893,-0.032 0.08895,-0.0395 0.08892,-0.04701 0.08896,-0.05451 0.15572,-0.11378 0.15573,-0.13611 0.15573,-0.1584 0.15572,-0.18073 0.15573,-0.20302 0.15573,-0.22535 0.15573,-0.24765 0.0024,-0.004 0.26404,-0.47334 0.26405,-0.52932 0.26404,-0.58533 0.26403,-0.64131 0.26406,-0.69732 0.26404,-0.75331 0.26405,-0.80931 0.08997,-0.28551 0.08998,-0.29078 0.08998,-0.29604 0.08996,-0.30131 0.08998,-0.30658 0.08999,-0.31183 0.08998,-0.31709 0.0024,-0.0086 0.32358,-1.19421 0.32356,-1.23746 0.32358,-1.2807 0.32354,-1.32396 0.32358,-1.3672 0.32358,-1.41047 0.32356,-1.4537 0.21559,-0.97077 0.11872,-0.53861 0.11869,-0.53979 0.1187,-0.5409 0.1187,-0.54207 0.1187,-0.5432 0.11868,-0.54436 0.1187,-0.54548 0.14052,-0.64603 0.1405,-0.6441 0.14049,-0.64217 0.14052,-0.64024 0.14048,-0.63831 0.14051,-0.63638 0.14052,-0.63446 0.66615,-2.94065 0.35403,-1.52684 0.35401,-1.45985 0.35403,-1.39286 0.35402,-1.32587 0.35402,-1.25889 0.35402,-1.19189 0.35402,-1.12489 0.0024,-0.0073 0.35402,-1.02672 0.35402,-0.92023 0.35404,-0.81375 0.35402,-0.70728 0.35402,-0.60076 0.35401,-0.49428 0.35402,-0.3878 0.0024,-0.0022 0.35402,-0.26054 0.35402,-0.14215 0.35402,-0.02375 0.35403,0.09461 0.35402,0.21301 0.35402,0.33141 0.35402,0.44978 0.0024,0.0035 0.35401,0.57316 0.35402,0.67276 0.35403,0.7724 0.35403,0.87198 0.354,0.9716 0.35404,1.07121 0.35401,1.17083 0.0024,0.0082 0.33775,1.19715 0.33776,1.24837 0.33775,1.2996 0.33775,1.35084 0.33778,1.40209 0.33775,1.45331 0.33775,1.50455 0.11629,0.51867 0.15225,0.68526 0.15226,0.68776 0.15229,0.69028 0.15227,0.69279 0.15225,0.69531 0.15228,0.69782 0.15227,0.70033 0.07127,0.32732 0.07131,0.32709 0.07127,0.32685 0.0713,0.32662 0.07128,0.32638 0.07129,0.32616 0.0713,0.32594 0.13046,0.59592 0.13046,0.59277 0.13047,0.58966 0.13046,0.58654 0.13048,0.5834 0.13046,0.58025 0.13047,0.57713 0.0024,0.01065 0.31837,1.39929 0.31839,1.35146 0.31838,1.30365 0.31837,1.25586 0.31838,1.20804 0.31837,1.16023 0.31837,1.11241 0.25194,0.82308 0.17546,0.5492 0.17546,0.52576 0.17545,0.50223 0.17546,0.47873 0.17545,0.45524 0.17546,0.43175 0.17544,0.40825 0.0135,0.03024 0.0135,0.03006 0.0135,0.02994 0.01349,0.02979 0.01349,0.0296 0.0135,0.02948 0.0135,0.02933 0.0024,0.0052 0.0024,0.0053 0.0024,0.0052 0.16403,0.34387 0.16403,0.32004 0.16405,0.29616 0.16402,0.27232 0.16403,0.24851 0.16403,0.22464 0.16405,0.20079 0.0024,0.0028 0.16646,0.17758 0.16645,0.15146 0.16646,0.12533 0.16645,0.09921 0.16645,0.07311 0.16648,0.04698 0.16644,0.02084 0.04361,0.001 0.0024,10e-6 h 0.0024 l 0.0024,-10e-6 0.0049,-3e-5 0.0073,-10e-5 0.0073,-1.3e-4 0.0073,-1.9e-4 0.0073,-2.4e-4 0.0073,-2.7e-4 0.0073,-3.4e-4 0.0073,-4e-4 0.0073,-4.4e-4 0.08893,-0.0095 0.08894,-0.017 0.08895,-0.02448 0.08893,-0.032 0.08894,-0.0395 0.08893,-0.04701 0.08894,-0.05451 0.08237,-0.05716 0.08236,-0.06349 0.08236,-0.06981 0.08236,-0.07612 0.08237,-0.08246 0.08235,-0.08878 0.08237,-0.0951 0.0024,-0.0029 0.23359,-0.30644 0.23359,-0.35346 0.2336,-0.40049 0.2336,-0.44756 0.23359,-0.49458 0.23358,-0.5416 0.2336,-0.58865 0.12042,-0.31941 0.12044,-0.33005 0.12044,-0.3407 0.12042,-0.35133 0.12042,-0.362 0.12043,-0.37262 0.12043,-0.38327 0.0024,-0.0078 0.34985,-1.18505 0.34989,-1.24451 0.34987,-1.30393 0.34986,-1.36335 0.34988,-1.42282 0.34986,-1.48223 0.34987,-1.54167 0.03149,-0.13882 0.1803,-0.80254 0.1803,-0.80704 0.1803,-0.81158 0.1803,-0.81612 0.18029,-0.82065 0.1803,-0.82518 0.18031,-0.82971 0.04845,-0.22238 0.04845,-0.22232 0.04844,-0.22229 0.04844,-0.22224 0.04846,-0.22222 0.04844,-0.22215 0.04845,-0.22213 0.12528,-0.57453 0.12527,-0.57237 0.12526,-0.57024 0.12529,-0.56804 0.12527,-0.56592 0.12528,-0.56373 0.12527,-0.56159 0.0024,-0.0108 0.33257,-1.48644 0.33256,-1.43824 0.33257,-1.39006 0.33256,-1.34186 0.33257,-1.29368 0.33255,-1.24548 0.33258,-1.19729 0.15262,-0.51929 0.35402,-1.15768 0.35401,-1.05736 0.35402,-0.95705 0.35402,-0.8567 0.35402,-0.75637 0.35402,-0.65605 0.35404,-0.55571 0.0024,-0.0033 0.35402,-0.4319 0.35403,-0.31343 0.35402,-0.19498 0.35402,-0.07651 0.35403,0.04193 0.35402,0.16042 0.35401,0.27887 0.0024,0.0023 0.35402,0.40584 0.35402,0.5117 0.354,0.61763 0.35403,0.7235 0.35402,0.82941 0.35402,0.93527 0.35404,1.04118 0.0024,0.0074 0.35401,1.13838 0.35404,1.20427 0.35402,1.27016 0.35402,1.33602 0.35402,1.40192 0.35402,1.46779 0.35402,1.53369 0.0024,0.0105 0.2052,0.90094 0.20522,0.90819 0.20521,0.91545 0.2052,0.9227 0.20523,0.92994 0.20522,0.93721 0.20521,0.94448 0.05883,0.26997 0.05883,0.26994 0.05882,0.26992 0.05884,0.26988 0.05884,0.26985 0.05882,0.26982 0.05884,0.26978 0.63225,2.87928 0.308,1.39391 0.30798,1.35832 0.30801,1.32272 0.30799,1.28714 0.308,1.25156 0.30798,1.21596 0.30801,1.18039 0.32459,1.17254 0.21768,0.75393 0.21768,0.71992 0.21767,0.68591 0.21767,0.65192 0.21768,0.61794 0.21768,0.58392 0.21767,0.54993 0.04463,0.10745 0.04464,0.10579 0.04465,0.10415 0.04465,0.10251 0.04463,0.10086 0.04465,0.09925 0.04465,0.09758 0.0024,0.0052 0.0024,0.0053 0.0024,0.0052 0.6371,1.2023 0.21074,0.319 6.7e-4,9.3e-4"
                           style="fill:none;stroke:#ff0000;stroke-width:0.99628001;stroke-linecap:butt;stroke-linejoin:miter;stroke-miterlimit:10;stroke-dasharray:none;stroke-opacity:1"
                           id="path72"
                           inkscape:connector-curvature="0" /></g></g></g><g
                     id="g74"><g
                       id="g76"
                       transform="translate(84.053,43.392)"><g
                         id="g78"><g
                           id="g80"
                           transform="translate(-94.514,-53.853)"><text
                             transform="matrix(1,0,0,-1,94.514,53.853)"
                             style="font-variant:normal;font-weight:normal;font-size:17.93280029px;font-family:Arial;-inkscape-font-specification:Arial;writing-mode:lr-tb;fill:#000000;fill-opacity:1;fill-rule:nonzero;stroke:none"
                             id="text84"><tspan
                               x="0"
                               y="0"
                               id="tspan82">t</tspan></text>
<g
                             id="g86"
                             transform="translate(94.514,53.853)" /></g></g><g
                         id="g88"
                         transform="translate(-84.053,-43.392)" /></g></g><g
                     id="g90"><g
                       id="g92"
                       transform="translate(4.682,64.269)"><g
                         id="g94"><g
                           id="g96"
                           transform="translate(-15.143,-74.73)"><text
                             transform="matrix(1,0,0,-1,15.143,74.73)"
                             style="font-variant:normal;font-weight:normal;font-size:17.93280029px;font-family:Arial;-inkscape-font-specification:Arial;writing-mode:lr-tb;fill:#000000;fill-opacity:1;fill-rule:nonzero;stroke:none"
                             id="text100"><tspan
                               x="0"
                               y="0"
                               id="tspan98">v</tspan></text>
<text
                             transform="matrix(1,0,0,-1,23.362,72.04)"
                             style="font-variant:normal;font-weight:normal;font-size:11.9552002px;font-family:Arial;-inkscape-font-specification:Arial;writing-mode:lr-tb;fill:#000000;fill-opacity:1;fill-rule:nonzero;stroke:none"
                             id="text104"><tspan
                               x="0 2.689877"
                               y="0"
                               sodipodi:role="line"
                               id="tspan102">in</tspan></text>
<g
                             id="g106"
                             transform="translate(15.143,74.73)" /></g></g><g
                         id="g108"
                         transform="translate(-4.682,-64.269)" /></g></g></g></g><g
                 id="g110"
                 transform="translate(-0.498,-0.498)" /></g><g
               id="g112"
               transform="translate(0.498,0.498)" /></g><g
             id="g114" /><g
             id="g116" /></g></g><g
         id="g118"
         transform="translate(169.005,1.587)"><g
           id="g120"><g
             id="g122"><path
               d="m -14.17339,56.69362 h 0.49814 m -0.49814,0 h 45.63842 m 7.93695,0 h 45.63844 m -0.49814,0 h 0.49814 0.49814 m -0.49814,0 h 42.5202 m 0,0 h 42.52024 m -0.49814,0 h 0.49814 m -85.04044,0 v -0.49814 m 0,0.49814 -2e-5,-20.40987 m 0,-15.8739 L 85.04042,0 m 0,0.49814 V 0 m 56.69362,0 v 0.49814 m 0,-0.49814 -2e-5,12.47261 m 0,31.74839 2e-5,12.47262 m 0,-0.49814 v 0.49814 M -17.34827,50.23059 c -6.64735,-18.30884 -6.64735,-25.45874 0,-43.76762 m 190.60399,43.76762 c 6.64737,-18.30884 6.64737,-25.45874 0,-43.76762 M -14.17339,0 h 184.25425"
               style="fill:none;stroke:#000000;stroke-width:0.99628001;stroke-linecap:butt;stroke-linejoin:miter;stroke-miterlimit:10;stroke-dasharray:none;stroke-opacity:1"
               id="path124"
               inkscape:connector-curvature="0" /><g
               id="g126" /><g
               id="g128" /><g
               id="g130"><path
                 d="M 31.46503,68.59933 V 44.78789 m 7.93695,23.81144 V 44.78789"
                 style="fill:none;stroke:#000000;stroke-width:1.99255002;stroke-linecap:butt;stroke-linejoin:miter;stroke-miterlimit:10;stroke-dasharray:none;stroke-opacity:1"
                 id="path132"
                 inkscape:connector-curvature="0" /><g
                 id="g134"
                 transform="translate(35.433,56.693)"><g
                   id="g136" /><g
                   id="g138"
                   transform="translate(-35.433,-56.693)" /></g></g><g
               id="g140" /><g
               id="g142" /><g
               id="g144" /><g
               id="g146" /><g
               id="g148"><g
                 id="g150"
                 transform="translate(29.015,75.435)"><g
                   id="g152"><g
                     id="g154"
                     transform="translate(-208.481,-87.483)"><text
                       transform="matrix(1,0,0,-1,208.481,87.483)"
                       style="font-variant:normal;font-weight:normal;font-size:17.93280029px;font-family:Arial;-inkscape-font-specification:Arial;writing-mode:lr-tb;fill:#000000;fill-opacity:1;fill-rule:nonzero;stroke:none"
                       id="text158"><tspan
                         x="0"
                         y="0"
                         id="tspan156">C</tspan></text>
<g
                       id="g160"
                       transform="translate(208.481,87.483)" /></g></g><g
                   id="g162"
                   transform="translate(-29.015,-75.435)" /></g></g><g
               id="g164" /><g
               id="g166" /><g
               id="g168"><g
                 id="g170"
                 transform="translate(127.559,56.693)"><g
                   id="g172" /><g
                   id="g174"
                   transform="translate(-127.559,-56.693)" /></g></g><g
               id="g176" /><g
               id="g178" /><g
               id="g180" /><g
               id="g182" /><g
               id="g184"><g
                 id="g186"><path
                   d="m 85.0404,20.40985 9.92135,15.8739 H 75.11906 l 9.92134,-15.8739"
                   style="fill:none;stroke:#000000;stroke-width:1.99255002;stroke-linecap:butt;stroke-linejoin:miter;stroke-miterlimit:10;stroke-dasharray:none;stroke-opacity:1"
                   id="path188"
                   inkscape:connector-curvature="0" /></g><path
                 d="M 75.11906,20.40985 H 94.96175"
                 style="fill:none;stroke:#000000;stroke-width:1.99255002;stroke-linecap:butt;stroke-linejoin:miter;stroke-miterlimit:10;stroke-dasharray:none;stroke-opacity:1"
                 id="path190"
                 inkscape:connector-curvature="0" /><g
                 id="g192"
                 transform="rotate(-90,56.6925,-28.3465)"><g
                   id="g194" /><g
                   id="g196"
                   transform="translate(-85.039,-28.346)" /></g></g><g
               id="g198" /><g
               id="g200" /><g
               id="g202"><g
                 id="g204"
                 transform="translate(85.039,56.693)"><g
                   id="g206" /><g
                   id="g208"
                   transform="translate(-85.039,-56.693)" /></g><g
                 id="g210"><g
                   id="g212"><path
                     d="m 86.62756,56.69362 c 0,0.87656 -0.71058,1.58714 -1.58714,1.58714 -0.87656,0 -1.58714,-0.71058 -1.58714,-1.58714 0,-0.87657 0.71058,-1.58716 1.58714,-1.58716 0.87656,0 1.58714,0.71059 1.58714,1.58716 z"
                     style="fill:#000000;fill-opacity:1;fill-rule:nonzero;stroke:#000000;stroke-width:0.99628001;stroke-linecap:butt;stroke-linejoin:miter;stroke-miterlimit:10;stroke-dasharray:none;stroke-opacity:1"
                     id="path214"
                     inkscape:connector-curvature="0" /></g></g></g><g
               id="g216"><g
                 id="g218"
                 transform="translate(85.039)"><g
                   id="g220" /><g
                   id="g222"
                   transform="translate(-85.039)" /></g><g
                 id="g224"><g
                   id="g226"><path
                     d="m 86.62756,0 c 0,0.87656 -0.71058,1.58714 -1.58714,1.58714 -0.87656,0 -1.58714,-0.71058 -1.58714,-1.58714 0,-0.87656 0.71058,-1.58714 1.58714,-1.58714 0.87656,0 1.58714,0.71058 1.58714,1.58714 z"
                     style="fill:#000000;fill-opacity:1;fill-rule:nonzero;stroke:#000000;stroke-width:0.99628001;stroke-linecap:butt;stroke-linejoin:miter;stroke-miterlimit:10;stroke-dasharray:none;stroke-opacity:1"
                     id="path228"
                     inkscape:connector-curvature="0" /></g></g></g><g
               id="g230" /><g
               id="g232"><g
                 id="g234"
                 transform="translate(54.739,25.524)"><g
                   id="g236"><g
                     id="g238"
                     transform="translate(-234.205,-37.572)"><text
                       transform="matrix(1,0,0,-1,234.205,37.572)"
                       style="font-variant:normal;font-weight:normal;font-size:17.93280029px;font-family:Arial;-inkscape-font-specification:Arial;writing-mode:lr-tb;fill:#000000;fill-opacity:1;fill-rule:nonzero;stroke:none"
                       id="text242"><tspan
                         x="0"
                         y="0"
                         id="tspan240">D</tspan></text>
<g
                       id="g244"
                       transform="translate(234.205,37.572)" /></g></g><g
                   id="g246"
                   transform="translate(-54.739,-25.524)" /></g></g><g
               id="g248" /><g
               id="g250" /><g
               id="g252"><path
                 d="M 147.68687,44.221 V 12.47261 h -11.9057 V 44.221 Z"
                 style="fill:none;stroke:#000000;stroke-width:1.99255002;stroke-linecap:butt;stroke-linejoin:miter;stroke-miterlimit:10;stroke-dasharray:none;stroke-opacity:1"
                 id="path254"
                 inkscape:connector-curvature="0" /><g
                 id="g256"
                 transform="rotate(90,56.693,85.039)"><g
                   id="g258" /><g
                   id="g260"
                   transform="translate(-141.732,-28.346)" /></g></g><g
               id="g262" /><g
               id="g264" /><g
               id="g266"><g
                 id="g268"
                 transform="translate(141.732)"><g
                   id="g270" /><g
                   id="g272"
                   transform="translate(-141.732)" /></g><g
                 id="g274"><g
                   id="g276"><path
                     d="m 143.32118,0 c 0,0.87656 -0.71058,1.58714 -1.58714,1.58714 -0.87656,0 -1.58714,-0.71058 -1.58714,-1.58714 0,-0.87656 0.71058,-1.58714 1.58714,-1.58714 0.87656,0 1.58714,0.71058 1.58714,1.58714 z"
                     style="fill:#000000;fill-opacity:1;fill-rule:nonzero;stroke:#000000;stroke-width:0.99628001;stroke-linecap:butt;stroke-linejoin:miter;stroke-miterlimit:10;stroke-dasharray:none;stroke-opacity:1"
                     id="path278"
                     inkscape:connector-curvature="0" /></g></g></g><g
               id="g280"><g
                 id="g282"
                 transform="translate(141.732,56.693)"><g
                   id="g284" /><g
                   id="g286"
                   transform="translate(-141.732,-56.693)" /></g><g
                 id="g288"><g
                   id="g290"><path
                     d="m 143.32118,56.69362 c 0,0.87656 -0.71058,1.58714 -1.58714,1.58714 -0.87656,0 -1.58714,-0.71058 -1.58714,-1.58714 0,-0.87657 0.71058,-1.58716 1.58714,-1.58716 0.87656,0 1.58714,0.71059 1.58714,1.58716 z"
                     style="fill:#000000;fill-opacity:1;fill-rule:nonzero;stroke:#000000;stroke-width:0.99628001;stroke-linecap:butt;stroke-linejoin:miter;stroke-miterlimit:10;stroke-dasharray:none;stroke-opacity:1"
                     id="path292"
                     inkscape:connector-curvature="0" /></g></g></g><g
               id="g294" /><g
               id="g296"><g
                 id="g298"
                 transform="translate(117.01,25.524)"><g
                   id="g300"><g
                     id="g302"
                     transform="translate(-296.476,-37.572)"><text
                       transform="matrix(1,0,0,-1,296.476,37.572)"
                       style="font-variant:normal;font-weight:normal;font-size:17.93280029px;font-family:Arial;-inkscape-font-specification:Arial;writing-mode:lr-tb;fill:#000000;fill-opacity:1;fill-rule:nonzero;stroke:none"
                       id="text306"><tspan
                         x="0"
                         y="0"
                         id="tspan304">R</tspan></text>
<g
                       id="g308"
                       transform="translate(296.476,37.572)" /></g></g><g
                   id="g310"
                   transform="translate(-117.01,-25.524)" /></g></g><g
               id="g312" /><g
               id="g314" /><g
               id="g316"><g
                 id="g318"
                 transform="rotate(-90,7.0865,21.2595)"><g
                   id="g320" /><g
                   id="g322"
                   transform="translate(14.173,-28.346)" /></g></g><g
               id="g324" /><g
               id="g326" /><g
               id="g328"><g
                 id="g330"
                 transform="translate(-14.173,56.693)"><g
                   id="g332" /><g
                   id="g334"
                   transform="translate(14.173,-56.693)" /></g><g
                 id="g336"><g
                   id="g338"><path
                     d="m -12.58624,56.69362 c 0,0.87656 -0.71059,1.58714 -1.58715,1.58714 -0.87657,0 -1.58715,-0.71058 -1.58715,-1.58714 0,-0.87657 0.71058,-1.58716 1.58715,-1.58716 0.87656,0 1.58715,0.71059 1.58715,1.58716 z"
                     style="fill:#ffffff;fill-opacity:1;fill-rule:nonzero;stroke:#000000;stroke-width:0.99628001;stroke-linecap:butt;stroke-linejoin:miter;stroke-miterlimit:10;stroke-dasharray:none;stroke-opacity:1"
                     id="path340"
                     inkscape:connector-curvature="0" /></g></g></g><g
               id="g342"><g
                 id="g344"
                 transform="translate(-14.173)"><g
                   id="g346" /><g
                   id="g348"
                   transform="translate(14.173)" /></g><g
                 id="g350"><g
                   id="g352"><path
                     d="m -12.58624,0 c 0,0.87656 -0.71059,1.58714 -1.58715,1.58714 -0.87657,0 -1.58715,-0.71058 -1.58715,-1.58714 0,-0.87656 0.71058,-1.58714 1.58715,-1.58714 0.87656,0 1.58715,0.71058 1.58715,1.58714 z"
                     style="fill:#ffffff;fill-opacity:1;fill-rule:nonzero;stroke:#000000;stroke-width:0.99628001;stroke-linecap:butt;stroke-linejoin:miter;stroke-miterlimit:10;stroke-dasharray:none;stroke-opacity:1"
                     id="path354"
                     inkscape:connector-curvature="0" /></g></g></g><g
               id="g356" /><g
               id="g358" /><g
               id="g360" /><g
               id="g362" /><g
               id="g364" /><g
               id="g366" /><g
               id="g368" /><g
               id="g370" /><g
               id="g372"><g
                 id="g374"
                 transform="matrix(0.3416,-0.94089,0.94089,0.3416,-17.348,6.463)"><g
                   id="g376" /><g
                   id="g378"
                   transform="translate(17.348,-6.463)" /></g><g
                 id="g380"><g
                   id="g382"><path
                     d="m -17.94133,8.09654 -1.86696,-0.67781 3.3073,-3.28947 0.4266,4.64509 -1.86694,-0.67781"
                     style="fill:#000000;fill-opacity:1;fill-rule:nonzero;stroke:#000000;stroke-width:0.99628001;stroke-linecap:butt;stroke-linejoin:miter;stroke-miterlimit:10;stroke-dasharray:none;stroke-opacity:1"
                     id="path384"
                     inkscape:connector-curvature="0" /></g></g></g><g
               id="g386" /><g
               id="g388"><g
                 id="g390"
                 transform="translate(-65.643,23.614)"><g
                   id="g392"><g
                     id="g394"
                     transform="translate(-113.823,-35.662)"><text
                       transform="matrix(1,0,0,-1,113.823,35.662)"
                       style="font-variant:normal;font-weight:normal;font-size:17.93280029px;font-family:Arial;-inkscape-font-specification:Arial;writing-mode:lr-tb;fill:#000000;fill-opacity:1;fill-rule:nonzero;stroke:none"
                       id="text398"><tspan
                         x="0"
                         y="0"
                         id="tspan396">v</tspan></text>
<text
                       transform="matrix(1,0,0,-1,122.042,32.972)"
                       style="font-variant:normal;font-weight:normal;font-size:11.9552002px;font-family:Arial;-inkscape-font-specification:Arial;writing-mode:lr-tb;fill:#000000;fill-opacity:1;fill-rule:nonzero;stroke:none"
                       id="text402"><tspan
                         x="0 2.689877"
                         y="0"
                         sodipodi:role="line"
                         id="tspan400">in</tspan></text>
<text
                       transform="matrix(1,0,0,-1,131.407,35.662)"
                       style="font-variant:normal;font-weight:normal;font-size:17.93280029px;font-family:Arial;-inkscape-font-specification:Arial;writing-mode:lr-tb;fill:#000000;fill-opacity:1;fill-rule:nonzero;stroke:none"
                       id="text406"><tspan
                         x="0"
                         y="0"
                         id="tspan404">(</tspan></text>
<text
                       transform="matrix(1,0,0,-1,138.43,35.662)"
                       style="font-variant:normal;font-weight:normal;font-size:17.93280029px;font-family:Arial;-inkscape-font-specification:Arial;writing-mode:lr-tb;fill:#000000;fill-opacity:1;fill-rule:nonzero;stroke:none"
                       id="text410"><tspan
                         x="0"
                         y="0"
                         id="tspan408">t</tspan></text>
<text
                       transform="matrix(1,0,0,-1,146.611,35.662)"
                       style="font-variant:normal;font-weight:normal;font-size:17.93280029px;font-family:Arial;-inkscape-font-specification:Arial;writing-mode:lr-tb;fill:#000000;fill-opacity:1;fill-rule:nonzero;stroke:none"
                       id="text414"><tspan
                         x="0"
                         y="0"
                         id="tspan412">)</tspan></text>
<g
                       id="g416"
                       transform="translate(113.823,35.662)" /></g></g><g
                   id="g418"
                   transform="translate(65.643,-23.614)" /></g></g><g
               id="g420" /><g
               id="g422" /><g
               id="g424"><g
                 id="g426"
                 transform="rotate(-90,99.2125,-70.8665)"><g
                   id="g428" /><g
                   id="g430"
                   transform="translate(-170.079,-28.346)" /></g></g><g
               id="g432" /><g
               id="g434" /><g
               id="g436"><g
                 id="g438"
                 transform="translate(170.079,56.693)"><g
                   id="g440" /><g
                   id="g442"
                   transform="translate(-170.079,-56.693)" /></g><g
                 id="g444"><g
                   id="g446"><path
                     d="m 171.668,56.69362 c 0,0.87656 -0.71059,1.58714 -1.58714,1.58714 -0.87658,0 -1.58716,-0.71058 -1.58716,-1.58714 0,-0.87657 0.71058,-1.58716 1.58716,-1.58716 0.87655,0 1.58714,0.71059 1.58714,1.58716 z"
                     style="fill:#ffffff;fill-opacity:1;fill-rule:nonzero;stroke:#000000;stroke-width:0.99628001;stroke-linecap:butt;stroke-linejoin:miter;stroke-miterlimit:10;stroke-dasharray:none;stroke-opacity:1"
                     id="path448"
                     inkscape:connector-curvature="0" /></g></g></g><g
               id="g450"><g
                 id="g452"
                 transform="translate(170.079)"><g
                   id="g454" /><g
                   id="g456"
                   transform="translate(-170.079)" /></g><g
                 id="g458"><g
                   id="g460"><path
                     d="m 171.668,0 c 0,0.87656 -0.71059,1.58714 -1.58714,1.58714 -0.87658,0 -1.58716,-0.71058 -1.58716,-1.58714 0,-0.87656 0.71058,-1.58714 1.58716,-1.58714 0.87655,0 1.58714,0.71058 1.58714,1.58714 z"
                     style="fill:#ffffff;fill-opacity:1;fill-rule:nonzero;stroke:#000000;stroke-width:0.99628001;stroke-linecap:butt;stroke-linejoin:miter;stroke-miterlimit:10;stroke-dasharray:none;stroke-opacity:1"
                     id="path462"
                     inkscape:connector-curvature="0" /></g></g></g><g
               id="g464" /><g
               id="g466" /><g
               id="g468" /><g
               id="g470" /><g
               id="g472" /><g
               id="g474" /><g
               id="g476" /><g
               id="g478" /><g
               id="g480"><g
                 id="g482"
                 transform="matrix(-0.3416,-0.94089,0.94089,-0.3416,173.253,6.463)"><g
                   id="g484" /><g
                   id="g486"
                   transform="translate(-173.253,-6.463)" /></g><g
                 id="g488"><g
                   id="g490"><path
                     d="m 173.8488,8.09654 -1.86696,0.67781 0.42662,-4.64509 3.3073,3.28947 -1.86696,0.67781"
                     style="fill:#000000;fill-opacity:1;fill-rule:nonzero;stroke:#000000;stroke-width:0.99628001;stroke-linecap:butt;stroke-linejoin:miter;stroke-miterlimit:10;stroke-dasharray:none;stroke-opacity:1"
                     id="path492"
                     inkscape:connector-curvature="0" /></g></g></g><g
               id="g494" /><g
               id="g496"><g
                 id="g498"
                 transform="translate(181.737,23.614)"><g
                   id="g500"><g
                     id="g502"
                     transform="translate(-361.203,-35.662)"><text
                       transform="matrix(1,0,0,-1,361.203,35.662)"
                       style="font-variant:normal;font-weight:normal;font-size:17.93280029px;font-family:Arial;-inkscape-font-specification:Arial;writing-mode:lr-tb;fill:#000000;fill-opacity:1;fill-rule:nonzero;stroke:none"
                       id="text506"><tspan
                         x="0"
                         y="0"
                         id="tspan504">v</tspan></text>
<text
                       transform="matrix(1,0,0,-1,369.422,32.972)"
                       style="font-variant:normal;font-weight:normal;font-size:11.9552002px;font-family:Arial;-inkscape-font-specification:Arial;writing-mode:lr-tb;fill:#000000;fill-opacity:1;fill-rule:nonzero;stroke:none"
                       id="text510"><tspan
                         x="0 6.2763796 12.453135"
                         y="0"
                         sodipodi:role="line"
                         id="tspan508">out</tspan></text>
<text
                       transform="matrix(1,0,0,-1,386.906,35.662)"
                       style="font-variant:normal;font-weight:normal;font-size:17.93280029px;font-family:Arial;-inkscape-font-specification:Arial;writing-mode:lr-tb;fill:#000000;fill-opacity:1;fill-rule:nonzero;stroke:none"
                       id="text514"><tspan
                         x="0"
                         y="0"
                         id="tspan512">(</tspan></text>
<text
                       transform="matrix(1,0,0,-1,393.93,35.662)"
                       style="font-variant:normal;font-weight:normal;font-size:17.93280029px;font-family:Arial;-inkscape-font-specification:Arial;writing-mode:lr-tb;fill:#000000;fill-opacity:1;fill-rule:nonzero;stroke:none"
                       id="text518"><tspan
                         x="0"
                         y="0"
                         id="tspan516">t</tspan></text>
<text
                       transform="matrix(1,0,0,-1,402.111,35.662)"
                       style="font-variant:normal;font-weight:normal;font-size:17.93280029px;font-family:Arial;-inkscape-font-specification:Arial;writing-mode:lr-tb;fill:#000000;fill-opacity:1;fill-rule:nonzero;stroke:none"
                       id="text522"><tspan
                         x="0"
                         y="0"
                         id="tspan520">)</tspan></text>
<g
                       id="g524"
                       transform="translate(361.203,35.662)" /></g></g><g
                   id="g526"
                   transform="translate(-181.737,-23.614)" /></g></g></g></g><g
           id="g528"
           transform="translate(253.617,-1.587)"><g
             id="g530"><g
               id="g532"><g
                 id="g534" /><g
                 id="g536" /><g
                 id="g538"><g
                   id="g540" /></g><g
                 id="g542" /><g
                 id="g544" /><g
                 id="g546" /><g
                 id="g548" /><g
                 id="g550"
                 transform="translate(-17.981,-0.498)"><g
                   id="g552"
                   transform="translate(17.981,0.498)"><g
                     id="g554"><g
                       id="g556"><g
                         id="g558"><g
                           id="g560"><g
                             id="g562" /></g><g
                           id="g564"><g
                             id="g566" /></g><path
                           d="M 0,55.29567 H 94.0082"
                           style="fill:none;stroke:#000000;stroke-width:0.99628001;stroke-linecap:butt;stroke-linejoin:miter;stroke-miterlimit:10;stroke-dasharray:none;stroke-opacity:1"
                           id="path568"
                           inkscape:connector-curvature="0" /><g
                           id="g570"
                           transform="translate(94.0082,55.29567)"><g
                             id="g572"><path
                               d="M 2.8892,0 -1.73352,2.31136 0,0 -1.73352,-2.31136"
                               style="fill:#000000;fill-opacity:1;fill-rule:nonzero;stroke:none"
                               id="path574"
                               inkscape:connector-curvature="0" /></g></g><path
                           d="M 0,0 V 74.52473"
                           style="fill:none;stroke:#000000;stroke-width:0.99628001;stroke-linecap:butt;stroke-linejoin:miter;stroke-miterlimit:10;stroke-dasharray:none;stroke-opacity:1"
                           id="path576"
                           inkscape:connector-curvature="0" /><g
                           id="g578"
                           transform="rotate(90,-37.262365,37.262365)"><g
                             id="g580"><path
                               d="M 2.8892,0 -1.73352,2.31136 0,0 -1.73352,-2.31136"
                               style="fill:#000000;fill-opacity:1;fill-rule:nonzero;stroke:none"
                               id="path582"
                               inkscape:connector-curvature="0" /></g></g><g
                           id="g584"><g
                             id="g586"
                             transform="translate(-13.797,49.417)"><g
                               id="g588"><g
                                 id="g590"
                                 transform="translate(-419.286,-59.878)"><text
                                   transform="matrix(1,0,0,-1,419.286,59.878)"
                                   style="font-variant:normal;font-weight:normal;font-size:17.93280029px;font-family:Arial;-inkscape-font-specification:Arial;writing-mode:lr-tb;fill:#000000;fill-opacity:1;fill-rule:nonzero;stroke:none"
                                   id="text594"><tspan
                                   x="0"
                                   y="0"
                                   id="tspan592">0</tspan></text>
<g
                                   id="g596"
                                   transform="translate(419.286,59.878)" /></g></g><g
                               id="g598"
                               transform="translate(13.797,-49.417)" /></g></g><g
                           id="g600"><path
                             d="m 0,55.29567 v 0 0 0 0 10e-6 0 2e-5 0 2e-5 10e-6 l 2e-5,2e-5 1e-5,1e-5 h 2e-5 l 3e-5,2e-5 h 4e-5 6e-5 0.1352 0.13517 0.1352 H 0.54094 0.67613 0.81131 0.9465 1.15726 1.368 l 0.21075,-2e-5 H 1.7895 2.00026 2.21101 2.42175 2.42418 2.77821 l 0.35401,-1e-5 h 0.35403 l 0.35402,-2e-5 h 0.35402 0.35403 l 0.35402,-10e-6 h 0.00241 0.28483 0.2848 l 0.28481,-2e-5 h 0.2848 l 0.28481,-2e-5 h 0.28482 0.2848 l 0.48691,-10e-6 h 0.18169 0.00242 0.00241 l 0.00243,-2e-5 0.00485,-3e-5 0.00727,-9e-5 0.00727,-1.3e-4 0.00727,-1.9e-4 0.00726,-2.4e-4 0.00726,-2.9e-4 0.00728,-3.5e-4 L 7.63,55.29395 7.63727,55.2935 7.7262,55.284 7.81514,55.26701 7.90408,55.24254 7.99301,55.21057 8.08195,55.1711 8.17088,55.12416 8.25984,55.0697 8.44809,54.92911 8.63634,54.75632 8.8246,54.55133 l 0.18826,-0.2372 0.18827,-0.26938 0.18824,-0.30155 0.18827,-0.33379 0.04083,-0.07624 0.04085,-0.07766 0.04083,-0.0791 0.04083,-0.08049 0.04083,-0.08193 0.04084,-0.08334 0.04083,-0.08476 0.00242,-0.0051 0.28966,-0.64894 0.28964,-0.70946 0.28966,-0.77002 0.28966,-0.83052 0.28966,-0.89107 0.28966,-0.9516 0.28966,-1.01213 0.45298,-1.66634 0.29312,-1.14602 0.29311,-1.17377 0.2931,-1.20146 0.29314,-1.22922 0.29311,-1.25694 0.2931,-1.28467 0.29312,-1.31239 0.42878,-1.92092 0.05087,-0.22879 0.05086,-0.22883 0.05089,-0.22884 0.05085,-0.22887 0.05087,-0.22889 0.05088,-0.2289 0.05087,-0.22895 0.1668,-0.75205 0.1668,-0.74811 0.1668,-0.74417 0.16681,-0.74025 0.16681,-0.73628 0.16679,-0.73236 0.16681,-0.72843 0.13635,-0.58951 0.13634,-0.58314 0.13635,-0.57675 0.13634,-0.57038 0.13635,-0.56395 0.13637,-0.55758 0.13633,-0.5512 0.0024,-0.0097 0.35402,-1.40606 0.35402,-1.32733 0.35403,-1.24857 0.35401,-1.16985 0.35402,-1.09108 0.35402,-1.01234 0.35403,-0.93358 0.0024,-0.006 0.35401,-0.82553 0.35404,-0.71339 0.35402,-0.60122 0.35401,-0.48905 0.35404,-0.37687 0.35402,-0.26471 0.354,-0.15257 0.0024,-5.9e-4 0.35402,-0.02312 0.35402,0.09338 0.35402,0.20987 0.35402,0.32641 0.35402,0.44288 0.35402,0.5594 0.35403,0.6759 0.0024,0.005 0.35402,0.79315 0.35404,0.88381 0.35402,0.97444 0.35402,1.06508 0.35401,1.15573 0.35402,1.2464 0.35403,1.33702 0.0024,0.0093 0.30867,1.22299 0.30869,1.25719 0.3087,1.29136 0.30869,1.3256 0.30868,1.3598 0.30869,1.39398 0.30868,1.42821 0.31977,1.48099 0.08271,0.38513 0.08271,0.38542 0.0827,0.38565 0.08272,0.3859 0.0827,0.38613 0.08272,0.38639 0.0827,0.38662 0.14535,0.68006 0.14534,0.67749 0.14535,0.67491 0.14535,0.67236 0.14534,0.66982 0.14535,0.66723 0.14534,0.66469 0.12597,0.57196 0.12595,0.56717 0.12598,0.56233 0.12598,0.55751 0.12596,0.55271 0.12596,0.54786 0.12596,0.54308 0.0024,0.01036 0.29692,1.26338 0.29692,1.21398 0.29692,1.16459 0.29692,1.11517 0.29692,1.0658 0.29693,1.01638 0.29692,0.96698 0.05711,0.17695 0.0571,0.17453 0.0571,0.17214 0.05709,0.16972 0.0571,0.1673 0.0571,0.16488 0.0571,0.16248 0.0024,0.0069 0.11558,0.32132 0.11557,0.31053 0.1156,0.29973 0.11559,0.28891 0.11557,0.27812 0.11558,0.26731 0.1156,0.25651 0.0024,0.0041 0.0024,0.0016 0.0024,1.6e-4 h 0.2374 l 0.2374,-2e-5 h 0.23741 0.23738 l 0.2374,-2e-5 h 0.23741 0.2374 0.0024 0.09934 l 0.09932,-1e-5 h 0.09932 0.0993 0.09934 0.09932 0.09932 0.0024 0.0024 l 0.0024,-2e-5 0.0048,-3e-5 0.0073,-9e-5 0.0073,-1.3e-4 0.0073,-1.9e-4 0.0073,-2.4e-4 0.0073,-2.9e-4 0.0073,-3.5e-4 0.0073,-3.8e-4 0.0073,-4.5e-4 0.08893,-0.0095 0.08894,-0.01699 0.08894,-0.02447 0.08893,-0.03197 0.08895,-0.03947 0.08892,-0.04694 0.08896,-0.05446 0.15572,-0.11366 0.15573,-0.13585 0.15573,-0.15805 0.15572,-0.18025 0.15573,-0.20244 0.15573,-0.22464 0.15573,-0.24686 0.0024,-0.004 0.26404,-0.47165 0.26405,-0.52697 0.26404,-0.58229 0.26403,-0.63757 0.26406,-0.69289 0.26404,-0.74817 0.26405,-0.80349 0.08997,-0.2833 0.08998,-0.28843 0.08998,-0.29361 0.08996,-0.29874 0.08998,-0.30391 0.08999,-0.30905 0.08998,-0.31422 0.0024,-0.0085 0.32358,-1.18297 0.32356,-1.22446 0.32358,-1.26596 0.32354,-1.30746 0.32358,-1.34896 0.32358,-1.39045 0.32356,-1.43197 0.21559,-0.95512 0.11872,-0.52965 0.11869,-0.53055 0.1187,-0.53143 0.1187,-0.53232 0.1187,-0.53318 0.11868,-0.53408 0.1187,-0.53496 0.14052,-0.6332 0.1405,-0.63094 0.14049,-0.62863 0.14052,-0.62633 0.14048,-0.62407 0.14051,-0.62173 0.14052,-0.61948 0.66615,-2.86473 0.35403,-1.48312 0.35401,-1.41423 0.35403,-1.34539 0.35402,-1.27649 0.35402,-1.20762 0.35402,-1.13875 0.35402,-1.06989 0.0024,-0.0069 0.35402,-0.97009 0.35402,-0.86263 0.35404,-0.75518 0.35402,-0.64774 0.35402,-0.54028 0.35401,-0.43283 0.35402,-0.32538 0.0024,-0.0018 0.35402,-0.19769 0.35402,-0.07953 0.35402,0.03865 0.35403,0.15682 0.35402,0.27499 0.35402,0.39316 0.35402,0.51134 0.0024,0.0039 0.35401,0.63383 0.35402,0.73207 0.35403,0.83034 0.35403,0.92859 0.354,1.02684 0.35404,1.12514 0.35401,1.22334 0.0024,0.0086 0.33775,1.24541 0.33776,1.29471 0.33775,1.34398 0.33775,1.3933 0.33778,1.44254 0.33775,1.49187 0.33775,1.54114 0.11629,0.53073 0.15225,0.70067 0.15226,0.70271 0.15229,0.70479 0.15227,0.70685 0.15225,0.70892 0.15228,0.711 0.15227,0.71308 0.07127,0.33311 0.07131,0.33281 0.07127,0.33246 0.0713,0.33213 0.07128,0.33181 0.07129,0.33146 0.0713,0.33115 0.13046,0.60522 0.13046,0.60178 0.13047,0.5983 0.13046,0.59485 0.13048,0.59141 0.13046,0.58797 0.13047,0.58449 0.0024,0.01078 0.31837,1.41579 0.31839,1.36632 0.31838,1.31682 0.31837,1.26734 0.31838,1.21784 0.31837,1.16836 0.31837,1.11889 0.25194,0.82728 0.17546,0.55164 0.17546,0.5278 0.17545,0.50395 0.17546,0.48007 0.17545,0.45626 0.17546,0.4324 0.17544,0.40854 0.0135,0.03026 0.0135,0.03009 0.0135,0.02994 0.01349,0.02978 0.01349,0.02965 0.0135,0.02946 0.0135,0.02933 0.0024,0.0041 0.0024,0.0016 0.0024,1.6e-4 h 0.16403 l 0.16403,-2e-5 h 0.16405 0.16402 0.16403 0.16403 l 0.16405,-2e-5 h 0.0024 0.16646 0.16645 0.16646 l 0.16645,-1e-5 h 0.16645 0.16648 0.16644 0.04361 0.0024 0.0024 l 0.0024,-2e-5 0.0049,-3e-5 0.0073,-9e-5 0.0073,-1.3e-4 0.0073,-1.9e-4 0.0073,-2.4e-4 0.0073,-2.9e-4 0.0073,-3.5e-4 0.0073,-3.8e-4 0.0073,-4.5e-4 0.08893,-0.0095 0.08894,-0.01699 0.08895,-0.02447 0.08893,-0.03197 0.08894,-0.03947 0.08893,-0.04694 0.08894,-0.05446 0.08237,-0.05708 0.08236,-0.06337 0.08236,-0.06968 0.08236,-0.076 0.08237,-0.08227 0.08235,-0.08859 0.08237,-0.09487 0.0024,-0.0029 0.23359,-0.30571 0.23359,-0.35231 0.2336,-0.39892 0.2336,-0.44553 0.23359,-0.49214 0.23358,-0.53876 0.2336,-0.58537 0.12042,-0.31746 0.12044,-0.32793 0.12044,-0.33838 0.12042,-0.34887 0.12042,-0.35933 0.12043,-0.36981 0.12043,-0.38028 0.0024,-0.0077 0.34985,-1.17544 0.34989,-1.23293 0.34987,-1.29042 0.34986,-1.3479 0.34988,-1.4054 0.34986,-1.46286 0.34987,-1.52035 0.03149,-0.1368 0.1803,-0.79048 0.1803,-0.79442 0.1803,-0.79837 0.1803,-0.80227 0.18029,-0.80625 0.1803,-0.81015 0.18031,-0.81409 0.04845,-0.21807 0.04845,-0.21798 0.04844,-0.21791 0.04844,-0.21782 0.04846,-0.21772 0.04844,-0.21765 0.04845,-0.21756 0.12528,-0.56253 0.12527,-0.56009 0.12526,-0.55765 0.12529,-0.55519 0.12527,-0.55277 0.12528,-0.55029 0.12527,-0.54785 0.0024,-0.01053 0.33257,-1.44849 0.33256,-1.39846 0.33257,-1.34852 0.33256,-1.2985 0.33257,-1.24852 0.33255,-1.19855 0.33258,-1.14855 0.15262,-0.49649 0.35402,-1.10325 0.35401,-1.00176 0.35402,-0.90025 0.35402,-0.79872 0.35402,-0.69721 0.35402,-0.5957 0.35404,-0.49419 0.0024,-0.0029 0.35402,-0.36965 0.35403,-0.25118 0.35402,-0.13267 0.35402,-0.01421 0.35403,0.10432 0.35402,0.22279 0.35401,0.3413 0.0024,0.0028 0.35402,0.46763 0.35402,0.57238 0.354,0.67715 0.35403,0.78191 0.35402,0.88665 0.35402,0.99141 0.35404,1.09618 0.0024,0.0077 0.35401,1.19159 0.35404,1.25544 0.35402,1.31932 0.35402,1.38315 0.35402,1.44704 0.35402,1.51089 0.35402,1.57474 0.0024,0.01079 0.2052,0.92357 0.20522,0.93002 0.20521,0.93646 0.2052,0.94294 0.20523,0.9494 0.20522,0.95585 0.20521,0.96231 0.05883,0.27494 0.05883,0.27484 0.05882,0.27473 0.05884,0.27465 0.05884,0.27453 0.05882,0.27446 0.05884,0.27434 0.63225,2.9241 0.308,1.41289 0.30798,1.37563 0.30801,1.33838 0.30799,1.30113 0.308,1.26387 0.30798,1.22662 0.30801,1.18938 0.32459,1.18057 0.21768,0.75836 0.21768,0.72374 0.21767,0.68918 0.21767,0.65457 0.21768,0.62 0.21768,0.58538 0.21767,0.5508 0.04463,0.10759 0.04464,0.10591 0.04465,0.10423 0.04465,0.1026 0.04463,0.10094 0.04465,0.09926 0.04465,0.09761 0.0024,0.0041 0.0024,0.0016 0.0024,1.6e-4 0.6371,-2e-5 h 0.21074 6.7e-4"
                             style="fill:none;stroke:#ff0000;stroke-width:0.99628001;stroke-linecap:butt;stroke-linejoin:miter;stroke-miterlimit:10;stroke-dasharray:none;stroke-opacity:1"
                             id="path602"
                             inkscape:connector-curvature="0" /></g></g><g
                         id="g604"><g
                           id="g606"
                           transform="translate(84.052,59.988)"><g
                             id="g608"><g
                               id="g610"
                               transform="translate(-517.135,-70.449)"><text
                                 transform="matrix(1,0,0,-1,517.135,70.449)"
                                 style="font-variant:normal;font-weight:normal;font-size:17.93280029px;font-family:Arial;-inkscape-font-specification:Arial;writing-mode:lr-tb;fill:#000000;fill-opacity:1;fill-rule:nonzero;stroke:none"
                                 id="text614"><tspan
                                   x="0"
                                   y="0"
                                   id="tspan612">t</tspan></text>
<g
                                 id="g616"
                                 transform="translate(517.135,70.449)" /></g></g><g
                             id="g618"
                             transform="translate(-84.052,-59.988)" /></g></g><g
                         id="g620"><g
                           id="g622"
                           transform="translate(4.682,64.277)"><g
                             id="g624"><g
                               id="g626"
                               transform="translate(-437.765,-74.738)"><text
                                 transform="matrix(1,0,0,-1,437.765,74.738)"
                                 style="font-variant:normal;font-weight:normal;font-size:17.93280029px;font-family:Arial;-inkscape-font-specification:Arial;writing-mode:lr-tb;fill:#000000;fill-opacity:1;fill-rule:nonzero;stroke:none"
                                 id="text630"><tspan
                                   x="0"
                                   y="0"
                                   id="tspan628">v</tspan></text>
<text
                                 transform="matrix(1,0,0,-1,445.984,72.049)"
                                 style="font-variant:normal;font-weight:normal;font-size:11.9552002px;font-family:Arial;-inkscape-font-specification:Arial;writing-mode:lr-tb;fill:#000000;fill-opacity:1;fill-rule:nonzero;stroke:none"
                                 id="text634"><tspan
                                   x="0 6.2763796 12.453135"
                                   y="0"
                                   sodipodi:role="line"
                                   id="tspan632">out</tspan></text>
<g
                                 id="g636"
                                 transform="translate(437.765,74.738)" /></g></g><g
                             id="g638"
                             transform="translate(-4.682,-64.277)" /></g></g></g></g><g
                     id="g640"
                     transform="translate(-17.981,-0.498)" /></g><g
                   id="g642"
                   transform="translate(17.981,0.498)" /></g><g
                 id="g644" /><g
                 id="g646" /></g></g></g></g></g></g></svg>