<?xml version="1.0" encoding="UTF-8" standalone="no"?>
<svg
   xmlns:dc="http://purl.org/dc/elements/1.1/"
   xmlns:cc="http://web.resource.org/cc/"
   xmlns:rdf="http://www.w3.org/1999/02/22-rdf-syntax-ns#"
   xmlns:svg="http://www.w3.org/2000/svg"
   xmlns="http://www.w3.org/2000/svg"
   xmlns:sodipodi="http://inkscape.sourceforge.net/DTD/sodipodi-0.dtd"
   xmlns:inkscape="http://www.inkscape.org/namespaces/inkscape"
   width="11cm"
   height="9cm"
   viewBox="2 -1 11 9"
   id="svg2"
   sodipodi:version="0.32"
   inkscape:version="0.43"
   sodipodi:docname="Zener diode voltage regulator2.svg"
   sodipodi:docbase="C:\">
  <metadata
     id="metadata67">
    <rdf:RDF>
      <cc:Work
         rdf:about="">
        <dc:format>image/svg+xml</dc:format>
        <dc:type
           rdf:resource="http://purl.org/dc/dcmitype/StillImage" />
      </cc:Work>
    </rdf:RDF>
  </metadata>
  <defs
     id="defs65" />
  <sodipodi:namedview
     inkscape:window-height="746"
     inkscape:window-width="1024"
     inkscape:pageshadow="2"
     inkscape:pageopacity="0.0"
     borderopacity="1.0"
     bordercolor="#666666"
     pagecolor="#ffffff"
     id="base"
     inkscape:zoom="1.1665185"
     inkscape:cx="194.8819"
     inkscape:cy="159.44882"
     inkscape:window-x="-4"
     inkscape:window-y="-4"
     inkscape:current-layer="svg2" />
  <line
     style="fill:none;fill-opacity:0;stroke:#000000;stroke-width:0.1"
     x1="2.9900675"
     y1="0.89102328"
     x2="11.890078"
     y2="0.89102328"
     id="line4" />
  <path
     style="fill:#ffffff"
     d="M 2.4900674,0.89102323 C 2.4900674,0.76602323 2.6150674,0.64102323 2.7400674,0.64102323 C 2.8650674,0.64102323 2.9900674,0.76602323 2.9900674,0.89102323 C 2.9900674,1.0160232 2.8650674,1.1410232 2.7400674,1.1410232 C 2.6150674,1.1410232 2.4900674,1.0160232 2.4900674,0.89102323 z "
     id="path6" />
  <path
     style="fill:none;fill-opacity:0;stroke:#000000;stroke-width:0.1"
     d="M 2.4900674,0.89102323 C 2.4900674,0.76602323 2.6150674,0.64102323 2.7400674,0.64102323 C 2.8650674,0.64102323 2.9900674,0.76602323 2.9900674,0.89102323 C 2.9900674,1.0160232 2.8650674,1.1410232 2.7400674,1.1410232 C 2.6150674,1.1410232 2.4900674,1.0160232 2.4900674,0.89102323"
     id="path8" />
  <path
     style="fill:#ffffff"
     d="M 12.390077,0.89102323 C 12.390077,1.0160232 12.265077,1.1410232 12.140077,1.1410232 C 12.015077,1.1410232 11.890077,1.0160232 11.890077,0.89102323 C 11.890077,0.76602323 12.015077,0.64102323 12.140077,0.64102323 C 12.265077,0.64102323 12.390077,0.76602323 12.390077,0.89102323 z "
     id="path10" />
  <path
     style="fill:none;fill-opacity:0;stroke:#000000;stroke-width:0.1"
     d="M 12.390077,0.89102323 C 12.390077,1.0160232 12.265077,1.1410232 12.140077,1.1410232 C 12.015077,1.1410232 11.890077,1.0160232 11.890077,0.89102323 C 11.890077,0.76602323 12.015077,0.64102323 12.140077,0.64102323 C 12.265077,0.64102323 12.390077,0.76602323 12.390077,0.89102323"
     id="path12" />
  <line
     style="fill:none;fill-opacity:0;stroke:#000000;stroke-width:0.1"
     x1="3.1460774"
     y1="6.648613"
     x2="12.046078"
     y2="6.648613"
     id="line14" />
  <path
     style="fill:#ffffff"
     d="M 2.6460774,6.6486132 C 2.6460774,6.5236132 2.7710774,6.3986132 2.8960774,6.3986132 C 3.0210774,6.3986132 3.1460774,6.5236132 3.1460774,6.6486132 C 3.1460774,6.7736132 3.0210774,6.8986132 2.8960774,6.8986132 C 2.7710774,6.8986132 2.6460774,6.7736132 2.6460774,6.6486132 z "
     id="path16" />
  <path
     style="fill:none;fill-opacity:0;stroke:#000000;stroke-width:0.1"
     d="M 2.6460774,6.6486132 C 2.6460774,6.5236132 2.7710774,6.3986132 2.8960774,6.3986132 C 3.0210774,6.3986132 3.1460774,6.5236132 3.1460774,6.6486132 C 3.1460774,6.7736132 3.0210774,6.8986132 2.8960774,6.8986132 C 2.7710774,6.8986132 2.6460774,6.7736132 2.6460774,6.6486132"
     id="path18" />
  <path
     style="fill:#ffffff"
     d="M 12.546077,6.6486132 C 12.546077,6.7736132 12.421077,6.8986132 12.296077,6.8986132 C 12.171077,6.8986132 12.046077,6.7736132 12.046077,6.6486132 C 12.046077,6.5236132 12.171077,6.3986132 12.296077,6.3986132 C 12.421077,6.3986132 12.546077,6.5236132 12.546077,6.6486132 z "
     id="path20" />
  <path
     style="fill:none;fill-opacity:0;stroke:#000000;stroke-width:0.1"
     d="M 12.546077,6.6486132 C 12.546077,6.7736132 12.421077,6.8986132 12.296077,6.8986132 C 12.171077,6.8986132 12.046077,6.7736132 12.046077,6.6486132 C 12.046077,6.5236132 12.171077,6.3986132 12.296077,6.3986132 C 12.421077,6.3986132 12.546077,6.5236132 12.546077,6.6486132"
     id="path22" />
  <path
     style="font-size:1px;font-style:normal;font-weight:normal;text-anchor:start;fill:#000000;font-family:arial"
     d="M 5.2838907,0.29394329 L 5.2838907,-0.42187703 L 5.6012735,-0.42187703 C 5.6650752,-0.42187631 5.7135777,-0.4153659 5.7467813,-0.40234578 C 5.7799839,-0.38964978 5.8065138,-0.36702611 5.8263712,-0.33447468 C 5.8462273,-0.301922 5.8561557,-0.26595199 5.8561563,-0.22656453 C 5.8561557,-0.17578281 5.8397169,-0.13297686 5.8068399,-0.098146558 C 5.7739618,-0.063315471 5.7231806,-0.041180077 5.6544962,-0.031740308 C 5.6795608,-0.019695723 5.6986038,-0.0078142248 5.7116251,0.0039042234 C 5.7392938,0.029295113 5.7654982,0.061033363 5.7902384,0.099119067 L 5.9147501,0.29394329 L 5.7956095,0.29394329 L 5.7008829,0.1450175 C 5.6732132,0.10204895 5.6504267,0.069171375 5.6325235,0.046384692 C 5.6146195,0.023598504 5.5985062,0.0076479993 5.5841837,-0.0014668703 C 5.5701859,-0.010581149 5.555863,-0.016928799 5.5412149,-0.020509839 C 5.5304724,-0.022788168 5.5128943,-0.02392749 5.4884806,-0.023927808 L 5.3786173,-0.023927808 L 5.3786173,0.29394329 L 5.2838907,0.29394329 M 5.3786173,-0.10595906 L 5.5822306,-0.10595906 C 5.6255244,-0.10595866 5.6593786,-0.11035318 5.6837931,-0.11914265 C 5.7082066,-0.12825681 5.7267613,-0.14257972 5.7394571,-0.1621114 C 5.7521519,-0.1819677 5.7584995,-0.20345205 5.7585001,-0.22656453 C 5.7584995,-0.26041814 5.7461298,-0.28825014 5.7213907,-0.31006062 C 5.6969762,-0.33186989 5.6582392,-0.34277483 5.6051798,-0.34277546 L 5.3786173,-0.34277546 L 5.3786173,-0.10595906"
     id="text24" />
  <line
     style="fill:none;fill-opacity:0;stroke:#000000;stroke-width:0.1"
     x1="8.1999474"
     y1="1.6291832"
     x2="8.1999474"
     y2="2.9761629"
     id="line26" />
  <polygon
     style="fill:#000000"
     points="7.57861,4.11326 9.40193,4.11326 9.62984,4.51736 9.40193,4.18061 7.57861,4.18061 7.35069,3.77652 7.57861,4.11326 "
     id="polygon28"
     transform="translate(-0.290323,-1.137097)" />
  <polygon
     style="fill:none;fill-opacity:0;stroke:#000000;stroke-width:0.1"
     points="7.57861,4.11326 9.40193,4.11326 9.62984,4.51736 9.40193,4.18061 7.57861,4.18061 7.35069,3.77652 7.57861,4.11326 "
     id="polygon30"
     transform="translate(-0.290323,-1.137097)" />
  <polygon
     style="fill:#ffffff"
     points="8.49027,4.18061 7.35069,5.35923 9.62984,5.35923 8.49027,4.18061 "
     id="polygon32"
     transform="translate(-0.290323,-1.137097)" />
  <polygon
     style="fill:none;fill-opacity:0;stroke:#000000;stroke-width:0.1"
     points="8.49027,4.18061 7.35069,5.35923 9.62984,5.35923 8.49027,4.18061 "
     id="polygon34"
     transform="translate(-0.290323,-1.137097)" />
  <line
     style="fill:none;fill-opacity:0;stroke:#000000;stroke-width:0.1"
     x1="8.1999474"
     y1="4.2221332"
     x2="8.1999474"
     y2="5.5691133"
     id="line36" />
  <polyline
     style="fill:none;fill-opacity:0;stroke:#000000;stroke-width:0.1"
     points="6.8864,7.78571 6.8864,7.78395 8.49027,7.78395 8.49027,6.70621 "
     id="polyline38"
     transform="translate(-0.290323,-1.137097)" />
  <polyline
     style="fill:none;fill-opacity:0;stroke:#000000;stroke-width:0.1"
     points="8.49027,2.76628 8.49027,2.02343 8.7304,2.02343 8.7304,2.02812 "
     id="polyline40"
     transform="translate(-0.290323,-1.137097)" />
  <rect
     style="fill:#ffffff"
     x="4.3662271"
     y="0.50109327"
     width="2.0999999"
     height="0.78571397"
     id="rect42" />
  <rect
     style="fill:none;fill-opacity:0;stroke:#000000;stroke-width:0.1"
     x="4.3662271"
     y="0.50109327"
     width="2.0999999"
     height="0.78571397"
     id="rect44" />
  <path
     style="font-size:1px;font-style:normal;font-weight:normal;text-anchor:start;fill:#000000;font-family:arial"
     d="M 7.3017459,5.195713 L 7.3017459,4.4798927 L 7.5483279,4.4798927 C 7.6039916,4.4798934 7.646472,4.4833114 7.6757693,4.4901466 C 7.7167845,4.4995874 7.7517779,4.5166773 7.7807498,4.5414162 C 7.8185096,4.5733178 7.8466671,4.6141707 7.8652225,4.6639748 C 7.884102,4.7134544 7.8935421,4.770095 7.8935428,4.8338966 C 7.8935421,4.8882589 7.8871944,4.936436 7.8744998,4.9784279 C 7.8618038,5.0204202 7.8455278,5.0552509 7.8256717,5.0829201 C 7.8058143,5.1102639 7.7840044,5.131911 7.760242,5.1478615 C 7.736804,5.1634865 7.7083209,5.175368 7.6747928,5.183506 C 7.6415892,5.191644 7.6033406,5.195713 7.5600467,5.195713 L 7.3017459,5.195713 M 7.3964725,5.1112404 L 7.5493045,5.1112404 C 7.5965046,5.1112405 7.6334512,5.1068459 7.6601443,5.0980568 C 7.6871621,5.0892678 7.7086464,5.0768981 7.7245975,5.0609474 C 7.7470579,5.0384866 7.7644732,5.008376 7.7768435,4.9706154 C 7.7895383,4.9325297 7.7958859,4.8864686 7.7958865,4.8324318 C 7.7958859,4.7575624 7.7835162,4.7001081 7.7587771,4.6600685 C 7.7343626,4.6197045 7.7045774,4.5926863 7.6694217,4.5790138 C 7.6440306,4.5692488 7.6031778,4.564366 7.5468631,4.5643654 L 7.3964725,4.5643654 L 7.3964725,5.1112404"
     id="text46" />
  <path
     style="font-size:1px;font-style:normal;font-weight:normal;text-anchor:start;fill:#ff0000;font-family:arial"
     d="M 4.2906625,3.1592426 L 4.3853891,3.1592426 L 4.3853891,3.5728168 C 4.3853884,3.6447572 4.3772504,3.701886 4.360975,3.7442036 C 4.3446984,3.7865214 4.3152388,3.8210265 4.2725961,3.8477192 C 4.2302779,3.8740864 4.1746139,3.88727 4.1056039,3.88727 C 4.0385463,3.88727 3.9836961,3.875714 3.9410532,3.852602 C 3.8984098,3.8294901 3.8679736,3.7961242 3.8497446,3.7525043 C 3.8315153,3.7085592 3.8224007,3.6486634 3.8224008,3.5728168 L 3.8224008,3.1592426 L 3.9171274,3.1592426 L 3.9171274,3.5723286 C 3.9171272,3.6345033 3.9228238,3.6804017 3.9342172,3.7100239 C 3.9459358,3.7393209 3.9657925,3.7619446 3.9937875,3.777895 C 4.0221076,3.7938456 4.0566127,3.8018208 4.0973032,3.8018208 C 4.1669642,3.8018208 4.2166061,3.7860331 4.2462289,3.7544575 C 4.2758508,3.7228821 4.290662,3.6621725 4.2906625,3.5723286 L 4.2906625,3.1592426"
     id="text48" />
  <path
     style="font-size:0.60000002px;font-style:normal;font-weight:normal;text-anchor:start;fill:#ff0000;font-family:arial"
     d="M 4.4632551,4.2252903 L 4.4632551,3.7957981 L 4.5200911,3.7957981 L 4.5200911,4.2252903 L 4.4632551,4.2252903 M 4.6194075,4.2252903 L 4.6194075,3.7957981 L 4.6777083,3.7957981 L 4.9032942,4.1330051 L 4.9032942,3.7957981 L 4.9577864,3.7957981 L 4.9577864,4.2252903 L 4.8994856,4.2252903 L 4.6738997,3.8877903 L 4.6738997,4.2252903 L 4.6194075,4.2252903"
     id="text50" />
  <path
     style="font-size:0.80000001px;font-style:normal;font-weight:normal;text-anchor:start;fill:#0000ff;font-family:arial"
     d="M 10.544377,3.3406271 L 10.620159,3.3406271 L 10.620159,3.6714865 C 10.620158,3.7290387 10.613648,3.7747418 10.600627,3.8085958 C 10.587606,3.8424501 10.564038,3.8700542 10.529924,3.8914083 C 10.49607,3.9125021 10.451538,3.923049 10.39633,3.923049 C 10.342684,3.923049 10.298804,3.9138042 10.26469,3.8953146 C 10.230575,3.8768251 10.206226,3.8501324 10.191643,3.8152365 C 10.17706,3.7800804 10.169768,3.7321637 10.169768,3.6714865 L 10.169768,3.3406271 L 10.245549,3.3406271 L 10.245549,3.6710958 C 10.245549,3.7208356 10.250106,3.7575543 10.259221,3.7812521 C 10.268596,3.8046897 10.284481,3.8227886 10.306877,3.835549 C 10.329533,3.8483095 10.357137,3.8546897 10.38969,3.8546896 C 10.445419,3.8546897 10.485132,3.8420595 10.50883,3.816799 C 10.532528,3.7915387 10.544377,3.742971 10.544377,3.6710958 L 10.544377,3.3406271"
     id="text52" />
  <path
     style="font-size:0.60000002px;font-style:normal;font-weight:normal;text-anchor:start;fill:#0000ff;font-family:arial"
     d="M 10.730582,3.9170434 C 10.730582,3.8457546 10.749723,3.7899929 10.788004,3.7497582 C 10.826285,3.709329 10.875699,3.6891141 10.936246,3.6891137 C 10.975894,3.6891141 11.011636,3.6985868 11.043473,3.7175317 C 11.075308,3.7364774 11.099527,3.7629422 11.116129,3.7969262 C 11.132925,3.8307156 11.141324,3.8690944 11.141324,3.9120629 C 11.141324,3.9556178 11.132535,3.9945826 11.114957,4.0289575 C 11.097379,4.0633325 11.072476,4.0894067 11.04025,4.1071801 C 11.008023,4.1247582 10.973258,4.1335473 10.935953,4.1335473 C 10.895523,4.1335473 10.85939,4.1237817 10.827555,4.1042504 C 10.795719,4.0847192 10.771598,4.0580591 10.755191,4.02427 C 10.738785,3.990481 10.730582,3.9547389 10.730582,3.9170434 M 10.789176,3.9179223 C 10.789176,3.9696803 10.803043,4.0105005 10.830777,4.0403832 C 10.858707,4.0700708 10.893668,4.0849145 10.93566,4.0849145 C 10.978433,4.0849145 11.01359,4.0698755 11.041129,4.0397973 C 11.068863,4.0097193 11.08273,3.9670436 11.08273,3.91177 C 11.08273,3.8768093 11.076773,3.8463405 11.064859,3.8203637 C 11.05314,3.7941922 11.035855,3.7739773 11.013004,3.7597192 C 10.990347,3.7452664 10.964859,3.7380399 10.936539,3.7380395 C 10.896305,3.7380399 10.861637,3.751907 10.832535,3.779641 C 10.803629,3.8071804 10.789176,3.8532741 10.789176,3.9179223 M 11.496109,3.6967309 L 11.552945,3.6967309 L 11.552945,3.9448754 C 11.552945,3.9880396 11.548062,4.0223169 11.538297,4.0477075 C 11.528531,4.0730981 11.510855,4.0938012 11.48527,4.1098168 C 11.459879,4.1256372 11.42648,4.1335473 11.385074,4.1335473 C 11.34484,4.1335473 11.31193,4.1266137 11.286344,4.1127465 C 11.260758,4.0988794 11.242496,4.0788599 11.231559,4.0526879 C 11.220621,4.0263208 11.215152,3.9903834 11.215152,3.9448754 L 11.215152,3.6967309 L 11.271988,3.6967309 L 11.271988,3.9445825 C 11.271988,3.9818873 11.275406,4.0094263 11.282242,4.0271996 C 11.289273,4.0447779 11.301187,4.0583521 11.317984,4.0679223 C 11.334976,4.0774927 11.35568,4.0822778 11.380094,4.0822778 C 11.42189,4.0822778 11.451676,4.0728052 11.469449,4.0538598 C 11.487222,4.0349146 11.496109,3.9984888 11.496109,3.9445825 L 11.496109,3.6967309 M 11.757145,4.1262231 L 11.757145,3.7474145 L 11.615641,3.7474145 L 11.615641,3.6967309 L 11.95607,3.6967309 L 11.95607,3.7474145 L 11.813981,3.7474145 L 11.813981,4.1262231 L 11.757145,4.1262231"
     id="text54" />
  <path
     style="fill:none;fill-opacity:0;stroke:#ff0000;stroke-width:0.05"
     d="M 2.8125774,1.9108932 C 4.1370374,3.7356932 2.7572274,5.9135432 2.7623574,5.9135432"
     id="path56" />
  <polyline
     style="fill:none;fill-opacity:0;stroke:#ff0000;stroke-width:0.05"
     points="3.56609,3.26055 3.07007,3.00275 3.16144,3.55425 "
     id="polyline58"
     transform="translate(-0.290323,-1.137097)" />
  <path
     style="fill:none;fill-opacity:0;stroke:#0000ff;stroke-width:0.05"
     d="M 11.564977,1.8896432 C 12.889377,3.7144432 11.509577,5.8923032 11.514677,5.8923032"
     id="path60" />
  <polyline
     style="fill:none;fill-opacity:0;stroke:#0000ff;stroke-width:0.05"
     points="12.3185,3.23931 11.8224,2.9815 11.9138,3.533 "
     id="polyline62"
     transform="translate(-0.290323,-1.137097)" />
</svg>
