<?xml version="1.0" encoding="UTF-8" standalone="no"?>
<!-- Created with Inkscape (http://www.inkscape.org/) -->
<svg
   xmlns:svg="http://www.w3.org/2000/svg"
   xmlns="http://www.w3.org/2000/svg"
   xmlns:xlink="http://www.w3.org/1999/xlink"
   version="1.0"
   width="760"
   height="170"
   id="svg2">
  <defs
     id="defs4" />
  <path
     d="M 622.428,101.316 C 626.268,94.785 630.105,88.261 634.016,82.806 C 637.182,78.391 640.369,74.714 643.645,72.262 C 646.519,70.111 649.385,68.96 652.314,68.96 C 655.243,68.96 658.109,70.111 660.983,72.262 C 664.259,74.714 667.446,78.39 670.611,82.805 C 674.522,88.259 678.359,94.785 682.2,101.316 M 84.8277,101.316 C 88.6677,107.847 92.5047,114.371 96.4157,119.826 C 99.5817,124.241 102.769,127.918 106.045,130.37 C 108.919,132.521 111.785,133.672 114.714,133.672 C 117.643,133.672 120.509,132.521 123.383,130.37 C 126.659,127.918 129.846,124.242 133.011,119.827 C 136.922,114.373 140.759,107.847 144.6,101.316"
     id="path6778"
     style="fill:#06fd24;fill-opacity:1;stroke:#000000;stroke-width:2;stroke-linecap:butt;stroke-miterlimit:4;stroke-dasharray:none" />
  <g
     transform="translate(-22.5723,-231.046)"
     id="g6771">
    <path
       d="M 47.6142,332.348 C 51.4544,325.817 55.2913,319.293 59.202,313.838 C 62.3675,309.423 65.5554,305.746 68.8313,303.294 C 71.7052,301.143 74.5712,299.992 77.5,299.992 C 80.4288,299.992 83.2952,301.143 86.1694,303.294 C 89.4448,305.746 92.632,309.422 95.7969,313.837 C 99.7081,319.291 103.545,325.817 107.386,332.348 M 167.2,332.362 C 171.04,325.831 174.877,319.307 178.788,313.852 C 181.954,309.437 185.141,305.76 188.417,303.308 C 191.291,301.157 194.157,300.006 197.086,300.006 C 200.015,300.006 202.881,301.157 205.755,303.308 C 209.031,305.76 212.218,309.436 215.383,313.851 C 219.294,319.305 223.131,325.831 226.972,332.362"
       id="sine-curve"
       style="fill:#06fd24;fill-opacity:1;stroke:#000000;stroke-width:2;stroke-linecap:butt;stroke-miterlimit:4;stroke-dasharray:none" />
    <path
       d="M 32.5,332.362 L 240.5,332.362 M 47.5,347.362 L 47.5,267.362 M 42.5,275.862 L 47.5,265.862 L 52.5,275.862 M 231.8,327.362 L 241.8,332.362 L 231.8,337.362"
       id="path3274"
       style="fill:none;fill-rule:evenodd;stroke:#000000;stroke-width:1.5;stroke-linecap:butt;stroke-linejoin:miter;stroke-miterlimit:4;stroke-dasharray:none;stroke-opacity:1" />
    <path
       d="M 35.9375,258.046 L 37.832,258.046 L 37.832,266.317 C 37.832,267.756 37.6693,268.899 37.3438,269.745 C 37.0182,270.591 36.4307,271.28 35.5811,271.81 C 34.7314,272.341 33.6165,272.606 32.2363,272.606 C 30.8952,272.606 29.7982,272.375 28.9453,271.913 C 28.0924,271.451 27.4837,270.782 27.1191,269.906 C 26.7546,269.03 26.5723,267.834 26.5723,266.317 L 26.5723,258.046 L 28.4668,258.046 L 28.4668,266.307 C 28.4668,267.551 28.5824,268.467 28.8135,269.057 C 29.0446,269.646 29.4417,270.1 30.0049,270.419 C 30.568,270.738 31.2565,270.897 32.0703,270.897 C 33.4635,270.897 34.4564,270.582 35.0488,269.95 C 35.6413,269.319 35.9375,268.104 35.9375,266.307 L 35.9375,258.046 z M 240.156,353.29 L 240.41,354.843 C 239.915,354.947 239.473,354.999 239.082,354.999 C 238.444,354.999 237.949,354.898 237.598,354.696 C 237.246,354.494 236.999,354.229 236.855,353.9 C 236.712,353.571 236.641,352.88 236.641,351.825 L 236.641,345.858 L 235.352,345.858 L 235.352,344.491 L 236.641,344.491 L 236.641,341.923 L 238.389,340.868 L 238.389,344.491 L 240.156,344.491 L 240.156,345.858 L 238.389,345.858 L 238.389,351.923 C 238.389,352.424 238.42,352.746 238.481,352.89 C 238.543,353.033 238.644,353.147 238.784,353.231 C 238.924,353.316 239.124,353.358 239.385,353.358 C 239.58,353.358 239.837,353.335 240.156,353.29 L 240.156,353.29 z"
       id="text4060"
       style="font-size:20px;font-style:normal;font-weight:bold;fill:#000000;fill-opacity:1;stroke:none;stroke-width:1px;stroke-linecap:butt;stroke-linejoin:miter;stroke-opacity:1;font-family:Bitstream Vera Sans" />
  </g>
  <path
     d="M 308.906,50.457 L 308.688,121.316"
     id="path3914"
     style="fill:none;fill-opacity:0.75;fill-rule:evenodd;stroke:#000000;stroke-width:5.200002;stroke-linecap:butt;stroke-linejoin:miter;stroke-miterlimit:4;stroke-dasharray:none;stroke-dashoffset:0;stroke-opacity:1;display:inline" />
  <path
     d="M 287.428,128.816 L 287.428,121.316 C 303.827,121.274 303.827,107.122 287.428,107.143 C 303.827,107.122 303.769,92.928 287.428,92.97 C 303.885,92.969 303.885,78.754 287.428,78.796 C 303.769,78.797 303.827,64.665 287.428,64.644 C 303.827,64.581 287.428,64.623 287.428,64.623 C 303.827,64.581 303.827,50.45 287.428,50.45 L 287.428,41.316 M 329.928,128.816 L 329.948,121.316 C 313.549,121.274 313.549,107.122 329.948,107.143 C 313.549,107.122 313.607,92.928 329.948,92.97 C 313.49,92.969 313.49,78.754 329.948,78.796 C 313.607,78.797 313.549,64.665 329.948,64.644 C 313.549,64.581 329.948,64.623 329.948,64.623 C 313.549,64.581 313.549,50.45 329.948,50.45 L 329.928,41.316 M 364.428,41.316 L 385.687,41.316 M 403.187,41.316 L 464.928,41.316 M 403.187,41.316 L 385.687,51.316 L 385.687,31.316 L 403.187,41.316 z M 403.187,31.316 L 403.187,51.316 M 497.428,41.316 L 497.428,67.347 M 497.428,102.78 L 497.428,128.816 M 504.515,67.347 L 504.515,102.78 L 490.342,102.78 L 490.342,67.347 L 504.515,67.347 z M 287.428,41.316 L 264.928,41.316 M 255.855,45.172 C 257.96,47.277 261.397,47.258 263.527,45.129 C 265.656,43 265.675,39.563 263.569,37.457 C 261.463,35.352 258.026,35.37 255.897,37.5 C 253.768,39.629 253.749,43.066 255.855,45.172 z M 287.428,128.816 L 264.928,128.816 M 255.855,132.672 C 257.96,134.777 261.397,134.758 263.527,132.629 C 265.656,130.5 265.675,127.063 263.569,124.957 C 261.463,122.852 258.026,122.87 255.897,125 C 253.768,127.129 253.749,130.566 255.855,132.672 z M 329.928,41.316 L 352.428,41.316 M 361.501,45.172 C 359.396,47.277 355.959,47.258 353.829,45.129 C 351.7,43 351.681,39.563 353.787,37.457 C 355.893,35.352 359.33,35.37 361.459,37.5 C 363.588,39.629 363.607,43.066 361.501,45.172 z M 329.928,128.816 L 352.428,128.816 M 361.501,132.672 C 359.396,134.777 355.959,134.758 353.829,132.629 C 351.7,130.5 351.681,127.063 353.787,124.957 C 355.893,122.852 359.33,122.87 361.459,125 C 363.588,127.129 363.607,130.566 361.501,132.672 z M 497.428,41.316 L 476.568,41.316 M 467.495,45.172 C 469.6,47.277 473.037,47.258 475.167,45.129 C 477.296,43 477.315,39.563 475.209,37.457 C 473.103,35.352 469.666,35.37 467.537,37.5 C 465.408,39.629 465.389,43.066 467.495,45.172 z M 497.428,128.816 L 476.568,128.816 M 467.495,132.672 C 469.6,134.777 473.037,134.758 475.167,132.629 C 477.296,130.5 477.315,127.063 475.209,124.957 C 473.103,122.852 469.666,122.87 467.537,125 C 465.408,127.129 465.389,130.566 467.495,132.672 z M 364.428,86.316 L 449.928,86.316 M 317.428,86.316 L 352.428,86.316 M 361.501,90.172 C 359.396,92.277 355.959,92.258 353.829,90.129 C 351.7,88 351.681,84.563 353.787,82.457 C 355.893,80.352 359.33,80.37 361.459,82.5 C 363.588,84.629 363.607,88.066 361.501,90.172 z M 364.428,128.816 L 385.687,128.816 M 403.187,128.816 L 422.428,128.816 M 403.187,128.816 L 385.687,138.816 L 385.687,118.816 L 403.187,128.816 z M 403.187,118.816 L 403.187,138.816 M 422.428,128.816 L 422.428,41.316 M 449.928,128.816 L 449.928,86.316 M 464.928,128.816 L 449.928,128.816"
     id="path3926"
     style="fill:none;fill-opacity:0.75;fill-rule:evenodd;stroke:#000000;stroke-width:2;stroke-linecap:square;stroke-linejoin:round;stroke-miterlimit:4;stroke-dasharray:none;stroke-opacity:1;display:inline" />
  <path
     d="M 514,91.316 L 514,77 L 520.348,77 C 521.624,77 522.594,77.128 523.258,77.386 C 523.922,77.643 524.453,78.097 524.85,78.748 C 525.247,79.399 525.446,80.118 525.446,80.906 C 525.446,81.922 525.117,82.778 524.459,83.474 C 523.802,84.171 522.786,84.614 521.412,84.803 C 521.914,85.043 522.295,85.281 522.555,85.515 C 523.108,86.023 523.632,86.658 524.127,87.42 L 526.617,91.316 L 524.235,91.316 L 522.34,88.338 C 521.787,87.478 521.331,86.821 520.973,86.365 C 520.615,85.909 520.294,85.59 520.011,85.408 C 519.728,85.226 519.44,85.099 519.147,85.027 C 518.932,84.982 518.58,84.959 518.092,84.959 L 515.895,84.959 L 515.895,91.316 L 514,91.316 z M 515.895,83.318 L 519.967,83.318 C 520.833,83.318 521.51,83.229 521.998,83.05 C 522.487,82.871 522.858,82.584 523.112,82.19 C 523.365,81.796 523.492,81.368 523.492,80.906 C 523.492,80.229 523.247,79.672 522.755,79.236 C 522.264,78.8 521.487,78.582 520.426,78.582 L 515.895,78.582 L 515.895,83.318 z M 385.971,20.316 L 385.971,6 L 390.903,6 C 392.016,6 392.865,6.068 393.451,6.205 C 394.272,6.394 394.972,6.735 395.551,7.23 C 396.306,7.868 396.871,8.684 397.245,9.677 C 397.62,10.669 397.807,11.804 397.807,13.08 C 397.807,14.167 397.68,15.131 397.426,15.97 C 397.172,16.81 396.847,17.505 396.449,18.055 C 396.052,18.606 395.618,19.039 395.146,19.354 C 394.674,19.67 394.104,19.909 393.437,20.072 C 392.769,20.235 392.003,20.316 391.137,20.316 L 385.971,20.316 z M 387.866,18.627 L 390.922,18.627 C 391.866,18.627 392.607,18.539 393.144,18.363 C 393.681,18.187 394.109,17.94 394.428,17.621 C 394.877,17.172 395.227,16.568 395.478,15.809 C 395.728,15.051 395.854,14.131 395.854,13.051 C 395.854,11.553 395.608,10.402 395.116,9.598 C 394.625,8.794 394.028,8.256 393.324,7.982 C 392.817,7.787 392,7.689 390.873,7.689 L 387.866,7.689 L 387.866,18.627 z M 426.178,41.316 C 426.178,43.386 424.498,45.066 422.428,45.066 C 420.358,45.066 418.678,43.386 418.678,41.316 C 418.678,39.246 420.358,37.566 422.428,37.566 C 424.498,37.566 426.178,39.246 426.178,41.316 z M 405.389,25.316 L 403.983,25.316 L 403.983,16.355 C 403.644,16.678 403.2,17.001 402.651,17.324 C 402.101,17.647 401.608,17.889 401.17,18.051 L 401.17,16.691 C 401.957,16.321 402.644,15.873 403.233,15.347 C 403.821,14.821 404.238,14.311 404.483,13.816 L 405.389,13.816 L 405.389,25.316 z M 383.971,161.316 L 383.971,147 L 388.903,147 C 390.016,147 390.865,147.068 391.451,147.205 C 392.272,147.394 392.972,147.735 393.551,148.23 C 394.306,148.868 394.871,149.684 395.245,150.677 C 395.62,151.669 395.807,152.804 395.807,154.08 C 395.807,155.167 395.68,156.131 395.426,156.97 C 395.172,157.81 394.847,158.505 394.449,159.055 C 394.052,159.606 393.618,160.039 393.146,160.354 C 392.674,160.67 392.104,160.909 391.437,161.072 C 390.769,161.235 390.003,161.316 389.137,161.316 L 383.971,161.316 z M 385.866,159.627 L 388.922,159.627 C 389.866,159.627 390.607,159.539 391.144,159.363 C 391.681,159.187 392.109,158.94 392.428,158.621 C 392.877,158.172 393.227,157.568 393.478,156.809 C 393.728,156.051 393.854,155.131 393.854,154.051 C 393.854,152.553 393.608,151.402 393.116,150.598 C 392.625,149.794 392.028,149.256 391.324,148.982 C 390.817,148.787 390,148.689 388.873,148.689 L 385.866,148.689 L 385.866,159.627 z M 405.483,164.965 L 405.483,166.316 L 397.912,166.316 C 397.902,165.978 397.957,165.652 398.076,165.34 C 398.269,164.824 398.578,164.316 399.002,163.816 C 399.427,163.316 400.04,162.738 400.842,162.082 C 402.087,161.061 402.928,160.252 403.366,159.656 C 403.803,159.06 404.022,158.496 404.022,157.965 C 404.022,157.407 403.823,156.937 403.424,156.554 C 403.026,156.172 402.506,155.98 401.866,155.98 C 401.188,155.98 400.647,156.183 400.24,156.59 C 399.834,156.996 399.629,157.558 399.623,158.277 L 398.178,158.129 C 398.277,157.051 398.649,156.229 399.295,155.664 C 399.941,155.099 400.808,154.816 401.897,154.816 C 402.996,154.816 403.865,155.121 404.506,155.73 C 405.147,156.34 405.467,157.095 405.467,157.996 C 405.467,158.454 405.373,158.905 405.186,159.347 C 404.998,159.79 404.687,160.256 404.252,160.746 C 403.817,161.235 403.095,161.907 402.084,162.761 C 401.24,163.47 400.699,163.95 400.459,164.203 C 400.22,164.456 400.022,164.709 399.866,164.965 L 405.483,164.965 z"
     id="text5608"
     style="font-size:20px;font-style:normal;font-weight:bold;fill:#000000;fill-opacity:1;stroke:none;stroke-width:1px;stroke-linecap:butt;stroke-linejoin:miter;stroke-opacity:1;font-family:Bitstream Vera Sans" />
  <use
     transform="translate(537.8,1.8e-4)"
     id="use6776"
     x="0"
     y="0"
     width="744.094"
     height="1052.36"
     xlink:href="#g6771" />
</svg>
