<?xml version="1.0" encoding="UTF-8" standalone="no"?>
<!-- Created with Digital by H.Neemann -->
<!-- created: Fri Dec 06 16:03:50 CET 2024 -->

<svg
   xmlns:svg="http://www.w3.org/2000/svg"
   xmlns="http://www.w3.org/2000/svg"
   width="63.75mm"
   height="65.25mm"
   viewBox="197 29 425 435">
<g stroke-linecap="square">
<path d="M 260,260 L 340,260 L 400,260 L 400,380 L 440,380" stroke="#000000" stroke-width="4.0" fill="none"/>
<path d="M 460,220 L 460,260 L 560,260" stroke="#000000" stroke-width="4.0" fill="none"/>
<path d="M 300,380 L 300,100 L 440,100" stroke="#000000" stroke-width="4.0" fill="none"/>
<path d="M 340,260 L 340,180 L 440,180" stroke="#000000" stroke-width="4.0" fill="none"/>
<path d="M 260,380 L 300,380 L 340,380" stroke="#000000" stroke-width="4.0" fill="none"/>
<path d="M 360,340 L 360,300 L 460,300 L 460,340" stroke="#000000" stroke-width="4.0" fill="none"/>
<path d="M 360,380 L 360,460" stroke="#000000" stroke-width="4.0" fill="none"/>
<path d="M 460,40 L 460,100" stroke="#000000" stroke-width="4.0" fill="none"/>
<path d="M 460,140 L 460,180" stroke="#000000" stroke-width="4.0" fill="none"/>
<path d="M 460,380 L 460,460" stroke="#000000" stroke-width="4.0" fill="none"/>
<path d="M 460,260 L 460,300" stroke="#000000" stroke-width="4.0" fill="none"/>
<path d="M 450,460 L 470,460" stroke="#000000" stroke-width="6.0" fill="none"/>
<path d="M 350,460 L 370,460" stroke="#000000" stroke-width="6.0" fill="none"/>
<path d="M 448,120 L 454,120" stroke="#000000" stroke-width="2.0" fill="none"/>
<path d="M 448,200 L 454,200" stroke="#000000" stroke-width="2.0" fill="none"/>
<path d="M 355,360 L 360,360" stroke="#000000" stroke-width="2.0" fill="none"/>
<path d="M 455,360 L 460,360" stroke="#000000" stroke-width="2.0" fill="none"/>
<path d="M 460,34 L 460,40" stroke="#000000" stroke-width="4.0" fill="none"/>
<path d="M 448,115 L 448,125" stroke="#000000" stroke-width="4.0" fill="none"/>
<path d="M 441,100 L 441,140" stroke="#000000" stroke-width="4.0" fill="none"/>
<path d="M 448,195 L 448,205" stroke="#000000" stroke-width="4.0" fill="none"/>
<path d="M 441,180 L 441,220" stroke="#000000" stroke-width="4.0" fill="none"/>
<path d="M 348,355 L 348,365" stroke="#000000" stroke-width="4.0" fill="none"/>
<path d="M 341,340 L 341,380" stroke="#000000" stroke-width="4.0" fill="none"/>
<path d="M 448,355 L 448,365" stroke="#000000" stroke-width="4.0" fill="none"/>
<path d="M 441,340 L 441,380" stroke="#000000" stroke-width="4.0" fill="none"/>
<g>
<circle cx="340.0" cy="260.0" r="4.0" stroke="#000000" stroke-width="4.0" fill="#000000" />
<circle cx="460.0" cy="260.0" r="4.0" stroke="#000000" stroke-width="4.0" fill="#000000" />
<circle cx="300.0" cy="380.0" r="4.0" stroke="#000000" stroke-width="4.0" fill="#000000" />
<circle cx="460.0" cy="300.0" r="4.0" stroke="#000000" stroke-width="4.0" fill="#000000" />
</g>
<g>
<path d="M 229,245 L 259,245 L 259,275 L 229,275 Z" stroke="#000000" stroke-width="4.0" fill="none"/>
<circle cx="244.0" cy="260.0" r="9.0" stroke="#000000" stroke-width="4.0" fill="none" />
<text text-anchor="end" x="215.0" y="269.0" fill="#000000" style="font-size:24px"><tspan style="font-style:italic;">A</tspan></text>
<circle cx="260.0" cy="260.0" r="2.0" stroke="#000000" stroke-width="4.0" fill="#000000" />
</g>
<g>
<path d="M 229,365 L 259,365 L 259,395 L 229,395 Z" stroke="#000000" stroke-width="4.0" fill="none"/>
<circle cx="244.0" cy="380.0" r="9.0" stroke="#000000" stroke-width="4.0" fill="none" />
<text text-anchor="end" x="215.0" y="389.0" fill="#000000" style="font-size:24px"><tspan style="font-style:italic;">B</tspan></text>
<circle cx="260.0" cy="380.0" r="2.0" stroke="#000000" stroke-width="4.0" fill="#000000" />
</g>
<g>
<path d="M 450,44 L 460,31 L 470,44" stroke="#000000" stroke-width="4.0" fill="none"/>
<circle cx="460.0" cy="40.0" r="2.0" stroke="#000000" stroke-width="4.0" fill="#000000" />
</g>
<g>
<path d="M 460,100 L 448,100 L 448,105" stroke="#000000" stroke-width="4.0" fill="none"/>
<path d="M 460,140 L 448,140 L 448,135" stroke="#000000" stroke-width="4.0" fill="none"/>
<path d="M 459,120 L 454,118 L 454,122 Z" stroke="#000000" stroke-width="2.0" fill="#000000" fill-opacity="1.0"/>
<circle cx="440.0" cy="100.0" r="2.0" stroke="#000000" stroke-width="4.0" fill="#000000" />
<circle cx="460.0" cy="100.0" r="2.0" stroke="#000000" stroke-width="4.0" fill="#000000" />
<circle cx="460.0" cy="140.0" r="2.0" stroke="#000000" stroke-width="4.0" fill="#000000" />
</g>
<g>
<path d="M 460,180 L 448,180 L 448,185" stroke="#000000" stroke-width="4.0" fill="none"/>
<path d="M 460,220 L 448,220 L 448,215" stroke="#000000" stroke-width="4.0" fill="none"/>
<path d="M 459,200 L 454,198 L 454,202 Z" stroke="#000000" stroke-width="2.0" fill="#000000" fill-opacity="1.0"/>
<circle cx="440.0" cy="180.0" r="2.0" stroke="#000000" stroke-width="4.0" fill="#000000" />
<circle cx="460.0" cy="180.0" r="2.0" stroke="#000000" stroke-width="4.0" fill="#000000" />
<circle cx="460.0" cy="220.0" r="2.0" stroke="#000000" stroke-width="4.0" fill="#000000" />
</g>
<g>
<path d="M 360,340 L 348,340 L 348,345" stroke="#000000" stroke-width="4.0" fill="none"/>
<path d="M 360,380 L 348,380 L 348,375" stroke="#000000" stroke-width="4.0" fill="none"/>
<path d="M 352,360 L 357,358 L 357,362 Z" stroke="#000000" stroke-width="2.0" fill="#000000" fill-opacity="1.0"/>
<circle cx="340.0" cy="380.0" r="2.0" stroke="#000000" stroke-width="4.0" fill="#000000" />
<circle cx="360.0" cy="340.0" r="2.0" stroke="#000000" stroke-width="4.0" fill="#000000" />
<circle cx="360.0" cy="380.0" r="2.0" stroke="#000000" stroke-width="4.0" fill="#000000" />
</g>
<g>
<path d="M 460,340 L 448,340 L 448,345" stroke="#000000" stroke-width="4.0" fill="none"/>
<path d="M 460,380 L 448,380 L 448,375" stroke="#000000" stroke-width="4.0" fill="none"/>
<path d="M 452,360 L 457,358 L 457,362 Z" stroke="#000000" stroke-width="2.0" fill="#000000" fill-opacity="1.0"/>
<circle cx="440.0" cy="380.0" r="2.0" stroke="#000000" stroke-width="4.0" fill="#000000" />
<circle cx="460.0" cy="340.0" r="2.0" stroke="#000000" stroke-width="4.0" fill="#000000" />
<circle cx="460.0" cy="380.0" r="2.0" stroke="#000000" stroke-width="4.0" fill="#000000" />
</g>
<g>
<circle cx="460.0" cy="460.0" r="2.0" stroke="#000000" stroke-width="4.0" fill="#000000" />
</g>
<g>
<circle cx="360.0" cy="460.0" r="2.0" stroke="#000000" stroke-width="4.0" fill="#000000" />
</g>
<g>
<circle cx="576.0" cy="260.0" r="9.0" stroke="#000000" stroke-width="4.0" fill="none" />
<circle cx="576.0" cy="260.0" r="15.0" stroke="#000000" stroke-width="4.0" fill="none" />
<text text-anchor="start" x="605.0" y="269.0" fill="#000000" style="font-size:24px"><tspan style="font-style:italic;">Y</tspan></text>
<circle cx="560.0" cy="260.0" r="2.0" stroke="#000000" stroke-width="4.0" fill="#000000" />
</g>
</g>
</svg>