<?xml version="1.0" encoding="UTF-8"?>
<!DOCTYPE svg PUBLIC "-//W3C//DTD SVG 1.1//EN" "http://www.w3.org/Graphics/SVG/1.1/DTD/svg11.dtd">
<svg xmlns="http://www.w3.org/2000/svg" xml:space="preserve" width="3.62913in" height="2.63138in" version="1.1" style="shape-rendering:geometricPrecision; text-rendering:geometricPrecision; image-rendering:optimizeQuality; fill-rule:evenodd; clip-rule:evenodd"
viewBox="0 0 2868 2080"
 xmlns:xlink="http://www.w3.org/1999/xlink">
 <defs>
  <style type="text/css">
   <![CDATA[
    .str0 {stroke:black;stroke-width:7.77927}
    .fil2 {fill:none}
    .fil1 {fill:black}
    .fil0 {fill:white}
    .fnt1 {font-weight:normal;font-size:98.7967px;font-family:'DejaVu Sans'}
    .fnt2 {font-weight:normal;font-size:131.728px;font-family:'DejaVu Sans'}
    .fnt0 {font-style:italic;font-weight:normal;font-size:131.728px;font-family:'DejaVu Sans'}
   ]]>
  </style>
 </defs>
 <rect class="fil0" width="2868" height="2080"/>
 <text x="57" y="1074"  class="fil1 fnt0">V</text>
 <text x="147" y="1104"  class="fil1 fnt1">in</text>
 <circle class="fil1" cx="1159" cy="751" r="20"/>
 <polyline class="fil2 str0" points="303,1041 459,1041 485,987 537,1096 588,987 640,1096 692,987 744,1096 770,1041 926,1041 1003,1041 "/>
 <text x="536" y="919"  class="fil1 fnt0">R</text>
 <text x="628" y="949"  class="fil1 fnt1">B</text>
 <circle class="fil2 str0" cx="1081" cy="1041" r="156"/>
 <line class="fil2 str0" x1="1003" y1="963" x2="1003" y2= "1119" />
 <polygon class="fil1" points="1047,1139 1135,1162 1070,1097 "/>
 <circle class="fil0 str0" cx="303" cy="1041" r="20"/>
 <polyline class="fil2 str0" points="1003,1086 1159,1176 1159,1487 1213,1513 1105,1565 1213,1617 1105,1669 1213,1721 1105,1772 1159,1798 1159,1954 2481,1954 "/>
 <text x="1255" y="1676"  class="fil1 fnt0">R</text>
 <text x="1346" y="1706"  class="fil1 fnt1">E</text>
 <text x="1877" y="1676"  class="fil1 fnt0">R</text>
 <text x="1968" y="1706"  class="fil1 fnt1">2</text>
 <polyline class="fil2 str0" points="1003,996 1159,907 1159,595 1105,569 1213,518 1105,466 1213,414 1105,362 1213,310 1159,284 1159,129 2481,129 "/>
 <text x="1255" y="473"  class="fil1 fnt0">R</text>
 <text x="1346" y="503"  class="fil1 fnt1">C1</text>
 <circle class="fil0 str0" cx="2481" cy="1954" r="20"/>
 <text x="2539" y="2002"  class="fil1 fnt0">V</text>
 <text x="2629" y="2032"  class="fil1 fnt1">−</text>
 <circle class="fil1" cx="2170" cy="751" r="20"/>
 <polyline class="fil2 str0" points="1781,1041 1937,1041 2015,1041 "/>
 <circle class="fil2 str0" cx="2092" cy="1041" r="156"/>
 <line class="fil2 str0" x1="2015" y1="963" x2="2015" y2= "1119" />
 <polyline class="fil2 str0" points="2015,1086 2170,1176 2170,1332 1159,1332 "/>
 <polygon class="fil1" points="2058,1139 2146,1162 2082,1097 "/>
 <polyline class="fil2 str0" points="2015,996 2170,907 2170,595 2116,569 2225,518 2116,466 2225,414 2116,362 2225,310 2170,284 2170,129 "/>
 <text x="2266" y="473"  class="fil1 fnt0">R</text>
 <text x="2357" y="503"  class="fil1 fnt1">C2</text>
 <polyline class="fil2 str0" points="1781,1954 1781,1798 1727,1772 1836,1721 1727,1669 1836,1617 1727,1565 1836,1513 1781,1487 1781,751 1626,751 1600,805 1548,696 1496,805 1444,696 1392,805 1340,696 1315,751 1159,751 "/>
 <text x="1411" y="940"  class="fil1 fnt0">R</text>
 <text x="1503" y="969"  class="fil1 fnt1">1</text>
 <circle class="fil0 str0" cx="2481" cy="129" r="20"/>
 <text x="2539" y="177"  class="fil1 fnt0">V</text>
 <text x="2629" y="206"  class="fil1 fnt1">+</text>
 <line class="fil2 str0" x1="2170" y1="751" x2="2481" y2= "751" />
 <circle class="fil0 str0" cx="2481" cy="751" r="20"/>
 <text x="2539" y="799"  class="fil1 fnt0">V</text>
 <text x="2629" y="829"  class="fil1 fnt1">out</text>
 <circle class="fil1" cx="1159" cy="1332" r="20"/>
 <circle class="fil1" cx="1781" cy="1041" r="20"/>
 <text x="834" y="848"  class="fil1 fnt2">Q1</text>
 <text x="2313" y="1082"  class="fil1 fnt2">Q2</text>
 <circle class="fil1" cx="2170" cy="129" r="20"/>
 <circle class="fil1" cx="1781" cy="1954" r="20"/>
</svg>
