<svg width="229mm" height="322mm" version="1.1" viewBox="0 0 229 322" xmlns="http://www.w3.org/2000/svg" xmlns:xlink="http://www.w3.org/1999/xlink"><rect width="229" height="322" fill="#fff"/><path d="m107 240 7-2v-7l9 13z"/>
 <g stroke="#000" fill="none" stroke-width="2">
 <g stroke-width="4"><path d="m92 191v44"/><circle cx="105" cy="213" r="36"/></g>
 <path d="m103 32h44m-24 112h44m-127 109h-18m28-9h-37m46-9h-55m119-203v36m-31 132 31-18v-66m-31 97h-61v22m61-11 31 20 0 60h-48m48-188 12-4-24-8 24-8-24-8 24-8-24-8 12-4"/>
 <g fill="#fff"><circle cx="167" cy="144" r="6"/><circle cx="75" cy="304" r="6"/></g></g>
 <circle cx="123" cy="144" r="4"/><circle cx="123" cy="32" r="4"/>
 <g font-family="Times" font-size="28px" font-style="italic"><text x="131" y="261" font-size="22px" font-style="normal">E<tspan x="131" y="184">C</tspan><tspan x="50" y="208">B</tspan></text><text x="177" y="155" font-style="italic">V<tspan dy="4" font-size="22px" font-style="normal">out</tspan></text><text x="29" y="314" font-style="italic">V<tspan dy="4" font-size="22px" font-style="normal">in</tspan></text><text x="71" y="97" font-style="italic">R<tspan dy="4" font-size="22px" font-style="normal">C</tspan></text><text x="109" y="24" font-style="italic">V<tspan dy="4" font-size="22px" font-style="normal">+</tspan></text></g></svg>