<?xml version="1.0" encoding="UTF-8" standalone="no"?>
<!-- Created with Inkscape (http://www.inkscape.org/) -->
<svg xmlns:rdf="http://www.w3.org/1999/02/22-rdf-syntax-ns#" xmlns="http://www.w3.org/2000/svg" height="504" width="476" version="1.1" xmlns:cc="http://creativecommons.org/ns#" xmlns:dc="http://purl.org/dc/elements/1.1/" viewBox="0 0 476 504">
 <metadata>
  <rdf:RDF>
   <cc:Work rdf:about="">
    <dc:format>image/svg+xml</dc:format>
    <dc:type rdf:resource="http://purl.org/dc/dcmitype/StillImage"/>
    <dc:title/>
   </cc:Work>
  </rdf:RDF>
 </metadata>
 <g stroke="#000" stroke-linecap="round" stroke-width="3.5" fill="none">
  <path d="m77 133v-49h168v210"/>
  <path d="m77 196v140h112"/>
  <path d="m245 378v70"/>
 </g>
 <g stroke="#000" fill="none">
  <circle stroke-linejoin="round" stroke-width="3.5" stroke-linecap="square" cy="336" cx="231" r="28"/>
  <g>
   <path d="m189 336h35" stroke-linecap="round" stroke-width="3.5"/>
   <path d="m224 318.5v35" stroke-linecap="square" stroke-width="7"/>
   <path d="m224 327.25 21-15.75v-17.5" stroke-linecap="round" stroke-width="3.5"/>
   <path d="m245 378v-17.5l-21-15.75" stroke-linecap="round" stroke-width="3.5"/>
  </g>
 </g>
 <path d="m232.75 357 5.25-7 4.375 8.75z"/>
 <g stroke="#000" stroke-width="3.5" fill="none">
  <path d="m266 462h-42" stroke-linecap="square"/>
  <path d="m245 448v14" stroke-linecap="round"/>
  <path d="m259 469h-28" stroke-linecap="square"/>
  <path d="m252 476h-14" stroke-linecap="square"/>
 </g>
 <g font-size="30px" font-family="&apos;Liberation Sans&apos;" fill="#000000">
  <text style="word-spacing:0px;letter-spacing:0px" xml:space="preserve" line-height="125%" y="301.00003" x="252"><tspan x="252" y="301.00003">C</tspan></text>
  <text style="word-spacing:0px;letter-spacing:0px" line-height="125%" y="392.00003" x="252" xml:space="preserve"><tspan y="392.00003" x="252">E</tspan></text>
  <text style="word-spacing:0px;letter-spacing:0px;text-anchor:end;text-align:end" xml:space="preserve" line-height="125%" y="364.00003" x="196"><tspan x="196" y="364.00003">B</tspan></text>
 </g>
 <path stroke-linejoin="bevel" d="m77 196v-10.5l7-3.5-14-7 14-7-14-7 14-7-14-7 7-3.5v-10.5" stroke="#000" stroke-linecap="round" stroke-width="3.5" fill="none"/>
 <text style="word-spacing:0px;letter-spacing:0px" font-size="30px" line-height="125%" y="175.00002" x="91" font-family="&apos;Liberation Sans&apos;" xml:space="preserve" fill="#000000"><tspan y="175.00002" x="91">R<tspan style="baseline-shift:sub" font-size="65%">b</tspan></tspan></text>
 <path stroke-linejoin="bevel" d="m336 84h-10.5l-3.5-7-7 14-7-14-7 14-7-14-7 14-3.5-7h-10.5" stroke="#000" stroke-linecap="round" stroke-width="3.5" fill="none"/>
 <text style="word-spacing:0px;letter-spacing:0px;text-anchor:middle;text-align:center" font-size="30px" line-height="125%" y="119" x="308" font-family="&apos;Liberation Sans&apos;" xml:space="preserve" fill="#000000"><tspan y="119" x="308">R<tspan style="baseline-shift:sub;text-anchor:middle;text-align:center" font-size="65%">c</tspan></tspan></text>
 <text style="word-spacing:0px;letter-spacing:0px;text-anchor:middle;text-align:center" xml:space="preserve" font-size="30px" line-height="125%" y="49" x="308" font-family="&apos;Liberation Sans&apos;" fill="#000000"><tspan x="308" y="49">(I<tspan style="baseline-shift:sub;text-anchor:middle;text-align:center" font-size="65%">c</tspan> + I<tspan style="baseline-shift:sub;text-anchor:middle;text-align:center" font-size="65%">b</tspan>)</tspan></text>
 <path d="m280 63h63" stroke="#000" stroke-width="2" fill="none"/>
 <path d="m271.25 63 10.5-5.25v10.5z"/>
 <text style="word-spacing:0px;letter-spacing:0px;text-anchor:end;text-align:end" xml:space="preserve" font-size="30px" line-height="125%" y="175.00002" x="49" font-family="&apos;Liberation Sans&apos;" fill="#000000"><tspan x="49" y="175.00002">I<tspan style="baseline-shift:sub" font-size="65%">b</tspan></tspan></text>
 <path d="m56 187.25v-63" stroke="#000" stroke-width="2" fill="none"/>
 <path d="m56 196-5.25-10.5h10.5z"/>
 <text style="word-spacing:0px;letter-spacing:0px;text-anchor:middle;text-align:center" xml:space="preserve" font-size="30px" line-height="125%" y="42.000023" x="420" font-family="&apos;Liberation Sans&apos;" fill="#000000"><tspan x="420" y="42.000023">+V<tspan style="baseline-shift:sub" font-size="65%">cc</tspan></tspan></text>
 <path d="m420 84v-28" stroke="#000" stroke-linecap="round" stroke-width="3.5" fill="none"/>
 <path d="m420 47.25-5.25 10.5h10.5z"/>
 <text style="word-spacing:0px;letter-spacing:0px" xml:space="preserve" font-size="30px" line-height="125%" y="336.00003" x="322" font-family="&apos;Liberation Sans&apos;" fill="#000000"><tspan x="322" y="336.00003">V<tspan style="baseline-shift:sub" font-size="65%">ce</tspan></tspan></text>
 <path d="m262.86 260.54 11.501-2.3535-2.7176 10.142z"/>
 <path fill="none" stroke="#000" stroke-linecap="round" stroke-width="2" d="m273 263.25a84 84 0 0 1 42 72.746 84 84 0 0 1 -42 72.746"/>
 <path d="m262.86 411.46 8.7834-7.7887 2.7176 10.142z"/>
 <text style="word-spacing:0px;letter-spacing:0px;text-anchor:end;text-align:end" font-size="30px" line-height="125%" y="413.00003" x="175" font-family="&apos;Liberation Sans&apos;" xml:space="preserve" fill="#000000"><tspan y="413.00003" x="175">V<tspan style="baseline-shift:sub;text-anchor:end;text-align:end" font-size="65%">be</tspan></tspan></text>
 <path d="m231 420a84 84 0 0 1 -81.138 -62.259" stroke="#000" stroke-linecap="round" stroke-width="2" fill="none"/>
 <path d="m241.5 420-10.5 5.25 0.00002-10.5z"/>
 <path d="m147.14 347.6 7.7887 8.7834-10.142 2.7176z"/>
 <path d="m336 84h84" stroke="#000" stroke-linecap="round" stroke-width="3.5" fill="none"/>
 <path d="m245 84h28" stroke="#000" stroke-linecap="round" stroke-width="3.5" fill="none"/>
 <text style="word-spacing:0px;letter-spacing:0px;text-anchor:end;text-align:end" font-size="30px" line-height="125%" y="175" x="217" font-family="&apos;Liberation Sans&apos;" xml:space="preserve" fill="#000000"><tspan y="175" x="217">I<tspan style="baseline-shift:sub" font-size="65%">c</tspan></tspan></text>
 <path d="m224 187.25v-63" stroke="#000" stroke-width="2" fill="none"/>
 <path d="m224 196-5.25-10.5h10.5z"/>
</svg>
