<?xml version="1.0" encoding="ISO-8859-1" standalone="yes"?>
<svg width="132.747" height="197.547">
  <defs> 
    <marker id="ArrowEnd" viewBox="0 0 10 10" refX="0" refY="5" 
     markerUnits="strokeWidth" 
     markerWidth="4" 
     markerHeight="3" 
     orient="auto"> 
        <path d="M 0 0 L 10 5 L 0 10 z" /> 
    </marker>
    <marker id="ArrowStart" viewBox="0 0 10 10" refX="10" refY="5" 
     markerUnits="strokeWidth" 
     markerWidth="4" 
     markerHeight="3" 
     orient="auto"> 
        <path d="M 10 0 L 0 5 L 10 10 z" /> 
    </marker> </defs>
<g>
<path style="stroke:#ffffff; stroke-width:0.29999999999999999; fill:none" d="M 1.57225 195.975L 131.174 195.975L 131.174 1.57227L 1.57225 1.57227L 1.57225 195.975z"/>
<path style="stroke:#000000; stroke-width:1.2; fill:none" d="M 44.7715 87.9753L 23.1739 87.9753"/>
<path style="stroke:#000000; stroke-width:2.3999999999999999; fill:none" d="M 44.7715 105.252L 44.7715 70.6933"/>
<path style="stroke:#000000; stroke-width:1.2; fill:none" d="M 44.7715 77.1743L 66.373 66.3733"/>
<path style="stroke:#000000; stroke-width:1.2; fill:none" d="M 66.373 109.572L 44.7715 98.7713"/>
<path style="stroke:#000000; stroke-width:1.2; fill:none" d="M 66.373 131.174L 66.373 109.572"/>
<path style="stroke:#000000; stroke-width:1.2; fill:none" d="M 66.373 44.7713L 66.373 66.3733"/>
<path style="stroke:none; fill-rule:evenodd; fill:#000000" d="M 66.373 109.572L 59.8925 103.092L 57.7325 107.412"/>
<path style="stroke:#000000; stroke-width:1.2; fill:none" d="M 109.572 44.7713L 66.373 44.7713"/>
<path style="stroke:#000000; stroke-width:1.2; fill:none" d="M 87.9703 131.174L 66.373 131.174"/>
<path style="stroke:#000000; stroke-width:2.3999999999999999; fill:none" d="M 87.9703 148.451L 87.9703 113.893"/>
<path style="stroke:#000000; stroke-width:1.2; fill:none" d="M 87.9703 120.373L 109.572 109.572"/>
<path style="stroke:#000000; stroke-width:1.2; fill:none" d="M 109.572 152.771L 87.9703 141.975"/>
<path style="stroke:#000000; stroke-width:1.2; fill:none" d="M 109.572 174.373L 109.572 152.771"/>
<path style="stroke:#000000; stroke-width:1.2; fill:none" d="M 109.572 23.1743L 109.572 109.572"/>
<path style="stroke:none; fill-rule:evenodd; fill:#000000" d="M 109.572 152.771L 103.092 146.295L 100.931 150.611"/>
<path style="stroke:#000000; stroke-width:0.29999999999999999; fill:none" d="M 111.97 44.7713C 111.97 43.4473 110.896 42.3733 109.572 42.3733C 108.248 42.3733 107.174 43.4473 107.174 44.7713C 107.174 46.1003 108.248 47.1743 109.572 47.1743C 110.896 47.1743 111.97 46.1003 111.97 44.7713z"/>
<path style="stroke:none; fill-rule:evenodd; fill:#000000" d="M 111.97 44.7713C 111.97 43.4473 110.896 42.3733 109.572 42.3733C 108.248 42.3733 107.174 43.4473 107.174 44.7713C 107.174 46.1003 108.248 47.1743 109.572 47.1743C 110.896 47.1743 111.97 46.1003 111.97 44.7713"/>
<path style="stroke:none; fill-rule:evenodd; fill:#000000" d="M 8.22455 85.1743L 8.22455 85.3733C 8.96675 85.4203 9.07225 85.5183 9.07225 86.1823L 9.07225 90.1663C 9.07225 90.8303 8.95895 90.9473 8.22455 90.9753L 8.22455 91.1743L 11.209 91.1743C 11.9082 91.1743 12.5411 90.9823 12.8731 90.6743C 13.1934 90.3853 13.3731 89.9783 13.3731 89.5413C 13.3731 89.1433 13.2129 88.7793 12.9434 88.5183C 12.6778 88.2713 12.4395 88.1663 11.8731 88.0213C 12.3262 87.9003 12.5098 87.8113 12.7207 87.6193C 12.9395 87.4243 13.0723 87.0883 13.0723 86.7173C 13.0723 85.7013 12.2754 85.1743 10.7285 85.1743L 8.22455 85.1743zM 9.97065 88.2713C 10.8575 88.2713 11.2754 88.3183 11.6035 88.4513C 12.127 88.6703 12.3731 89.0293 12.3731 89.5963C 12.3731 90.0843 12.1817 90.4323 11.8145 90.6393C 11.5215 90.8033 11.1504 90.8733 10.5489 90.8733C 10.0996 90.8733 9.97065 90.7913 9.97065 90.5063L 9.97065 88.2713zM 9.97065 87.8733L 9.97065 85.8383C 9.97065 85.6543 10.0371 85.5723 10.1739 85.5723L 10.5723 85.5723C 11.6192 85.5723 12.1739 85.9983 12.1739 86.7873C 12.1739 87.4823 11.6895 87.8733 10.8379 87.8733L 9.97065 87.8733z"/>
<path style="stroke:none; fill-rule:evenodd; fill:#000000" d="M 111.744 187.951L 111.494 187.951C 111.041 188.951 110.654 189.174 109.361 189.174L 109.119 189.174C 108.677 189.174 108.299 189.127 108.236 189.065C 108.189 189.037 108.174 188.94 108.174 188.787L 108.174 186.572L 109.564 186.572C 110.302 186.572 110.439 186.686 110.556 187.393L 110.763 187.393L 110.763 185.272L 110.556 185.272C 110.494 185.662 110.459 185.803 110.357 185.936C 110.24 186.096 109.986 186.174 109.564 186.174L 108.174 186.174L 108.174 184.092C 108.174 183.83 108.224 183.772 108.47 183.772L 109.689 183.772C 110.709 183.772 110.908 183.92 111.06 184.803L 111.287 184.803L 111.26 183.475L 106.478 183.475L 106.478 183.674C 107.154 183.729 107.271 183.854 107.271 184.483L 107.271 188.467C 107.271 189.096 107.146 189.229 106.478 189.272L 106.478 189.475L 111.342 189.475L 111.744 187.951z"/>
<path style="stroke:none; fill-rule:evenodd; fill:#000000" d="M 111.951 11.5723L 111.873 9.47525L 111.685 9.47525C 111.631 9.66226 111.49 9.77127 111.31 9.77127C 111.228 9.77127 111.095 9.74426 110.963 9.68927C 110.525 9.54526 110.08 9.47525 109.662 9.47525C 108.927 9.47525 108.189 9.75226 107.634 10.2443C 107.01 10.8033 106.674 11.6393 106.674 12.6273C 106.674 13.4633 106.939 14.2363 107.396 14.7483C 107.931 15.3303 108.752 15.6743 109.634 15.6743C 110.642 15.6743 111.525 15.2682 112.068 14.5533L 111.908 14.3932C 111.244 15.0103 110.646 15.2713 109.9 15.2713C 109.338 15.2713 108.834 15.0963 108.443 14.7563C 107.951 14.3183 107.674 13.5182 107.674 12.5293C 107.674 10.9163 108.51 9.87326 109.81 9.87326C 110.326 9.87326 110.791 10.0643 111.15 10.4323C 111.439 10.7253 111.576 10.9783 111.744 11.5723L 111.951 11.5723z"/>
</g>
</svg>