<?xml version="1.0" encoding="UTF-8" standalone="no"?>
<svg
   xmlns:dc="http://purl.org/dc/elements/1.1/"
   xmlns:cc="http://creativecommons.org/ns#"
   xmlns:rdf="http://www.w3.org/1999/02/22-rdf-syntax-ns#"
   xmlns:svg="http://www.w3.org/2000/svg"
   xmlns="http://www.w3.org/2000/svg"
   xmlns:sodipodi="http://sodipodi.sourceforge.net/DTD/sodipodi-0.dtd"
   xmlns:inkscape="http://www.inkscape.org/namespaces/inkscape"
   xml:space="preserve"
   width="2.80795in"
   height="3.59689in"
   version="1.1"
   style="shape-rendering:geometricPrecision; text-rendering:geometricPrecision; image-rendering:optimizeQuality; fill-rule:evenodd; clip-rule:evenodd"
   viewBox="0 0 3045 3900"
   id="svg105"
   sodipodi:docname="Differential_amplifier_long-tailed_pair.svg"
   inkscape:version="0.92.2 5c3e80d, 2017-08-06"><metadata
     id="metadata109"><rdf:RDF><cc:Work
         rdf:about=""><dc:format>image/svg+xml</dc:format><dc:type
           rdf:resource="http://purl.org/dc/dcmitype/StillImage" /><dc:title></dc:title></cc:Work></rdf:RDF></metadata><sodipodi:namedview
     pagecolor="#ffffff"
     bordercolor="#666666"
     borderopacity="1"
     objecttolerance="10"
     gridtolerance="10"
     guidetolerance="10"
     inkscape:pageopacity="0"
     inkscape:pageshadow="2"
     inkscape:window-width="1553"
     inkscape:window-height="979"
     id="namedview107"
     showgrid="false"
     inkscape:zoom="2"
     inkscape:cx="82.457884"
     inkscape:cy="172.65072"
     inkscape:window-x="201"
     inkscape:window-y="60"
     inkscape:window-maximized="0"
     inkscape:current-layer="svg105" /><defs
     id="defs4"><style
       type="text/css"
       id="style2"><![CDATA[
    .str1 {stroke:black;stroke-width:12.8069}
    .str0 {stroke:black;stroke-width:12.8069;stroke-linecap:round;stroke-linejoin:round}
    .fil1 {fill:none}
    .fil2 {fill:black}
    .fil0 {fill:white}
    .fil3 {fill:black;fill-rule:nonzero}
    .fnt1 {font-weight:normal;font-size:135.535px;font-family:'DejaVu Sans'}
    .fnt2 {font-weight:normal;font-size:180.718px;font-family:'DejaVu Sans'}
    .fnt0 {font-style:italic;font-weight:normal;font-size:180.718px;font-family:'DejaVu Sans'}
   ]]></style></defs><g
     id="g103"><rect
       class="fil0"
       width="3045"
       height="3900"
       id="rect6" /><line
       class="fil1 str0"
       x1="442"
       y1="2270"
       x2="869"
       y2="2270"
       id="line8" /><text
       x="1224"
       y="1293"
       class="fil2 fnt0"
       id="text10">R</text>
<text
       x="1350"
       y="1334"
       class="fil2 fnt1"
       id="text12">C1</text>
<text
       x="2078"
       y="1293"
       class="fil2 fnt0"
       id="text14">R</text>
<text
       x="2204"
       y="1334"
       class="fil2 fnt1"
       id="text16">C2</text>
<polyline
       class="fil1 str0"
       points="869,2209 1082,2085 1082,1765 1082,1445 1007,1409 1157,1338 1007,1267 1157,1196 1007,1125 1157,1054 1082,1018 1082,805 1936,805 1936,1018 2011,1054 1861,1125 2011,1196 1861,1267 2011,1338 1861,1409 1936,1445 1936,1765 1936,2085 2149,2209 "
       id="polyline18" /><line
       class="fil1 str0"
       x1="1509"
       y1="805"
       x2="1509"
       y2="378"
       id="line20" /><circle
       class="fil2 str0"
       cx="1509"
       cy="805"
       r="21"
       id="circle22" /><line
       class="fil1 str0"
       x1="2576"
       y1="2270"
       x2="2149"
       y2="2270"
       id="line24" /><polyline
       class="fil1 str0"
       points="2149,2332 1936,2455 1936,2669 1082,2669 1082,2455 869,2332 "
       id="polyline26" /><polyline
       class="fil1 str0"
       points="1509,2669 1509,2882 1584,2918 1434,2989 1584,3060 1434,3131 1584,3202 1434,3273 1509,3309 1509,3522 "
       id="polyline28" /><circle
       class="fil2 str0"
       cx="1509"
       cy="2669"
       r="21"
       id="circle30" /><text
       x="1651"
       y="3157"
       class="fil2 fnt0"
       id="text32">R</text>
<text
       x="1777"
       y="3197"
       class="fil2 fnt1"
       id="text34">E</text>
<line
       class="fil1 str0"
       x1="1082"
       y1="1765"
       x2="1296"
       y2="1765"
       id="line36" /><circle
       class="fil2 str0"
       transform="matrix(8.36953E-015 0.316016 -0.316016 8.36953E-015 1082.2 1765.21)"
       r="68"
       id="circle38" /><line
       class="fil1 str0"
       x1="1936"
       y1="1765"
       x2="1723"
       y2="1765"
       id="line40" /><circle
       class="fil2 str0"
       transform="matrix(-8.36953E-015 0.316016 0.316016 8.36953E-015 1935.99 1765.21)"
       r="68"
       id="circle42" /><text
       x="1085"
       y="2326"
       class="fil2 fnt2"
       id="text44">Q1</text>
<text
       x="1683"
       y="2326"
       class="fil2 fnt2"
       id="text46">Q2</text>
<text
       x="1331"
       y="1637"
       class="fil2 fnt0"
       id="text48">V</text>
<text
       x="1454"
       y="1678"
       class="fil2 fnt1"
       id="text50">out</text>
<g
       id="g58"><text
         x="2686"
         y="2322"
         class="fil2 fnt0"
         id="text52">V</text>
<text
         x="2810"
         y="2362"
         class="fil2 fnt1"
         id="text54">in</text>
<polygon
         class="fil3"
         points="2922,2179 2922,2190 2838,2190 2838,2179 "
         id="polygon56" /></g><g
       id="g66"><text
         x="103"
         y="2342"
         class="fil2 fnt0"
         id="text60">V</text>
<text
         x="227"
         y="2383"
         class="fil2 fnt1"
         id="text62">in</text>
<text
         x="241"
         y="2247"
         class="fil2 fnt1"
         id="text64">+</text>
</g><text
       x="1349"
       y="250"
       class="fil2 fnt0"
       id="text68">V</text>
<text
       x="1473"
       y="290"
       class="fil2 fnt1"
       id="text70">CC</text>
<text
       x="1359"
       y="3742"
       class="fil2 fnt0"
       id="text72">V</text>
<text
       x="1483"
       y="3782"
       class="fil2 fnt1"
       id="text74">EE</text>
<g
       id="_687971912"
       transform="translate(420)"><line
         class="fil1 str0"
         x1="1242"
         y1="1893"
         x2="1349"
         y2="1893"
         id="line76"
         style="fill:none;stroke:#000000;stroke-width:12.80690002;stroke-linecap:round;stroke-linejoin:round" /><line
         class="fil1 str0"
         x1="1296"
         y1="1947"
         x2="1296"
         y2="1840"
         id="line78"
         style="fill:none;stroke:#000000;stroke-width:12.80690002;stroke-linecap:round;stroke-linejoin:round" /></g><line
       class="fil1 str0"
       x1="1250"
       y1="1893"
       x2="1315"
       y2="1893"
       id="line81"
       style="fill:none;stroke:#000000;stroke-width:12.80690002;stroke-linecap:round;stroke-linejoin:round" /><line
       class="fil1 str0"
       x1="869"
       y1="2164"
       x2="869"
       y2="2377"
       id="line83" /><polygon
       class="fil2"
       points="928,2404 1049,2436 960,2347 "
       id="polygon85" /><line
       class="fil1 str0"
       x1="2149"
       y1="2164"
       x2="2149"
       y2="2377"
       id="line87" /><polygon
       class="fil2"
       points="2090,2404 1969,2436 2058,2347 "
       id="polygon89" /><circle
       class="fil0 str1"
       cx="1509"
       cy="378"
       r="28"
       id="circle91" /><circle
       class="fil0 str1"
       cx="1296"
       cy="1765"
       r="28"
       id="circle93" /><circle
       class="fil0 str1"
       cx="1723"
       cy="1765"
       r="28"
       id="circle95" /><circle
       class="fil0 str1"
       cx="2576"
       cy="2270"
       r="28"
       id="circle97" /><circle
       class="fil0 str1"
       cx="1509"
       cy="3522"
       r="28"
       id="circle99" /><circle
       class="fil0 str1"
       cx="442"
       cy="2270"
       r="28"
       id="circle101" /></g></svg>